<?xml version="1.0" encoding="UTF-8" standalone="no"?>
<svg width="28px" height="28px" viewBox="0 0 28 28" version="1.1" xmlns="http://www.w3.org/2000/svg" xmlns:xlink="http://www.w3.org/1999/xlink">
    <!-- Generator: Sketch 48.2 (47327) - http://www.bohemiancoding.com/sketch -->
    <title>call@1x</title>
    <desc>Created with Sketch.</desc>
    <defs></defs>
    <g id="新-售后申请-联系客服" stroke="none" stroke-width="1" fill="none" fill-rule="evenodd" transform="translate(-366.000000, -110.000000)">
        <g id="Group-4" transform="translate(0.000000, 80.000000)" fill="#76B900" fill-rule="nonzero">
            <g id="Group-6">
                <path d="M379.999986,30 C372.26236,30 366,36.2774194 366,44 C366,51.7376344 372.277413,58 379.999986,58 C387.737613,58 393.999973,51.7225806 393.999973,44 C394.015027,36.2774194 387.737613,30 379.999986,30 Z M385.449444,50.4430108 C384.455896,51.4365591 380.782781,50.488172 377.139774,46.8602151 C373.511821,43.2322581 372.578488,39.544086 373.572036,38.5655914 C374.430099,37.7075269 375.468808,36.2172043 377.034398,38.1591398 C378.599988,40.1010753 377.832247,40.6430108 376.944075,41.5311828 C376.326872,42.1483871 377.621494,43.7139785 378.961278,45.0537634 C380.316115,46.3935484 381.866651,47.688172 382.483855,47.0709677 C383.372026,46.1827957 383.913961,45.4150538 385.855895,46.9806452 C387.812882,48.5462366 386.307507,49.6 385.449444,50.4430108 Z" id="call"></path>
            </g>
        </g>
    </g>
</svg>