<?xml version="1.0" encoding="UTF-8" standalone="no"?>
<svg width="10px" height="12px" viewBox="0 0 10 12" version="1.1" xmlns="http://www.w3.org/2000/svg" xmlns:xlink="http://www.w3.org/1999/xlink">
    <!-- Generator: Sketch 48.2 (47327) - http://www.bohemiancoding.com/sketch -->
    <title>定位@1x</title>
    <desc>Created with Sketch.</desc>
    <defs></defs>
    <g id="新-全部订单-订单详情-待发货-退款中" stroke="none" stroke-width="1" fill="none" fill-rule="evenodd" transform="translate(-10.000000, -243.000000)">
        <g id="Group" transform="translate(0.000000, 209.000000)" fill="#333333" fill-rule="nonzero">
            <g id="Group-7" transform="translate(10.000000, 18.000000)">
                <g id="定位" transform="translate(0.000000, 16.000000)">
                    <path d="M4.97760005,4.62322141e-05 C2.22076743,0.0114478341 -0.012184729,2.0929701 5.00383479e-05,4.64039864 C0.0115465154,7.03064107 4.13097461,11.3383982 4.60074784,11.821553 C4.71138103,11.935715 4.86961071,12.0006654 5.0354612,11.9999949 C5.20131169,11.9993243 5.3589201,11.933097 5.46846772,11.8180448 C5.93360016,11.330992 10.0114722,6.98951736 9.99997574,4.59917749 C9.98774096,2.0518464 7.73464361,-0.0112579067 4.97760005,4.62322141e-05 Z M5.0096636,6.64766436 C3.89313479,6.65224448 2.98037828,5.81661464 2.97542109,4.78491632 C2.9704639,3.75321799 3.87509904,2.91008453 4.99152238,2.90560185 C6.10847308,2.90092428 7.02101865,3.73655412 7.02597584,4.76815499 C7.03093303,5.79995077 6.12650883,6.64298678 5.0096636,6.64766436 Z" id="Shape"></path>
                </g>
            </g>
        </g>
    </g>
</svg>