<?xml version="1.0" encoding="UTF-8" standalone="no"?>
<svg width="20px" height="20px" viewBox="0 0 20 20" version="1.1" xmlns="http://www.w3.org/2000/svg" xmlns:xlink="http://www.w3.org/1999/xlink">
    <!-- Generator: Sketch 48.2 (47327) - http://www.bohemiancoding.com/sketch -->
    <title>星级01@1x</title>
    <desc>Created with Sketch.</desc>
    <defs>
        <linearGradient x1="0%" y1="0%" x2="100%" y2="100%" id="linearGradient-1">
            <stop stop-color="#FD4A70" offset="0%"></stop>
            <stop stop-color="#F76B1C" offset="100%"></stop>
        </linearGradient>
    </defs>
    <g id="新-评价" stroke="none" stroke-width="1" fill="none" fill-rule="evenodd" transform="translate(-86.000000, -711.000000)">
        <g id="Group-4" transform="translate(0.000000, 640.000000)" fill="url(#linearGradient-1)" fill-rule="nonzero">
            <g id="Shape-Copy-5-+-性能问题：商品下单页面卡顿，无法支付，选-Mask" transform="translate(10.000000, 71.000000)">
                <g id="评价" transform="translate(76.000000, 0.000000)">
                    <path d="M15.0599087,19.9999604 C14.7600242,19.9999604 14.4823236,19.9222594 14.2155426,19.777777 L10.1499184,17.5443331 C10.0536715,17.4888196 9.93513146,17.4888196 9.83888456,17.5443331 L5.77314548,19.777777 C5.50659428,19.9222594 5.21762934,19.9999604 4.92889428,19.9999604 C4.40682634,19.9999604 3.91797674,19.7666276 3.5736096,19.3555939 C3.21809306,18.9444453 3.07384047,18.3888142 3.16257593,17.833298 L3.94027554,13.0999741 C3.96245941,12.966756 3.91797674,12.8221585 3.82912634,12.7222737 L0.529937463,9.38894694 C0.0413177401,8.88894793 -0.125348597,8.15561605 0.0968348716,7.47780129 C0.318903398,6.82217041 0.863155194,6.35550467 1.5297056,6.2444704 L6.07314488,5.55562119 C6.18406421,5.53343733 6.28417895,5.45562139 6.33969608,5.34447218 L8.38360008,1.04448069 C8.68371443,0.399999208 9.30566722,0 10.0056658,0 C10.7054346,0 11.3163529,0.399999208 11.6273868,1.04448069 L13.6602563,5.34447218 C13.7157734,5.45562139 13.8158882,5.53343733 13.9269224,5.55562119 L18.4701318,6.2444704 C19.1365673,6.3444702 19.6919685,6.82217041 19.9031175,7.47780129 C20.1254159,8.1555011 19.9586346,8.88894793 19.4699,9.38894694 L16.1819755,12.7443426 C16.0931251,12.833193 16.0485274,12.9777904 16.0707113,13.1222729 L16.8484109,17.8554819 C16.9371464,18.3999636 16.7928938,18.9555947 16.4373772,19.3776628 C16.0818607,19.7666276 15.5819766,19.9999604 15.0599087,19.9999604 Z" id="星级01"></path>
                </g>
            </g>
        </g>
    </g>
</svg>