<?xml version="1.0" encoding="UTF-8" standalone="no"?>
<svg width="20px" height="20px" viewBox="0 0 20 20" version="1.1" xmlns="http://www.w3.org/2000/svg" xmlns:xlink="http://www.w3.org/1999/xlink">
    <!-- Generator: Sketch 48.2 (47327) - http://www.bohemiancoding.com/sketch -->
    <title>星级00@1x</title>
    <desc>Created with Sketch.</desc>
    <defs></defs>
    <g id="新-评价" stroke="none" stroke-width="1" fill="none" fill-rule="evenodd" transform="translate(-86.000000, -751.000000)">
        <g id="Group-4" transform="translate(0.000000, 640.000000)" fill="#999999" fill-rule="nonzero">
            <g id="Shape-Copy-5-+-性能问题：商品下单页面卡顿，无法支付，选-Mask-Copy" transform="translate(10.000000, 111.000000)">
                <g id="评价" transform="translate(76.000000, 0.000000)">
                    <path d="M15.0599087,19.9999604 C14.7600242,19.9999604 14.4823236,19.9222594 14.2155426,19.777777 L10.1499184,17.5443331 C10.0536715,17.4888196 9.93513146,17.4888196 9.83888456,17.5443331 L5.77314548,19.777777 C5.50659428,19.9222594 5.21762934,19.9999604 4.92889428,19.9999604 C4.40682634,19.9999604 3.91797674,19.7666276 3.5736096,19.3555939 C3.21809306,18.9444453 3.07384047,18.3888142 3.16257593,17.833298 L3.94027554,13.0999741 C3.96245941,12.966756 3.91797674,12.8221585 3.82912634,12.7222737 L0.529937463,9.38894694 C0.0413177401,8.88894793 -0.125348597,8.15561605 0.0968348716,7.47780129 C0.318903398,6.82217041 0.863155194,6.35550467 1.5297056,6.2444704 L6.07314488,5.55562119 C6.18406421,5.53343733 6.28417895,5.45562139 6.33969608,5.34447218 L8.38360008,1.04448069 C8.68371443,0.399999208 9.30566722,0 10.0056658,0 C10.7054346,0 11.3163529,0.399999208 11.6273868,1.04448069 L13.6602563,5.34447218 C13.7157734,5.45562139 13.8158882,5.53343733 13.9269224,5.55562119 L18.4701318,6.2444704 C19.1365673,6.3444702 19.6919685,6.82217041 19.9031175,7.47780129 C20.1254159,8.1555011 19.9586346,8.88894793 19.4699,9.38894694 L16.1819755,12.7443426 C16.0931251,12.833193 16.0485274,12.9777904 16.0707113,13.1222729 L16.8484109,17.8554819 C16.9371464,18.3999636 16.7928938,18.9555947 16.4373772,19.3776628 C16.0818607,19.7666276 15.5819766,19.9999604 15.0599087,19.9999604 Z M9.99440149,16.0667498 C10.294286,16.0667498 10.583136,16.1445658 10.8387676,16.2889333 L14.9043918,18.5222622 C14.959794,18.5554805 15.0043916,18.5667449 15.0600237,18.5667449 C15.1488741,18.5667449 15.2487589,18.5222622 15.3155404,18.4334118 C15.3710575,18.3667453 15.4377241,18.255711 15.4042758,18.0889297 L14.6266912,13.3556058 C14.5265764,12.7667563 14.7155416,12.1556081 15.1376097,11.7334251 L18.4367986,8.37779951 C18.6034649,8.21113318 18.5480627,7.99998417 18.5367984,7.93331763 C18.5147295,7.8666511 18.4367986,7.69998476 18.2478334,7.6778009 L13.704624,6.98883675 C13.1092152,6.89879946 12.5994819,6.51430553 12.3493394,5.96653992 L10.3164698,1.65551397 C10.2276194,1.46654882 10.0832519,1.44436496 10.0055509,1.44436496 C9.92773496,1.44436496 9.78336743,1.47769823 9.69440209,1.65551397 L7.65061303,5.95550546 C7.40042352,6.50321306 6.8907041,6.88765329 6.29532835,6.97768734 L1.75200401,7.6666515 C1.56315381,7.69998476 1.48545281,7.8555017 1.46326895,7.92216823 C1.44108509,7.97768536 1.38545301,8.19998377 1.56326875,8.36665011 L4.85130822,11.7220458 C5.26234189,12.1444587 5.45130703,12.7443426 5.36234169,13.3443414 L4.58475703,18.0776654 C4.5580118,18.2035852 4.5908373,18.3348024 4.67372237,18.4332969 C4.7403889,18.5111128 4.84027376,18.5666299 4.9292391,18.5666299 C4.98475623,18.5666299 5.02912396,18.5553656 5.08475604,18.5221473 L9.15061006,16.2888183 C9.40847878,16.1444078 9.69885259,16.0679874 9.99440149,16.0667498 Z" id="星级00"></path>
                </g>
            </g>
        </g>
    </g>
</svg>