<?xml version="1.0" encoding="UTF-8" standalone="no"?>
<svg width="24px" height="24px" viewBox="0 0 24 24" version="1.1" xmlns="http://www.w3.org/2000/svg" xmlns:xlink="http://www.w3.org/1999/xlink">
    <!-- Generator: Sketch 48.2 (47327) - http://www.bohemiancoding.com/sketch -->
    <title>申请退款icon@1x</title>
    <desc>Created with Sketch.</desc>
    <defs>
        <linearGradient x1="0%" y1="0%" x2="100%" y2="100%" id="linearGradient-1">
            <stop stop-color="#FD4A70" offset="0%"></stop>
            <stop stop-color="#F76B1C" offset="100%"></stop>
        </linearGradient>
    </defs>
    <g id="新-售后申请" stroke="none" stroke-width="1" fill="none" fill-rule="evenodd" transform="translate(-10.000000, -305.000000)">
        <g id="Group-Copy" transform="translate(0.000000, 292.000000)" fill="url(#linearGradient-1)" fill-rule="nonzero">
            <g id="申请退款icon" transform="translate(10.000000, 13.000000)">
                <path d="M12,0 C7.95795711,0.0475364267 3.93354048,0.541533568 1.94964045e-13,1.473 L1.94964045e-13,12 C0.211241429,13.6602733 0.786984298,15.2532985 1.686,16.665 C2.63315029,18.1996073 3.85326588,19.5478351 5.286,20.643 C7.30331753,22.1576118 9.57792,23.2949131 12,24 C14.4152926,23.2956046 16.6839969,22.1620146 18.6975,20.6535 C20.1287166,19.5614461 21.3486901,18.2174419 22.2975,16.6875 C23.2033326,15.2694711 23.784687,13.6688257 24,12 L24,1.473 C20.0664638,0.541509423 16.0420445,0.0475119515 12,0 Z M22.9995,11.955 C22.7906437,13.4533088 22.262212,14.8892312 21.45,16.1655 C20.5642919,17.5921638 19.425635,18.8451947 18.09,19.863 C16.254539,21.2376374 14.1937714,22.2822334 12,22.95 C9.80143262,22.279714 7.73688862,21.2304363 5.8995,19.8495 C4.56311575,18.8287916 3.42485782,17.5720816 2.541,16.1415 C1.73266824,14.87344 1.20723058,13.4460096 1.0005,11.9565 L1.0005,2.25 C4.6161592,1.46774205 8.30100671,1.04915785 12,1.0005 C15.6990991,1.05006376 19.3839558,1.46965401 22.9995,2.253 L22.9995,11.955 Z M11.3835,13.5 L11.3835,10.2 L15.6255,10.2 L15.6255,10.5345 L16.5255,10.5345 L16.5255,4.788 L10.467,4.788 L10.467,13.155 C10.4727493,13.4763227 10.3464114,13.785932 10.1175,14.0115 L10.8,14.958 C11.0151384,14.7964319 11.2406203,14.6491171 11.475,14.517 C12.257,14.122 13.032,13.773 13.8,13.47 C13.768,13.151 13.748,12.819 13.74,12.474 C12.812,12.895 12.0265,13.237 11.3835,13.5 Z M8.4555,14.1 L8.4555,8.7195 L6.093,8.7195 L6.093,9.6525 L7.527,9.6525 L7.527,13.899 C7.209,14.21 6.695,14.7225 5.985,15.4365 L6.4785,16.4865 C6.92646355,15.8952296 7.40932229,15.3312265 7.9245,14.7975 C8.53386728,15.7819829 9.63726608,16.3492638 10.7925,16.272 C13.0255,16.322 15.311,16.339 17.649,16.323 C17.786,15.936 17.8985,15.604 17.9865,15.327 C15.5685,15.394 13.2185,15.411 10.9365,15.378 C9.94020569,15.4275152 8.99363235,14.9399212 8.4555,14.1 Z M14.541,11.7945 L12.7335,10.65 L12.24,11.343 C14.04,12.536 15.5985,13.6325 16.9155,14.6325 L17.5155,13.7505 C16.9385,13.3535 16.216,12.874 15.348,12.312 C16.087,11.993 16.846,11.6695 17.625,11.3415 L17.01,10.4715 C16.17,10.9505 15.347,11.3915 14.541,11.7945 Z M15.6255,7.0815 L11.3835,7.0815 L11.3835,5.6445 L15.6255,5.6445 L15.6255,7.0815 Z M11.3835,9.3495 L11.3835,7.9125 L15.6255,7.9125 L15.6255,9.3495 L11.3835,9.3495 Z M6.72,5.028 C7.14,5.607 7.674,6.431 8.322,7.5 L9.177,6.87 C8.459,5.801 7.897,5.006 7.491,4.485 L6.72,5.028 Z" id="Shape"></path>
            </g>
        </g>
    </g>
</svg>