<?xml version="1.0" encoding="UTF-8" standalone="no"?>
<svg width="20px" height="20px" viewBox="0 0 20 20" version="1.1" xmlns="http://www.w3.org/2000/svg" xmlns:xlink="http://www.w3.org/1999/xlink">
    <!-- Generator: Sketch 48.2 (47327) - http://www.bohemiancoding.com/sketch -->
    <title>联系客服icon@1x</title>
    <desc>Created with Sketch.</desc>
    <defs>
        <linearGradient x1="0%" y1="0%" x2="100%" y2="100%" id="linearGradient-1">
            <stop stop-color="#FD4A70" offset="0%"></stop>
            <stop stop-color="#F76B1C" offset="100%"></stop>
        </linearGradient>
    </defs>
    <g id="新-售后申请" stroke="none" stroke-width="1" fill="none" fill-rule="evenodd" transform="translate(-12.000000, -255.000000)">
        <g id="Group" transform="translate(0.000000, 240.000000)">
            <g id="联系客服icon" transform="translate(10.000000, 13.000000)">
                <rect id="Rectangle-2" x="0" y="0" width="24" height="24"></rect>
                <path d="M20.75,10.0821918 C20,5.42465753 16.375,2 12,2 C7.625,2 4,5.56164384 3.25,10.0821918 C2.5,10.7671233 2,12 2,13.2328767 C2,14.8767123 2.875,16.7945205 4.25,16.7945205 C5.5,16.7945205 5.5,15.2876712 5.5,13.2328767 C5.5,11.3150685 5.5,9.80821918 4.625,9.67123288 C5.375,5.97260274 8.375,3.23287671 12,3.23287671 C15.625,3.23287671 18.625,5.97260274 19.375,9.53424658 C18.5,9.80821918 18.5,11.1780822 18.5,13.0958904 C18.5,14.4657534 18.5,15.4246575 18.75,16.109589 C17.625,18.0273973 16,19.3972603 14,19.9452055 C13.625,19.3972603 12.875,18.9863014 12,18.9863014 C10.75,18.9863014 9.75,19.6712329 9.75,20.4931507 C9.75,21.3150685 10.75,22 12,22 C13.25,22 14.25,21.3150685 14.25,20.4931507 C14.25,20.4931507 14.25,20.4931507 14.25,20.4931507 C16.25,19.9452055 18,18.4383562 19.125,16.5205479 C19.25,16.6575342 19.5,16.6575342 19.75,16.6575342 C21.125,16.6575342 22,14.739726 22,13.0958904 C22,12 21.5,10.7671233 20.75,10.0821918 Z" id="Shape" fill="url(#linearGradient-1)" fill-rule="nonzero"></path>
            </g>
        </g>
    </g>
</svg>