<?xml version="1.0" encoding="UTF-8" standalone="no"?>
<svg width="20px" height="24px" viewBox="0 0 20 24" version="1.1" xmlns="http://www.w3.org/2000/svg" xmlns:xlink="http://www.w3.org/1999/xlink">
    <!-- Generator: Sketch 48.2 (47327) - http://www.bohemiancoding.com/sketch -->
    <title>订单 icon@1x</title>
    <desc>Created with Sketch.</desc>
    <defs></defs>
    <g id="新-全部订单-订单详情-待发货-退款中" stroke="none" stroke-width="1" fill="none" fill-rule="evenodd" transform="translate(-10.000000, -100.000000)">
        <g id="Group-9" transform="translate(0.000000, 80.000000)" fill="#FFFFFF" fill-rule="nonzero">
            <g id="订单-icon" transform="translate(10.000000, 20.000000)">
                <path d="M17.3349017,0.751594101 L16.0037964,0.751594101 C15.6357116,0.751594101 15.2107668,1.00650321 15.2107668,1.42077408 C15.2107668,1.83504494 15.6357116,2.24929093 16.0037964,2.24929093 L17.3349017,2.24929093 C18.1278658,2.24929093 18.6659416,2.85483082 18.6659416,3.74698776 L18.6659416,20.9860067 C18.6659416,21.8781636 18.1278658,22.4837035 17.3349017,22.4837035 L3.00492757,22.4837035 C2.21205072,22.4837035 1.33412384,21.8781636 1.33412384,20.9860067 L1.33412382,3.74696286 C1.33412382,2.85480591 1.87213414,2.24926603 2.66516371,2.24926603 L4.3360329,2.24926603 C4.70427041,2.24926603 4.84578776,1.83499514 4.84578776,1.42074918 C4.84578776,1.00650321 4.70424859,0.751569201 4.3360329,0.751569201 L2.66516371,0.751569201 C0.796048038,0.751569201 0.00304027719,2.05804686 0.00304027719,3.77872065 L0.00304027719,20.82662 C0.00304027719,22.6747733 0.994229062,23.9812758 2.80676834,23.9812758 L17.1931662,23.9812758 C19.0057709,23.9812758 19.9969597,22.8977751 19.9969597,20.82662 L19.9969597,3.77874555 C19.9969597,2.05807173 19.0624783,0.751594101 17.3349017,0.751594101 Z M4.33603292,7.50700912 C4.33603292,7.92135473 4.6475413,8.27181116 5.01564787,8.27181116 L15.0126076,8.27181116 C15.3807578,8.27181116 15.6923535,7.92132981 15.6923535,7.50700912 C15.6923535,7.09273823 15.3807578,6.74220708 15.0126076,6.74220708 L5.01564787,6.74220708 C4.6475413,6.74218218 4.33603292,7.09273823 4.33603292,7.50700912 Z M14.9843521,10.8847166 L5.01564787,10.8847166 C4.64756309,10.8847166 4.33603292,11.2352727 4.33603292,11.6496183 C4.33603292,12.0637895 4.6475413,12.4142709 5.01564787,12.4142709 L15.0126076,12.4142709 C15.3807578,12.4142709 15.6923535,12.0637895 15.6923535,11.6496183 C15.664098,11.2034153 15.3524369,10.8847166 14.9843521,10.8847166 Z M14.9843521,15.3777075 L5.01564787,15.3777075 C4.64756309,15.3777075 4.33603292,15.7282636 4.33603292,16.1424348 C4.33603292,16.5567057 4.6475413,16.9071621 5.01564787,16.9071621 L15.0126076,16.9071621 C15.3807578,16.9071621 15.6923535,16.5566808 15.6923535,16.1424348 C15.664098,15.6964062 15.3524369,15.3777075 14.9843521,15.3777075 Z M7.70609224,2.6316795 L12.3506151,2.6316795 C12.8886909,2.6316795 13.3418039,2.02628906 13.3418039,1.32520184 C13.3418039,0.624264073 12.8886909,0.0187241866 12.3222287,0.0187241866 L7.70609224,0.0187241866 C7.13969552,0.0187241866 6.68664797,0.624189347 6.68664797,1.32520184 C6.686648,2.02628906 7.13969554,2.6316795 7.70609224,2.6316795 Z" id="Shape"></path>
            </g>
        </g>
    </g>
</svg>