<?xml version="1.0" encoding="UTF-8" standalone="no"?>
<svg width="20px" height="20px" viewBox="0 0 20 20" version="1.1" xmlns="http://www.w3.org/2000/svg" xmlns:xlink="http://www.w3.org/1999/xlink">
    <!-- Generator: Sketch 48.2 (47327) - http://www.bohemiancoding.com/sketch -->
    <title>评价-差评@1x</title>
    <desc>Created with Sketch.</desc>
    <defs></defs>
    <g id="新-评价" stroke="none" stroke-width="1" fill="none" fill-rule="evenodd" transform="translate(-158.000000, -90.000000)">
        <g id="Group-4" transform="translate(0.000000, 80.000000)" fill="#999999" fill-rule="nonzero">
            <g id="Group-5">
                <g id="Group-6" transform="translate(156.000000, 10.000000)">
                    <g id="评价-差评" transform="translate(2.000000, 0.000000)">
                        <path d="M10.0006382,19.9809722 C8.65362144,19.9809722 7.3466194,19.7170189 6.11592856,19.1964103 C4.92750022,18.6937279 3.86028173,17.9741553 2.94390959,17.0577554 C2.0275652,16.1413832 1.3080481,15.074137 0.805393442,13.8857086 C0.284840352,12.6550455 0.0209147425,11.3481545 0.0209147425,10.0012764 C0.0209147425,8.65412089 0.284840352,7.34700789 0.805393442,6.11623377 C1.3080481,4.92772217 2.0275652,3.86042043 2.94390959,2.94404829 C3.86025398,2.02767615 4.92747247,1.3081313 6.11592856,0.805448889 C7.34661943,0.284895799 8.65362144,0.020942439 10.0006382,0.020942439 C11.347655,0.020942439 12.6546571,0.284895799 13.8853202,0.805448889 C15.0737763,1.3081313 16.1409948,2.02767615 17.0573669,2.94404829 C17.9737113,3.86044818 18.6932284,4.92772217 19.1958831,6.11623377 C19.7164362,7.34700789 19.9803618,8.65414864 19.9803618,10.0012764 C19.9803618,11.3481545 19.7164362,12.6550733 19.1958831,13.8857086 C18.6932007,15.0741092 17.9736836,16.1413555 17.0573669,17.0577554 C16.1409948,17.9741553 15.0737763,18.6937279 13.8853479,19.1964103 C12.6546293,19.7170189 11.3476273,19.9809722 10.0006382,19.9809722 Z M10.0006382,1.06021721 C5.07088192,1.06021721 1.06024496,5.07115943 1.06024496,10.0012487 C1.06024496,14.9309773 5.07088192,18.9416698 10.0006382,18.9416698 C14.9303946,18.9416698 18.9410593,14.931005 18.9410593,10.0012487 C18.9410315,5.07115943 14.9303946,1.06021721 10.0006382,1.06021721 Z M6.84726694,14.9702428 C6.70541144,14.9702428 6.56355593,14.9161313 6.45530507,14.8078805 C6.23883111,14.5914065 6.23883111,14.2404584 6.45530507,14.0239567 C7.11812992,13.3611041 8.15596165,12.600268 10.3159559,12.600268 C12.330182,12.600268 13.527185,13.3744794 14.1766068,14.0239845 C14.3930808,14.2404585 14.3930808,14.5914065 14.1765791,14.8078805 C13.9601328,15.0243821 13.6091293,15.0243544 13.3926831,14.8078527 C12.8913882,14.30653 11.9506242,13.7088888 10.3159559,13.7088888 C8.57317558,13.7088888 7.78264748,14.264434 7.23922878,14.8078805 C7.13100569,14.9161313 6.98915019,14.9702428 6.84726694,14.9702428 Z M4.42517854,8.2854964 C4.17626542,8.2854964 3.94996813,8.11666837 3.88753173,7.86417556 C3.81402328,7.56700604 3.99533859,7.26647881 4.2925081,7.19297035 L7.5191381,6.39478339 C7.81633537,6.32133043 8.11683485,6.50259024 8.19034331,6.79975976 C8.26385176,7.09692927 8.08253645,7.3974565 7.78536694,7.47096496 L4.55873694,8.26915192 C4.51400472,8.28022398 4.46924477,8.2854964 4.42517854,8.2854964 Z M16.213532,8.28366493 C16.1697988,8.28366493 16.125344,8.27844802 16.0809725,8.26754247 L12.8414113,7.47243569 C12.544103,7.39945447 12.3622327,7.09928799 12.4352139,6.80197973 C12.5081396,6.50467146 12.8082506,6.32263466 13.1056699,6.39578238 L16.3452312,7.19088916 C16.6425394,7.26387038 16.8244097,7.56403686 16.7514285,7.86134512 C16.6893529,8.1142819 16.4628336,8.28366493 16.213532,8.28366493 Z" id="Shape"></path>
                    </g>
                </g>
            </g>
        </g>
    </g>
</svg>