<?xml version="1.0" encoding="UTF-8" standalone="no"?>
<svg width="20px" height="20px" viewBox="0 0 20 20" version="1.1" xmlns="http://www.w3.org/2000/svg" xmlns:xlink="http://www.w3.org/1999/xlink">
    <!-- Generator: Sketch 48.2 (47327) - http://www.bohemiancoding.com/sketch -->
    <title>评价-好评@1x</title>
    <desc>Created with Sketch.</desc>
    <defs>
        <linearGradient x1="0%" y1="0%" x2="100%" y2="100%" id="linearGradient-1">
            <stop stop-color="#FD4A70" offset="0%"></stop>
            <stop stop-color="#F76B1C" offset="100%"></stop>
        </linearGradient>
    </defs>
    <g id="新-评价" stroke="none" stroke-width="1" fill="none" fill-rule="evenodd" transform="translate(-346.000000, -90.000000)">
        <g id="Group-4" transform="translate(0.000000, 80.000000)" fill="url(#linearGradient-1)" fill-rule="nonzero">
            <g id="Group-5">
                <g id="Group-6" transform="translate(156.000000, 10.000000)">
                    <g id="评价-好评" transform="translate(190.000000, 0.000000)">
                        <path d="M10.0004692,19.9982363 C8.65102636,19.9982363 7.341631,19.7338014 6.10865981,19.2122734 C4.9180821,18.7087129 3.84897164,17.9879134 2.93099833,17.0699401 C2.01305261,16.1519667 1.29228073,15.0829115 0.788720216,13.8924166 C0.267247358,12.6595834 0.00284013477,11.3503812 0.00284013477,10.0012144 C0.00284013477,8.65174396 0.267247358,7.3423762 0.788720216,6.10943261 C1.29228073,4.9188273 2.01305261,3.84968925 2.93102593,2.93174353 C3.84897164,2.01379782 4.9181097,1.29299833 6.10871501,0.789465418 C7.3416586,0.267992561 8.65105396,0.00358533693 10.0005244,0.00358533693 C11.3499396,0.00358533693 12.6592246,0.267992561 13.8920578,0.789465418 C15.0825527,1.29302593 16.1515803,2.01379782 17.0694432,2.93177113 C17.9873061,3.84974445 18.7079676,4.91885491 19.2114453,6.10946022 C19.732863,7.3423762 19.997215,8.65177156 19.997215,10.001242 C19.997215,11.3504364 19.732863,12.659611 19.2114453,13.8924166 C18.70794,15.0829115 17.9872785,16.1519943 17.0694432,17.0699401 C16.1515527,17.9879134 15.0825251,18.7087128 13.8920578,19.212301 C12.6591418,19.7338014 11.3498292,19.9982363 10.0004692,19.9982363 Z M10.0004692,1.1797007 C5.13625946,1.1797007 1.1789555,5.13700469 1.1789555,10.0012144 C1.1789555,14.8650929 5.13625949,18.8221209 10.0004692,18.8221209 C14.8641545,18.8221209 18.8210445,14.8650929 18.8210445,10.0012144 C18.8210445,5.13700469 14.8641545,1.1797007 10.0004692,1.1797007 Z M5.60959809,5.61037089 C6.30180404,5.61037089 6.8641248,6.17147725 6.8641248,6.8648976 C6.8641248,7.55710356 6.30177644,8.11942431 5.60959809,8.11942431 C4.91617771,8.11942431 4.35507137,7.55707596 4.35507137,6.8648976 C4.35507137,6.17147725 4.91617774,5.61037089 5.60959809,5.61037089 Z M14.3910091,5.61037089 C15.0838223,5.61037089 15.6455358,6.17147725 15.6455358,6.8648976 C15.6455358,7.55710356 15.0837947,8.11942431 14.3910091,8.11942431 C13.6981684,8.11942431 13.137062,7.55707596 13.137062,6.8648976 C13.137062,6.17147725 13.6981684,5.61037089 14.3910091,5.61037089 Z M9.99983439,16.9011113 C7.42724596,16.9011113 5.18168895,15.1596393 4.53908003,12.6662074 C4.45260949,12.330758 4.65450288,11.9887122 4.98995229,11.9022416 C5.3254569,11.8158263 5.66747509,12.0176645 5.75391806,12.3531139 C6.25366978,14.2922842 7.99966827,15.6466122 9.99983439,15.6466122 C12.0000005,15.6466122 13.7463854,14.2922014 14.2466891,12.3529483 C14.3332425,12.0175541 14.6752331,11.8157158 15.0107929,11.9022692 C15.3462147,11.9888225 15.5480253,12.3308959 15.461472,12.6663729 C14.8182006,15.159722 12.5722573,16.9011113 9.99983439,16.9011113 Z" id="Shape"></path>
                    </g>
                </g>
            </g>
        </g>
    </g>
</svg>