<?xml version="1.0" encoding="UTF-8" standalone="no"?>
<svg width="20px" height="20px" viewBox="0 0 20 20" version="1.1" xmlns="http://www.w3.org/2000/svg" xmlns:xlink="http://www.w3.org/1999/xlink">
    <!-- Generator: Sketch 48.2 (47327) - http://www.bohemiancoding.com/sketch -->
    <title>评价-中评@1x</title>
    <desc>Created with Sketch.</desc>
    <defs></defs>
    <g id="新-评价" stroke="none" stroke-width="1" fill="none" fill-rule="evenodd" transform="translate(-252.000000, -90.000000)">
        <g id="Group-4" transform="translate(0.000000, 80.000000)" fill="#999999" fill-rule="nonzero">
            <g id="Group-5">
                <g id="Group-6" transform="translate(156.000000, 10.000000)">
                    <g id="评价-中评" transform="translate(96.000000, 0.000000)">
                        <path d="M10.0007472,19.9886728 C8.65286005,19.9886728 7.34493486,19.7244919 6.11328065,19.2034915 C4.92396843,18.7003689 3.85592595,17.980278 2.93882024,17.0631723 C2.02171454,16.1460666 1.3016237,15.0780518 0.79852873,13.8887119 C0.277500676,12.6570577 0.0133197568,11.3491325 0.0133197568,10.0012454 C0.0133197568,8.65308143 0.277500649,7.34496254 0.798501054,6.11316995 C1.30159603,4.92374703 2.02171454,3.85564919 2.93882024,2.93854349 C3.85589827,2.02146546 4.92394076,1.30137462 6.11330832,0.798307324 C7.34490719,0.277362297 8.65286005,0.0132090541 10.0007472,0.0132090541 C11.348579,0.0132090541 12.6564489,0.277362297 13.8880201,0.798335 C15.0773323,1.30142997 16.1453194,2.02149314 17.0623974,2.93857116 C17.9794755,3.85567686 18.6995663,4.9237747 19.2026613,6.11319762 C19.7236616,7.34496254 19.9878426,8.65308143 19.9878426,10.0012454 C19.9878426,11.3491325 19.7236617,12.6570577 19.2026613,13.8887119 C18.6995386,15.0780518 17.9794755,16.1460666 17.0623974,17.0631723 C16.1452917,17.980278 15.0773323,18.7003689 13.8880201,19.2034915 C12.6564489,19.7244919 11.348579,19.9886728 10.0007472,19.9886728 Z M10.0007472,1.11883354 C5.10332697,1.11883354 1.11894424,5.10346532 1.11894424,10.0012454 C1.11894424,14.8986933 5.10329927,18.8830483 10.0007472,18.8830483 C14.8980014,18.8830483 18.8822181,14.8986933 18.8822181,10.0012454 C18.8822181,5.10346532 14.8980291,1.11883354 10.0007472,1.11883354 Z M6.22691219,6.22677384 C6.92162549,6.22677384 7.48485719,6.79003322 7.48485719,7.48535535 C7.48485719,8.17943214 6.92159781,8.74330035 6.22691219,8.74330035 C5.53222657,8.74330035 4.96896719,8.17943214 4.96896719,7.48535535 C4.96896719,6.79003319 5.53222657,6.22677384 6.22691219,6.22677384 Z M13.7742778,6.22677384 C14.4689911,6.22677384 15.0322228,6.79003322 15.0322228,7.48535535 C15.0322228,8.17943214 14.4689634,8.74330035 13.7742778,8.74330035 C13.0795922,8.74330035 12.5163328,8.17943214 12.5163328,7.48535535 C12.5163328,6.79003319 13.0795922,6.22677384 13.7742778,6.22677384 Z M6.85587086,13.1461217 L13.1452915,13.1461217 C13.4929664,13.1461217 13.7742778,13.4274331 13.7742778,13.7751081 C13.7742778,14.1215376 13.4929664,14.4040944 13.1452915,14.4040944 L6.85587086,14.4040944 C6.50822362,14.4040944 6.22688451,14.1215376 6.22688451,13.775108 C6.22691219,13.4274331 6.50822362,13.1461217 6.85587086,13.1461217 Z" id="Shape"></path>
                    </g>
                </g>
            </g>
        </g>
    </g>
</svg>