<?xml version="1.0" encoding="UTF-8" standalone="no"?>
<svg width="20px" height="20px" viewBox="0 0 20 20" version="1.1" xmlns="http://www.w3.org/2000/svg" xmlns:xlink="http://www.w3.org/1999/xlink">
    <!-- Generator: Sketch 48.2 (47327) - http://www.bohemiancoding.com/sketch -->
    <title>进度01@1x</title>
    <desc>Created with Sketch.</desc>
    <defs>
        <linearGradient x1="0%" y1="0%" x2="100%" y2="100%" id="linearGradient-1">
            <stop stop-color="#FD4A70" offset="0%"></stop>
            <stop stop-color="#F76B1C" offset="100%"></stop>
        </linearGradient>
    </defs>
    <g id="新-退款详情-00" stroke="none" stroke-width="1" fill="none" fill-rule="evenodd" transform="translate(-102.000000, -197.000000)">
        <g id="Group-5" transform="translate(0.000000, 188.000000)" fill="url(#linearGradient-1)" fill-rule="nonzero">
            <g id="Group-8" transform="translate(88.000000, 9.000000)">
                <g id="进度01" transform="translate(14.000000, 0.000000)">
                    <path d="M8.85744645,14.1547419 C8.63250349,14.1551258 8.41669258,14.0657989 8.25782367,13.9065502 L4.96172336,10.611232 C4.63187493,10.2798449 4.63249836,9.74399876 4.96311701,9.41338011 C5.29373566,9.08276145 5.82958182,9.08213801 6.1609689,9.41198644 L8.90463415,12.1561731 L14.342952,6.71603033 C14.6743394,6.38618389 15.2101839,6.38680827 15.5408018,6.71742609 C15.8714196,7.04804392 15.872044,7.58388846 15.5421975,7.91527587 L9.57204037,13.885433 C9.36886988,14.0494835 9.11835476,14.1438951 8.85744645,14.1547419 Z M14.883916,17.2271568 L14.883916,17.2279389 C15.0719165,17.0999293 15.3139824,17.0821125 15.5186991,17.181217 C15.7234159,17.2803215 15.8595882,17.4812454 15.8757916,17.7081112 C15.891995,17.934977 15.7857604,18.1532143 15.5972064,18.2804073 C13.9456802,19.4006415 11.9952054,19.9978387 9.99959748,19.9942856 C4.4898463,19.9942856 0.00571079353,15.5111929 0.00571079353,10.0009203 C0.00266619348,8.03145912 0.584169317,6.10539448 1.67657269,4.46666282 C1.80011544,4.272459 2.01899751,4.16022047 2.24879855,4.17323634 C2.4785996,4.18625221 2.68340812,4.32248848 2.78423178,4.52940035 C2.88505545,4.73631222 2.86613833,4.98156513 2.73477654,5.17056781 C1.78157159,6.60065673 1.27428152,8.28149173 1.27717178,10.0001382 C1.27717179,14.8096342 5.18984073,18.7223032 9.99959748,18.7223032 C11.7408826,18.7255582 13.4428259,18.2045737 14.883916,17.2271568 Z M9.99959748,0.00573009865 C15.50987,0.00573009865 19.9929627,4.4898656 19.9929627,10.0001382 C19.9985303,12.1169534 19.3265032,14.1799925 18.0752127,15.887391 C17.9425207,16.0740912 17.7196381,16.1749564 17.4918008,16.1514132 C17.2639635,16.12787 17.0664157,15.9835602 16.9747046,15.7736716 C16.8829936,15.563783 16.9113062,15.3207834 17.0488149,15.1376018 C18.140008,13.6478212 18.7261227,11.8480947 18.7215018,10.0014417 C18.7215018,5.19168495 14.8088328,1.27901602 9.99959748,1.27901602 C8.15232107,1.27400543 6.3518958,1.86013941 4.86161244,2.95170285 C4.57774857,3.15853543 4.1799605,3.09608924 3.97312791,2.81222538 C3.76629533,2.52836151 3.82874152,2.13057344 4.11260539,1.92374085 C5.81995915,0.672525758 7.88286227,0.000421852578 9.99959748,0.00573009865 Z" id="Combined-Shape"></path>
                </g>
            </g>
        </g>
    </g>
</svg>