<?xml version="1.0" encoding="UTF-8" standalone="no"?>
<svg width="20px" height="24px" viewBox="0 0 20 24" version="1.1" xmlns="http://www.w3.org/2000/svg" xmlns:xlink="http://www.w3.org/1999/xlink">
    <!-- Generator: Sketch 48.2 (47327) - http://www.bohemiancoding.com/sketch -->
    <title>退款-显示@1x</title>
    <desc>Created with Sketch.</desc>
    <defs>
        <linearGradient x1="0%" y1="0%" x2="100%" y2="100%" id="linearGradient-1">
            <stop stop-color="#FD4A70" offset="0%"></stop>
            <stop stop-color="#F76B1C" offset="100%"></stop>
        </linearGradient>
    </defs>
    <g id="新-退货/售后--联系客服" stroke="none" stroke-width="1" fill="none" fill-rule="evenodd" transform="translate(-12.000000, -453.000000)">
        <g id="Group-4-Copy" transform="translate(0.000000, 290.000000)">
            <g id="Group" transform="translate(0.000000, 150.000000)">
                <g id="退款-显示" transform="translate(10.000000, 13.000000)">
                    <rect id="Rectangle-2" x="0" y="0" width="24" height="24"></rect>
                    <g id="退款" transform="translate(2.000000, 0.000000)" fill="url(#linearGradient-1)" fill-rule="nonzero">
                        <path d="M13.4089121,22.8468571 L18.072822,22.8468571 C18.5284888,22.8468571 18.8996906,22.4582857 18.8996906,21.9805714 L18.8996906,4.47542857 C18.8996906,3.99771429 18.5284888,3.60914286 18.072822,3.60914286 C15.8599337,3.68314379 14.4127222,3.70251473 13.7311874,3.66725567 L13.7311874,4.49142857 C13.7311874,5.31542857 13.0933047,5.98285714 12.3065086,5.98285714 L7.54016934,5.98285714 C7.15888036,5.97953815 6.79450868,5.82050052 6.52729466,5.54076684 C6.26008064,5.26103316 6.1119382,4.88354406 6.11549063,4.49142857 L6.11549063,3.60914286 L1.92702412,3.60914286 C1.47139364,3.60914286 1.1002215,3.99771429 1.1002215,4.47542857 L1.1002215,21.9805714 C1.1002215,22.4582857 1.47139364,22.8468571 1.92702412,22.8468571 L13.4089121,22.8468571 Z M13.4089121,24 L1.2624704,24 C0.559181964,23.9924619 -0.00551148888,23.4009945 4.05924832e-05,22.6777143 L4.05924832e-05,3.77828571 C4.05924832e-05,3.05028571 0.566800454,2.45714286 1.2624704,2.45714286 L6.11549063,2.45714286 L6.11549063,1.49257143 C6.11549063,0.667428571 6.752262,0 7.54016934,0 L12.3065086,0 C13.094416,0 13.7322987,0.667428571 13.7322987,1.49257143 L13.7311874,1.49257143 L13.7311874,2.45714286 L18.7374288,2.45714286 C19.4331543,2.45714286 19.9999594,3.05028571 19.9999594,3.77828571 L19.9999594,22.6777143 C20.0055119,23.4009945 19.4407734,23.9924619 18.7374288,24 L13.4089121,24 Z M12.2087148,3.81371429 L12.2087148,2.02285714 C12.2087148,1.69485714 12.1198113,1.59542857 11.8064264,1.59542857 L8.196944,1.59542857 C7.88355914,1.59542857 7.6379632,1.69485714 7.6379632,2.02285714 L7.6379632,3.81371429 C7.6379632,4.14171429 7.88355914,4.38742857 8.196944,4.38742857 L11.8064264,4.38742857 C12.1198113,4.38742857 12.2920618,4.13028571 12.2920618,3.80228571 L12.2087148,3.81371429 Z M13.1610936,13.2068571 C13.5122625,13.2068571 13.8011989,13.5074286 13.8011989,13.8765714 C13.8030524,14.2425937 13.5169931,14.5413743 13.1610936,14.5451429 L10.6951326,14.5451429 L10.6951326,17.5702857 C10.6969962,17.9360584 10.4117809,18.2349858 10.0561386,18.24 C9.70049632,18.2349858 9.41528099,17.9360584 9.41714465,17.5702857 L9.41714465,14.5451429 L6.95007231,14.5451429 C6.59460822,14.5407508 6.30922027,14.2421529 6.31107835,13.8765714 C6.31107835,13.5085714 6.59890345,13.2068571 6.95007231,13.2068571 L9.41714465,13.2068571 L9.41714465,12.0857143 L6.95007231,12.0857143 C6.59435032,12.081945 6.3086103,11.7829788 6.31107835,11.4171429 C6.31107835,11.0491429 6.59779216,10.7474286 6.95007231,10.7474286 L8.21916988,10.7474286 L6.8422768,9.30514286 C6.59444694,9.04119829 6.59444694,8.62280171 6.8422768,8.35885714 C6.96121613,8.23397258 7.12403791,8.16359329 7.29401775,8.16359329 C7.4639976,8.16359329 7.62681937,8.23397258 7.7457587,8.35885714 L10.027245,10.7474286 L10.083921,10.7474286 L12.3654072,8.35885714 C12.4843465,8.23397258 12.6471683,8.16359329 12.8171482,8.16359329 C12.987128,8.16359329 13.1499498,8.23397258 13.2688891,8.35885714 C13.5167076,8.61942857 13.5167076,9.04457143 13.2688891,9.30514286 L11.891996,10.7474286 L13.1610936,10.7474286 C13.5122625,10.7474286 13.8011989,11.0491429 13.8011989,11.4171429 C13.8030524,11.7831652 13.5169931,12.0819458 13.1610936,12.0857143 L10.6951326,12.0857143 L10.6951326,13.2068571 L13.1610936,13.2068571 Z" id="Shape"></path>
                    </g>
                </g>
            </g>
        </g>
    </g>
</svg>