<?xml version="1.0" encoding="UTF-8" standalone="no"?>
<svg width="20px" height="24px" viewBox="0 0 20 24" version="1.1" xmlns="http://www.w3.org/2000/svg" xmlns:xlink="http://www.w3.org/1999/xlink">
    <!-- Generator: Sketch 48.2 (47327) - http://www.bohemiancoding.com/sketch -->
    <title>仅退款@1x</title>
    <desc>Created with Sketch.</desc>
    <defs></defs>
    <g id="新-退款详情-00" stroke="none" stroke-width="1" fill="none" fill-rule="evenodd" transform="translate(-10.000000, -100.000000)">
        <g id="Group-9" transform="translate(0.000000, 80.000000)" fill="#FFFFFF" fill-rule="nonzero">
            <path d="M28.9000022,24.4754286 C28.9037033,24.0010261 28.5334388,23.613025 28.0722261,23.608 L23.7333461,23.608 L23.7333461,22.4571429 L28.7366692,22.4571429 C29.4333345,22.4571429 30,23.0491429 30,23.7782857 L30,36.2114286 L28.9000022,36.2114286 L28.9000022,24.4754286 Z M23.7289016,24.4914286 C23.7289016,25.3154286 23.0911251,25.9828571 22.3044601,25.9828571 L17.5389142,25.9828571 C17.1576887,25.9795382 16.7933776,25.8205005 16.5262081,25.5407668 C16.2590386,25.2610332 16.1109208,24.8835441 16.1144726,24.4914286 L16.1144726,23.6091429 L11.9267033,23.6091429 C11.4711487,23.6091429 11.1000384,23.9977143 11.1000384,24.4754286 L11.1000384,41.9805714 C11.1000384,42.4582857 11.4711487,42.8468571 11.9267033,42.8468571 L23.40668,42.8468571 L23.40668,44 L11.2622602,44 C10.5590889,43.9924619 9.99448943,43.4009945 10.0000406,42.6777143 L10.0000406,23.7782857 C10.0000406,23.0502857 10.5667061,22.4571429 11.2622602,22.4571429 L16.1144726,22.4571429 L16.1144726,21.4925714 C16.1144726,20.6674286 16.751138,20 17.5389142,20 L22.3044601,20 C23.0922362,20 23.7300127,20.6674286 23.7300127,21.4925714 L23.7289016,24.4914286 Z M22.2066825,23.8137143 L22.2066825,22.0228571 C22.2066825,21.6948571 22.1177938,21.5954286 21.8044611,21.5954286 L18.1955795,21.5954286 C17.8822468,21.5954286 17.6366918,21.6948571 17.6366918,22.0228571 L17.6366918,23.8137143 C17.6366918,24.1417143 17.8822468,24.3874286 18.1955795,24.3874286 L21.8044611,24.3874286 C22.1177938,24.3874286 22.2900156,24.1302857 22.2900156,23.8022857 L22.2066825,23.8137143 Z M23.7989015,33.8765714 C23.8007547,34.2425937 23.514743,34.5413743 23.1589028,34.5451429 L20.6933522,34.5451429 L20.6933522,37.5702857 C20.6952156,37.9360584 20.4100477,38.2349858 20.0544646,38.24 C19.6988815,38.2349858 19.4137137,37.9360584 19.415577,37.5702857 L19.415577,34.5451429 L16.9489154,34.5451429 C16.5935105,34.5407508 16.30817,34.2421529 16.3100278,33.8765714 C16.3100278,33.5085714 16.597805,33.2068571 16.9489154,33.2068571 L19.415577,33.2068571 L19.415577,32.0857143 L16.9489154,32.0857143 C16.5932526,32.081945 16.3075601,31.7829788 16.3100278,31.4171429 C16.3100278,31.0491429 16.5966939,30.7474286 16.9489154,30.7474286 L18.2178017,30.7474286 L16.8411378,29.3051429 C16.5933492,29.0411983 16.5933492,28.6228017 16.8411378,28.3588571 C16.9600573,28.2339726 17.122852,28.1635933 17.2928036,28.1635933 C17.4627551,28.1635933 17.6255498,28.2339726 17.7444693,28.3588571 L20.0255758,30.7474286 L20.0822423,30.7474286 L22.3633488,28.3588571 C22.4822684,28.2339726 22.645063,28.1635933 22.8150146,28.1635933 C22.9849661,28.1635933 23.1477608,28.2339726 23.2666803,28.3588571 C23.5144576,28.6194286 23.5144576,29.0445714 23.2666803,29.3051429 L21.8900165,30.7474286 L23.1589028,30.7474286 C23.5100132,30.7474286 23.7989015,31.0491429 23.7989015,31.4171429 C23.8007547,31.7831652 23.514743,32.0819458 23.1589028,32.0857143 L20.6933522,32.0857143 L20.6933522,33.2068571 L23.1589028,33.2068571 C23.5100132,33.2068571 23.7989015,33.5074286 23.7989015,33.8765714 Z M24.7422329,42.5314286 C24.8312582,42.4964013 24.9258053,42.4785788 25.0211212,42.4788571 L26.335563,42.488 C26.6366735,42.488 26.9188951,42.4297143 27.1844502,42.3142857 C27.4500052,42.1988571 27.6822269,42.0434286 27.8811154,41.8468571 C28.0777817,41.6514286 28.234448,41.4228571 28.34667,41.1588571 C28.4600031,40.8948571 28.5166697,40.6125714 28.5166697,40.3097143 C28.5166697,40.0251429 28.4655587,39.7588571 28.3644478,39.5097143 C28.0527063,38.7425296 27.3539953,38.2156181 26.5488959,38.1405714 C26.5412289,38.1400945 26.5335726,38.1416695 26.5266737,38.1451429 C26.5251922,38.1474286 26.0685265,38.1489524 25.1566765,38.1497143 L25.7888974,39.6365714 L22.6311261,37.4548571 L25.7888974,35.272 L25.1566765,36.816 L26.5044515,36.816 C26.5333404,36.816 26.5633403,36.8194286 26.5933402,36.8251429 L26.682229,36.8434286 C27.1130316,36.8872112 27.5326704,37.0103127 27.9211153,37.2068571 C28.305559,37.4034286 28.6411139,37.656 28.9266688,37.9668571 C29.2122238,38.2777143 29.4355567,38.6354286 29.5966675,39.0388571 C29.7594024,39.4447349 29.8421146,39.8798245 29.8400003,40.3188571 C29.8400003,40.7748571 29.7577783,41.2045714 29.5944453,41.608 C29.4341548,42.0040801 29.2052552,42.3669212 28.9188911,42.6788571 C28.6333361,42.9897143 28.2966701,43.2445714 27.9100042,43.4434286 C27.5183333,43.6423327 27.0940541,43.7644169 26.6588957,43.8034286 C26.608462,43.8143467 26.5570992,43.8200892 26.5055626,43.8205714 L25.0377878,43.8205714 C24.9406823,43.8206535 24.8443472,43.8028487 24.753344,43.768 C24.5718249,43.7029897 24.4186494,43.5737887 24.3211226,43.4034286 C24.2262029,43.2455336 24.2244901,43.0464553 24.3166782,42.8868571 C24.3623129,42.8047175 24.4230753,42.7325142 24.4955667,42.6742857 C24.5701708,42.6139237 24.6533681,42.5657398 24.7422329,42.5314286 Z" id="仅退款"></path>
        </g>
    </g>
</svg>