<?xml version="1.0" encoding="UTF-8" standalone="no"?>
<svg width="20px" height="24px" viewBox="0 0 20 24" version="1.1" xmlns="http://www.w3.org/2000/svg" xmlns:xlink="http://www.w3.org/1999/xlink">
    <!-- Generator: Sketch 48.2 (47327) - http://www.bohemiancoding.com/sketch -->
    <title>退货退款-显示@1x</title>
    <desc>Created with Sketch.</desc>
    <defs>
        <linearGradient x1="0%" y1="0%" x2="100%" y2="100%" id="linearGradient-1">
            <stop stop-color="#FD4A70" offset="0%"></stop>
            <stop stop-color="#F76B1C" offset="100%"></stop>
        </linearGradient>
    </defs>
    <g id="新-退货/售后--联系客服" stroke="none" stroke-width="1" fill="none" fill-rule="evenodd" transform="translate(-12.000000, -243.000000)">
        <g id="Group-4" transform="translate(0.000000, 80.000000)">
            <g id="Group" transform="translate(0.000000, 150.000000)">
                <g id="退货退款-显示" transform="translate(10.000000, 13.000000)">
                    <rect id="Rectangle-2" x="0" y="0" width="24" height="24"></rect>
                    <path d="M20.9000022,4.47542857 C20.9037033,4.00102613 20.5334388,3.61302502 20.0722261,3.608 L15.7333461,3.608 L15.7333461,2.45714286 L20.7366692,2.45714286 C21.4333345,2.45714286 22,3.04914286 22,3.77828571 L22,16.2114286 L20.9000022,16.2114286 L20.9000022,4.47542857 Z M15.7289016,4.49142857 C15.7289016,5.31542857 15.0911251,5.98285714 14.3044601,5.98285714 L9.53891418,5.98285714 C9.15768867,5.97953815 8.79337764,5.82050052 8.5262081,5.54076684 C8.25903857,5.26103316 8.11092078,4.88354406 8.11447262,4.49142857 L8.11447262,3.60914286 L3.92670334,3.60914286 C3.47114871,3.60914286 3.10003835,3.99771429 3.10003835,4.47542857 L3.10003835,21.9805714 C3.10003835,22.4582857 3.47114871,22.8468571 3.92670334,22.8468571 L15.40668,22.8468571 L15.40668,24 L3.26226025,24 C2.55908888,23.9924619 1.99448943,23.4009945 2.00004059,22.6777143 L2.00004059,3.77828571 C2.00004059,3.05028571 2.5667061,2.45714286 3.26226025,2.45714286 L8.11447262,2.45714286 L8.11447262,1.49257143 C8.11447262,0.667428571 8.751138,0 9.53891418,0 L14.3044601,0 C15.0922362,0 15.7300127,0.667428571 15.7300127,1.49257143 L15.7289016,4.49142857 Z M14.2066825,3.81371429 L14.2066825,2.02285714 C14.2066825,1.69485714 14.1177938,1.59542857 13.8044611,1.59542857 L10.1955795,1.59542857 C9.88224681,1.59542857 9.63669176,1.69485714 9.63669176,2.02285714 L9.63669176,3.81371429 C9.63669176,4.14171429 9.88224681,4.38742857 10.1955795,4.38742857 L13.8044611,4.38742857 C14.1177938,4.38742857 14.2900156,4.13028571 14.2900156,3.80228571 L14.2066825,3.81371429 Z M15.7989015,13.8765714 C15.8007547,14.2425937 15.514743,14.5413743 15.1589028,14.5451429 L12.6933522,14.5451429 L12.6933522,17.5702857 C12.6952156,17.9360584 12.4100477,18.2349858 12.0544646,18.24 C11.6988815,18.2349858 11.4137137,17.9360584 11.415577,17.5702857 L11.415577,14.5451429 L8.94891537,14.5451429 C8.59351046,14.5407508 8.30817001,14.2421529 8.31002778,13.8765714 C8.31002778,13.5085714 8.59780497,13.2068571 8.94891537,13.2068571 L11.415577,13.2068571 L11.415577,12.0857143 L8.94891537,12.0857143 C8.59325261,12.081945 8.30756015,11.7829788 8.31002778,11.4171429 C8.31002778,11.0491429 8.59669387,10.7474286 8.94891537,10.7474286 L10.2178017,10.7474286 L8.84113781,9.30514286 C8.5933492,9.04119829 8.5933492,8.62280171 8.84113781,8.35885714 C8.96005734,8.23397258 9.12285202,8.16359329 9.29280356,8.16359329 C9.46275511,8.16359329 9.62554979,8.23397258 9.74446931,8.35885714 L12.0255758,10.7474286 L12.0822423,10.7474286 L14.3633488,8.35885714 C14.4822684,8.23397258 14.645063,8.16359329 14.8150146,8.16359329 C14.9849661,8.16359329 15.1477608,8.23397258 15.2666803,8.35885714 C15.5144576,8.61942857 15.5144576,9.04457143 15.2666803,9.30514286 L13.8900165,10.7474286 L15.1589028,10.7474286 C15.5100132,10.7474286 15.7989015,11.0491429 15.7989015,11.4171429 C15.8007547,11.7831652 15.514743,12.0819458 15.1589028,12.0857143 L12.6933522,12.0857143 L12.6933522,13.2068571 L15.1589028,13.2068571 C15.5100132,13.2068571 15.7989015,13.5074286 15.7989015,13.8765714 Z M16.7422329,22.5314286 C16.8312582,22.4964013 16.9258053,22.4785788 17.0211212,22.4788571 L18.335563,22.488 C18.6366735,22.488 18.9188951,22.4297143 19.1844502,22.3142857 C19.4500052,22.1988571 19.6822269,22.0434286 19.8811154,21.8468571 C20.0777817,21.6514286 20.234448,21.4228571 20.34667,21.1588571 C20.4600031,20.8948571 20.5166697,20.6125714 20.5166697,20.3097143 C20.5166697,20.0251429 20.4655587,19.7588571 20.3644478,19.5097143 C20.0527063,18.7425296 19.3539953,18.2156181 18.5488959,18.1405714 C18.5412289,18.1400945 18.5335726,18.1416695 18.5266737,18.1451429 C18.5251922,18.1474286 18.0685265,18.1489524 17.1566765,18.1497143 L17.7888974,19.6365714 L14.6311261,17.4548571 L17.7888974,15.272 L17.1566765,16.816 L18.5044515,16.816 C18.5333404,16.816 18.5633403,16.8194286 18.5933402,16.8251429 L18.682229,16.8434286 C19.1130316,16.8872112 19.5326704,17.0103127 19.9211153,17.2068571 C20.305559,17.4034286 20.6411139,17.656 20.9266688,17.9668571 C21.2122238,18.2777143 21.4355567,18.6354286 21.5966675,19.0388571 C21.7594024,19.4447349 21.8421146,19.8798245 21.8400003,20.3188571 C21.8400003,20.7748571 21.7577783,21.2045714 21.5944453,21.608 C21.4341548,22.0040801 21.2052552,22.3669212 20.9188911,22.6788571 C20.6333361,22.9897143 20.2966701,23.2445714 19.9100042,23.4434286 C19.5183333,23.6423327 19.0940541,23.7644169 18.6588957,23.8034286 C18.608462,23.8143467 18.5570992,23.8200892 18.5055626,23.8205714 L17.0377878,23.8205714 C16.9406823,23.8206535 16.8443472,23.8028487 16.753344,23.768 C16.5718249,23.7029897 16.4186494,23.5737887 16.3211226,23.4034286 C16.2262029,23.2455336 16.2244901,23.0464553 16.3166782,22.8868571 C16.3623129,22.8047175 16.4230753,22.7325142 16.4955667,22.6742857 C16.5701708,22.6139237 16.6533681,22.5657398 16.7422329,22.5314286 Z" id="Shape" fill="url(#linearGradient-1)" fill-rule="nonzero"></path>
                </g>
            </g>
        </g>
    </g>
</svg>