<?xml version="1.0" encoding="UTF-8" standalone="no"?>
<svg width="97px" height="103px" viewBox="0 0 97 103" version="1.1" xmlns="http://www.w3.org/2000/svg" xmlns:xlink="http://www.w3.org/1999/xlink">
    <!-- Generator: Sketch 48.2 (47327) - http://www.bohemiancoding.com/sketch -->
    <title>下单认证icon@1x</title>
    <desc>Created with Sketch.</desc>
    <defs>
        <filter x="-12.5%" y="-9.3%" width="126.2%" height="124.2%" filterUnits="objectBoundingBox" id="filter-1">
            <feOffset dx="0" dy="3" in="SourceAlpha" result="shadowOffsetOuter1"></feOffset>
            <feGaussianBlur stdDeviation="3" in="shadowOffsetOuter1" result="shadowBlurOuter1"></feGaussianBlur>
            <feColorMatrix values="0 0 0 0 0   0 0 0 0 0   0 0 0 0 0  0 0 0 0.5 0" type="matrix" in="shadowBlurOuter1" result="shadowMatrixOuter1"></feColorMatrix>
            <feMerge>
                <feMergeNode in="shadowMatrixOuter1"></feMergeNode>
                <feMergeNode in="SourceGraphic"></feMergeNode>
            </feMerge>
        </filter>
    </defs>
    <g id="首页" stroke="none" stroke-width="1" fill="none" fill-rule="evenodd" transform="translate(-314.000000, -545.000000)">
        <g id="下单认证icon" filter="url(#filter-1)" transform="translate(320.000000, 549.000000)">
            <g id="Page-1" transform="translate(11.000000, 12.000000)">
                <path d="M39.9474223,10.5989022 C39.9631678,10.5970698 39.9776238,10.6001239 39.9934371,10.5970698 C40.0188878,10.5431143 40.0443385,10.4898375 40.0697892,10.4334388 C40.4525676,9.36376331 40.8088772,10.6236742 41.1808645,10.4414473 C41.5188496,10.568565 41.8896153,10.8333879 42.1852505,10.4317421 C42.4214329,10.1088238 42.3766397,9.74233383 42.0954604,9.43278558 C42.3693777,9.52006448 42.5595453,8.96992238 42.8492081,9.20495101 C43.0889875,9.14196903 43.24047,8.97772725 43.3507563,8.76577391 C43.4149599,8.97351941 43.3192653,9.18628717 43.3701667,9.39634019 C43.404101,9.53513128 43.4307054,9.67561909 43.4889366,9.80714825 C43.9299461,10.8739733 44.8555368,11.7492055 44.6325888,13.0808534 C44.4836174,13.9731207 44.0534668,14.3214897 43.379804,13.8726074 C43.0866121,13.6774855 42.7934201,13.5066604 42.449259,13.4243359 C39.9922155,12.8360517 39.9631678,12.8197633 39.9474223,10.5989022 M32.4974286,10.1088238 C32.4707563,10.3057103 32.507066,10.0598227 32.4804615,10.2566414 C32.2635538,11.8783593 32.0539758,12.15153 30.403821,11.914126 C28.5306503,11.6438057 26.6720713,11.5572734 24.7942176,11.6650486 C23.6517192,11.7305417 22.5261879,11.5002638 21.3921731,11.4536382 C20.3380394,11.4099987 20.1563555,10.9041748 20.3089239,10.0051885 C20.5440882,8.63125854 20.4906078,7.24524793 20.3719737,5.86045896 C20.3670872,5.84396691 20.3694626,5.83005387 20.3647118,5.81376543 C20.5233883,5.93253531 20.6869514,6.04404327 20.8493608,6.15908038 C23.4239525,7.98182481 23.4360331,7.99526278 25.5623533,5.73863499 C26.163329,5.1001281 26.6649451,4.93900827 27.2294753,5.73687041 C27.3494668,5.90708462 27.5166269,6.02707614 27.7226078,6.08150668 C27.6971572,6.191793 27.6729281,6.30194358 27.6462558,6.41107614 C28.315032,7.96553637 28.9487203,8.37315461 30.1590872,8.02492131 C32.8924233,7.237986 32.8924233,7.237986 32.4974286,10.1088238 M21.2969323,2.42332471 C21.2913323,2.41324471 21.2857323,2.40460471 21.2769323,2.39452471 C21.2913323,2.38764471 21.3086123,2.37772471 21.3257323,2.37052471 C21.3142123,2.38892471 21.3086123,2.40460471 21.2969323,2.42332471 M33.6799016,3.58442078 C33.5915368,3.54695737 33.4908878,3.51539852 33.3928178,3.48329671 C33.4751423,3.42628717 33.5830532,3.38576967 33.7501455,3.38149396 C33.7114604,3.45241654 33.6944933,3.51913128 33.6799016,3.58442078 M53.0966736,24.2969383 C52.0062982,24.454529 50.7497807,26.1367856 51.0224764,27.0733031 C51.0503024,27.1689977 51.055189,27.2956403 51.1290299,27.3459987 C52.4084191,28.2085396 51.6355326,29.3952882 51.7783958,30.738881 C51.3979928,30.2325141 51.4125845,29.932671 51.3846906,29.643687 C51.3180437,28.9597082 51.3398973,27.9056424 50.584996,27.9498927 C49.7866587,27.9971292 49.5527839,29.0082341 49.5563809,29.8466138 C49.5563809,29.9937527 49.6121688,30.1325438 49.6497001,30.2742532 C49.5709726,29.9386435 49.185751,29.7158312 48.565365,29.6352034 C48.5460225,29.6333709 48.5726948,29.4631567 48.5024509,29.4044505 C47.6663788,28.7004505 47.6397743,28.2612734 48.6113799,27.7003402 C49.1674944,27.3797972 49.3310575,26.975776 49.185751,26.4965565 C48.6441603,24.7095788 48.9967372,22.9933879 49.4594647,21.2698672 C49.6522112,20.5489001 49.6072823,19.7929807 49.7430193,19.059933 C49.8181497,18.6492607 49.7006015,18.2505332 49.2668539,18.0713603 C48.8949345,17.9167559 48.7398549,18.191284 48.6113799,18.4765353 C48.5967881,18.5086371 48.5701837,18.5093158 48.5144636,18.403916 C48.0225527,17.4570825 47.4337934,17.8811249 47.3029429,18.5050401 C47.0848814,19.5506223 46.2403936,19.9843699 45.6272696,20.6295279 C45.2735389,21.002126 44.9815007,21.361354 44.8264212,21.8405735 C44.6641476,22.2935958 44.7343915,22.8145544 44.244856,23.4931037 C44.6507775,22.2021769 44.4350914,21.3274197 43.5179164,20.733706 C42.5765124,20.1237039 41.8750235,20.7645862 41.0875453,21.2911101 C41.2304085,20.9597082 41.388067,20.708934 41.4557998,20.4242257 C41.92226,19.8062151 40.5010935,18.7582575 41.9417383,18.320302 C42.1246439,18.2651249 42.093085,17.7489849 41.9210384,17.4969892 C41.6872314,17.1541854 41.5987987,16.7931249 41.6096577,16.4229701 C41.8349811,17.2025756 42.2069684,17.5079839 43.0769069,17.4376042 C44.6325888,17.3128619 46.1967542,17.5405608 47.7536577,17.0135618 C48.7059207,16.6913222 49.091278,16.3980624 48.6187097,15.5615152 C49.6352441,15.2392755 49.5867181,15.0884038 48.8149854,13.4933582 C47.8165718,12.2957506 47.850506,10.7127856 47.2726057,9.35765514 C46.3191211,7.8534176 45.0106842,6.71512704 43.4355241,5.94461591 C41.2207712,4.86082375 39.2047372,3.44515461 37.0566312,2.27598388 C36.1369451,1.7755894 35.4585315,0.705235207 34.2517616,0.763941463 C32.9239822,0.8280772 31.4941964,1.51395631 30.4365336,0.0660496288 C30.3795241,-0.0115240721 30.1469387,-0.0138994698 30.0173099,0.0236318134 C27.837645,0.662138706 25.4824042,0.538618028 23.3742727,1.2206965 C20.929242,2.01245048 18.0554859,1.6896 16.0587945,3.77228081 C15.9812208,3.85290859 15.7776153,3.81286617 15.6335304,3.82677922 C14.4302897,3.94066257 13.3472441,4.39809629 12.3053268,4.97653955 C11.4353883,5.27889374 10.8077404,5.91794358 10.1620394,6.52801357 C7.41655483,9.11719703 5.00192916,11.987424 2.85015822,15.0858927 C1.26780403,17.3643063 0.131413786,19.8111016 0.0223490986,22.6249977 C-0.224895864,29.1129552 1.5755877,34.8965056 5.74698961,39.9753773 C9.02191644,43.9627877 13.1388199,46.4160984 18.0990575,47.5514706 C20.8093183,48.171653 20.8178019,48.1317463 19.7964488,50.7293455 C19.7601391,50.8202893 19.7370638,50.9183593 19.7092378,51.0129001 C20.1296831,51.972425 20.559698,52.0802002 21.3884403,51.4574388 C21.787032,51.1594961 21.933628,50.5537018 22.4316471,50.4301811 C25.4412081,49.6837633 28.4483258,48.8985926 31.5172717,50.2435427 C32.3278252,50.5973413 32.9336195,50.4373073 32.5458867,49.3166626 C32.9190278,47.986372 33.981645,48.6515512 34.7097383,48.6624102 C40.8850935,48.7557294 45.8927033,46.7420708 49.2911508,41.2608747 C52.5465994,36.0111779 53.4552229,30.3155173 53.0966736,24.2969383" id="Fill-1" fill="#70523E"></path>
                <path d="M20.3828666,61.4857027 C20.3720076,60.6486125 20.3283682,59.8102329 20.3597913,58.9741608 C20.4059419,57.8038363 20.5198252,56.8103092 19.230663,55.9524513 C17.9682409,55.1128501 18.4406736,53.6844216 19.1168475,52.49713 C19.739541,52.4340123 20.2604997,51.4902329 20.8323597,51.9832976 C21.375172,52.4534906 20.9316513,53.2858299 20.7984255,53.9231152 C20.6991338,54.4137366 20.6506078,54.8924131 20.621628,55.3831024 C20.6845421,54.1411767 20.9002282,52.9089561 21.2709938,51.7397854 C21.7156004,50.3356539 23.059329,50.1502371 24.2805548,50.0459911 C25.1249069,49.9745934 25.9767245,50.0302456 26.8320713,49.9625128 C28.147838,49.8569773 29.5484403,50.3780717 30.8472399,50.8686252 C31.6009196,51.1534015 31.8819631,51.8355478 32.1291402,52.5782329 C32.5822303,53.9413039 32.4513799,55.4363792 33.127418,56.7375542 C32.3811359,57.9370621 33.1710575,59.1485828 33.0983703,60.3541989 C32.9965676,61.1816517 32.3302346,61.2761247 31.7074732,61.4215669 C30.1129705,61.794708 28.4785612,61.5475987 26.8708242,61.7171343 C26.5570681,61.7279932 26.2517955,61.6420038 25.9404148,61.6251724 C25.0947054,61.6178426 24.2453989,61.5547928 23.4518125,61.2640441 C22.3783364,60.8714248 21.3690638,60.8957217 20.3828666,61.4857027" id="Fill-3" fill="#EABA4F"></path>
                <path d="M48.3218935,15.654176 C49.6654863,15.1393256 48.6913018,14.2898834 48.6210579,13.5709523 C49.1808373,13.3522121 49.182059,13.3509905 49.4995478,13.8434443 C49.8169688,14.3360339 49.8690918,15.0799406 50.6905043,15.093175 C52.40113,17.9235631 53.5013463,20.913035 53.0967143,24.2964157 C52.1503559,24.7022694 52.3405913,26.0713128 51.3107546,26.4045472 C51.4477133,26.7442969 50.9376136,27.4731368 51.9093548,27.315614 C52.4303135,27.2307784 52.1758066,27.7148844 52.1856475,27.9226299 C52.219446,28.7633849 52.212252,29.6060403 52.1941311,30.4475419 C52.1868013,30.7668632 52.3212488,31.2580954 51.8389752,31.2853786 C51.3569052,31.3125938 51.0430134,30.9964624 51.0054821,30.4469989 C50.9522053,29.6758091 51.2138384,28.8501209 50.6516836,28.1510074 C49.6581565,29.0469396 49.6581565,30.0361909 50.5111958,31.1465875 C48.9385468,31.2211071 49.3722944,30.0385663 49.1179232,29.2844793 C48.7798702,29.7387232 48.9519169,30.460912 48.2200908,30.6068293 C47.6978426,30.2089162 48.5738893,29.7448314 48.2078744,29.3177349 C47.8941183,29.4825196 47.2520144,30.2204539 47.4894185,29.1166405 C47.6324853,28.4550583 46.8958405,26.9139682 48.7591703,27.2738749 C48.9979317,27.319211 48.9918235,26.638965 48.8560865,26.3694592 C48.0855754,24.8324411 48.6210579,23.3198558 48.9288416,21.8253234 C49.1712,20.6483478 49.3638108,19.4888823 49.394148,18.2033849 C48.5460632,18.4463542 48.7931046,19.1702397 48.3787673,19.6343245 C48.3544704,19.2525642 48.3375033,18.9745748 48.3193824,18.6964496 C48.3037048,18.440789 48.2599975,18.1561485 47.9426443,18.175491 C47.685762,18.1924581 47.4155775,18.461421 47.5016348,18.6794825 C48.0673866,20.1091326 46.2088076,19.9165217 46.0779572,20.8590795 C45.2433103,20.7263966 45.4976814,21.6599958 45.0517175,21.9077837 C44.0898172,20.5658876 42.7801586,20.1309862 41.1893209,20.4302863 C41.0995987,19.8717285 41.590288,18.7933659 40.0504195,19.3271516 C42.1755181,18.6709989 41.5842477,17.0620403 41.4267249,15.3083181 C41.9573888,16.6149226 42.2191576,17.6011198 43.6754121,16.7457731 C44.1794036,16.4508165 45.0639338,16.8136416 45.7762817,16.8669183 C46.6752679,16.9342439 47.497902,16.4527169 48.4164344,16.4914019 C48.6587249,16.5011071 48.6708055,15.9171665 48.3218935,15.654176" id="Fill-5" fill="#70523E"></path>
                <path d="M41.770859,56.4601145 C40.6392195,55.9790626 39.5028293,55.4824008 38.2378282,55.586579 C37.006965,55.6883818 35.877701,55.3999406 35.393052,54.2345027 C34.8841739,53.0083902 35.0005684,51.722825 36.0751983,50.7135525 C36.4181379,50.8662566 36.7282969,50.7196607 37.0602418,50.642087 C37.4043351,50.5633595 37.861158,50.4301336 37.8781251,51.0600891 C36.8638982,51.3327169 36.5779682,51.9276522 36.5901845,53.0180276 C36.6046405,54.1157328 37.2370392,54.3290435 37.9653362,54.6269862 C38.952755,55.0316861 40.0055992,54.9178028 41.0342142,55.0050817 C42.6988929,55.1491665 43.6730095,56.1718091 44.0546341,58.1248611 C44.3806066,59.7955801 43.755334,61.382685 42.4711262,62.0782015 C40.9154443,62.920246 39.3888102,63.8483478 37.5448229,63.9330477 C36.7863924,63.9683393 36.0594528,63.9306723 35.4960764,63.3260997 C35.7420997,62.9541803 36.141913,63.1129247 36.4761654,63.0474995 C35.9964708,62.7566151 35.4003818,62.5701124 35.4960764,61.8262057 C37.4795334,62.4223627 39.4227444,62.6427996 41.1941124,61.2289629 C43.2247381,60.0706511 43.0890011,59.7666002 42.8018494,57.5177773 C42.7328271,56.9738791 42.4323054,56.5013107 41.770859,56.4601145" id="Fill-8" fill="#EED190"></path>
                <path d="M33.1274316,56.7375542 C32.4271644,56.633376 32.2684878,56.0735966 32.272017,55.5320738 C32.2769714,54.4695245 31.8625663,53.5026698 31.7051113,52.4860674 C31.5572937,51.5168373 30.9442375,51.1667716 30.1518049,50.9765362 C29.2504433,50.7596963 28.3344899,50.5949116 27.4185366,50.4386104 C27.0380657,50.3731852 26.3232068,49.4668691 26.4116394,50.8396454 C26.4334931,51.1813633 25.8676055,51.0927949 25.5453659,50.9183729 C22.9780361,49.5251003 21.2587911,51.1460717 21.2104008,53.1186698 C21.1873256,54.0405955 20.9208059,54.9577027 20.7427869,55.8725022 C20.7184899,55.9888967 20.561035,56.0784831 20.4240764,56.2250791 C20.2919364,55.4739105 20.2991983,54.799094 20.4592322,54.1133506 C20.6118006,53.4663601 20.6991474,52.8047779 20.8274867,52.0657578 C20.0981039,52.459463 19.2972556,52.6425043 19.1168611,52.49713 C19.0367762,51.8913357 19.3566405,51.4453718 19.7092174,51.0140674 C20.1224008,51.9760356 20.9123224,51.6464662 21.2007635,51.1545552 C22.3310456,49.2354375 24.2272238,49.4729773 25.9524411,49.3384619 C27.2415355,49.2379487 28.5186172,48.9737366 29.8647211,49.2282435 C30.5079788,49.3494566 31.0193001,49.4087058 31.5208484,49.8654609 C32.2526744,50.5343729 32.5337179,50.1199678 32.5459343,49.3166761 C33.0790414,49.9055033 33.31407,50.6263347 33.4521824,51.3872085 C33.6217179,51.6186401 33.6169671,51.8937111 33.4109862,52.0415287 C32.6548632,52.5854948 32.8269099,53.2712382 32.9989565,54.0091724 C33.2073807,54.9032721 33.4595122,55.8095203 33.1335398,56.7351788 L33.1274316,56.7375542 Z" id="Fill-10" fill="#CA9C55"></path>
                <path d="M35.4960696,61.8262329 C35.8425383,62.7252191 36.9270091,62.5930791 37.5436624,63.2824874 C36.8397981,63.9803792 36.1419063,63.0959847 35.4960696,63.3261268 C34.5668819,63.3091597 33.8374312,62.4381353 32.8415287,62.7033654 C32.6451852,62.9687313 32.6694821,63.4497832 32.2696687,63.5018384 C30.396498,63.747726 28.5052064,64.1960653 26.7012615,63.1831958 C26.3147504,62.6283029 26.054271,62.0685234 26.6467631,61.4821396 C27.7177281,60.9501862 28.8603622,61.27134 29.9700802,61.2082901 C31.0725362,61.1453082 32.2053972,61.187726 33.098411,60.3542329 C33.8495796,60.9248713 34.6164259,61.4663262 35.4960696,61.8262329" id="Fill-12" fill="#BD984B"></path>
                <path d="M26.8708038,63.0002834 C28.5039915,63.988856 31.4579003,63.84226 32.8415355,62.7033586 C32.8754698,63.5175092 32.4901124,63.8241391 31.6711432,63.8398846 C27.5760255,63.9149472 23.483351,63.9853268 19.3396394,63.4909048 C20.8747572,63.3793968 20.1320721,62.1897298 20.3828462,61.4857298 C20.833561,60.4862303 21.52772,60.2354562 22.5758812,60.62061 C23.6747402,61.0241561 24.8257222,61.2737765 26.0155249,61.2277616 C26.6333998,61.6577765 25.8119194,62.7820861 26.8708038,63.0002834" id="Fill-14" fill="#BC9754"></path>
                <path d="M37.8780912,51.0600619 C37.5690859,50.6069718 37.2152874,50.7984288 36.9088611,51.0310142 C36.4301845,51.3956717 36.2436819,51.1038371 36.0752322,50.7135932 C38.2474995,49.3384416 41.5406151,49.8921128 43.1787572,51.8864288 C43.4779215,52.2522401 43.54579,52.4268657 43.1229014,52.8157523 C41.6011538,54.2175084 39.3937306,53.8807449 38.5093362,52.0561001 C38.3384433,51.704677 38.0900445,51.3921425 37.8780912,51.0600619" id="Fill-16" fill="#907968"></path>
                <path d="M33.1335262,56.735172 C32.8511932,55.4121434 32.5871169,54.0841603 32.2793332,52.7660861 C32.0431508,51.7458867 33.4981837,52.2135686 33.4521688,51.3872017 C34.040996,52.4195495 34.4056534,53.5365972 34.5063024,54.7069217 C34.5885591,55.6907436 34.3293014,56.5607499 33.1335262,56.735172" id="Fill-18" fill="#EABA4F"></path>
                <path d="M50.6905247,15.0932021 C50.1354961,15.5469709 50.0253455,15.4778808 49.5492479,14.8605489 C49.2124165,14.4256475 49.4644123,13.6562901 48.7301429,13.4811894 C48.7035385,13.4745383 48.6573879,13.5393527 48.6210783,13.5709116 C47.8724208,13.0177832 47.4179733,12.3101862 47.5258842,11.3451639 C47.5864908,10.8127355 47.4555046,10.4807907 46.962372,10.1487101 C46.3117845,9.7114333 46.7188598,9.45217561 47.2725989,9.35763478 C48.6089977,11.1519423 49.6727686,13.10927 50.6905247,15.0932021" id="Fill-20" fill="#70523E"></path>
                <path d="M41.770859,56.4601145 C41.7890477,56.2675037 41.8168738,55.9815737 42.0470838,56.043334 C42.9630371,56.2904433 43.8693531,58.3150965 43.3967847,59.635614 C43.0951092,60.4777264 42.4832068,61.4748505 41.1941124,61.2289629 C42.6407975,59.4309226 42.8127762,58.0145748 41.770859,56.4601145" id="Fill-22" fill="#D1AC59"></path>
                <path d="M41.9986053,38.5445328 C41.8410825,40.7592857 40.2248619,41.9199729 38.4547156,42.7474935 C34.7896806,44.461852 30.8836445,44.8434766 26.8757379,44.5806218 C24.2768492,44.4109506 21.7070761,44.5987427 19.0900666,43.8645413 C15.7934218,42.9401043 13.6428047,41.4232433 13.0685692,37.8515275 C12.612968,35.0152348 12.5330189,32.1891902 12.549986,29.3401383 C13.3775745,28.3430821 14.2825332,27.4567873 15.6831355,27.4119941 C15.946126,27.4035105 15.9303126,27.3095126 16.0151483,27.116291 C16.8656085,25.1820386 18.2178206,24.3921171 20.4580242,24.0206727 C22.7284293,23.6444776 23.6806923,24.4574744 24.8330316,25.975625 C26.0324038,27.5543822 25.9137697,28.2291987 23.977617,28.636817 C23.311284,28.7767618 22.9065841,29.1554002 22.7684717,29.77694 C22.6412182,30.3506324 23.1488747,30.5300089 23.5389828,30.714747 C25.5236615,31.6543186 25.2485905,33.6618689 25.7247559,35.3096484 C25.8591355,35.7748191 25.6714112,36.3055508 25.9912755,36.736923 C26.9374982,37.2662973 27.4597463,36.9245794 27.670478,35.9298986 C27.6305035,34.5778223 27.9382872,33.2753578 28.1999203,31.9637989 C28.4822532,30.5511839 28.9293709,29.3976908 30.4740581,28.7822592 C31.6372564,28.3194638 32.0648959,26.9370503 32.820951,25.9744034 C33.6363232,24.936151 34.4747029,24.5786197 35.6124505,25.2499071 C36.6192119,25.8436208 37.7145417,25.2934787 38.7903253,25.6727279 C40.9312373,26.4263398 42.282092,28.0800916 42.2142235,30.4390651 C42.1925056,31.172045 42.0433985,31.9081468 42.3426986,32.6211733 C42.5086371,34.6105349 42.1390931,36.5721383 41.9986053,38.5445328 Z" id="Fill-24" fill="#E7A82F"></path>
                <path d="M25.6349862,37.0991644 C25.2304221,35.7905917 25.1734125,34.4154401 24.8910795,33.0803309 C24.648789,31.9408865 24.1036013,31.3168356 23.1416331,30.9339894 C22.5625111,30.7037794 21.9009968,30.5493107 22.2619894,29.7424899 C22.604929,28.9748293 23.0084072,27.9631813 24.0406193,28.2218961 C24.7022015,28.3879024 24.9686532,28.2061506 25.244878,27.7947996 C25.5635207,27.3191771 25.2231601,26.9788165 24.9190414,26.6335016 C24.2805345,25.9101591 23.5074443,25.3480042 23.159754,24.3193213 C22.9429141,23.678439 22.0365981,23.8929035 21.4744433,24.2454804 C20.9523309,24.5726744 20.5791898,24.7362375 19.8873383,24.445421 C18.6188081,23.9117031 16.2417137,26.255474 16.5990414,27.5833892 C16.7093277,27.9904645 16.4538028,28.483597 16.2428674,28.208526 C15.201018,26.8472874 14.6654677,28.2546766 13.9554952,28.5356522 C13.4586978,28.7319958 13.0176882,29.0676055 12.551228,29.3401654 C12.7135695,26.3088865 13.8923775,25.0287508 17.1201357,24.4866172 C17.527211,24.4187487 17.876123,24.3272619 18.1910329,24.0873468 C19.1458749,23.3623075 19.9284666,22.8194952 21.353298,23.538562 C22.2838431,24.0074655 23.8467869,23.7826172 24.9396055,23.4943118 C27.779631,22.7449756 30.5612895,23.1193383 33.3164793,23.5155546 C35.9212725,23.8905281 38.5795461,24.2643478 40.9966151,25.4764115 C41.3105069,25.6340021 41.4727126,25.742456 41.6036988,26.1542821 C42.2724751,28.2716437 42.5548081,30.4124199 42.342719,32.6212004 C41.997404,32.2909523 41.7854507,31.7530944 41.9017094,31.4240679 C42.3971495,30.0246872 41.7320382,28.9318685 41.150473,27.7905917 C40.682859,26.8710414 40.2321442,26.3942651 38.9454252,26.1670414 C37.610316,25.931334 36.0110626,26.4541251 34.7873256,25.3238431 C34.3826257,24.9493446 33.8882715,25.2850223 33.4437328,25.7733362 C32.2138876,27.1266341 31.7365005,29.2450817 29.5630117,29.6776076 C29.1413446,29.7618324 29.0517582,30.1961909 28.9523309,30.6050986 C28.4968653,32.466053 27.9782821,34.3149947 28.0485938,36.2595631 C27.1906681,36.3854592 26.2093574,36.1577603 25.6349862,37.0991644" id="Fill-26" fill="#EC8D35"></path>
                <path d="M20.0266859,5.52666129 C21.1788895,5.54240679 21.8282554,6.43650647 22.5902829,7.07623499 C23.1828428,7.5735754 23.5753264,7.56441315 24.0381896,6.9829158 C24.4936551,6.40990201 25.0122384,5.8852106 25.4435427,5.29400806 C26.2565396,4.17634952 26.8757039,4.44897731 27.4378587,5.5059614 C27.5529637,5.72110456 27.7020708,5.91676946 27.8352967,6.12159661 C28.8966244,8.1618596 28.8941133,8.15575143 30.8956912,7.226428 C31.2980157,7.03992534 31.7244335,6.9029667 32.1509192,6.77693489 C32.7493837,6.5989158 33.0560136,6.78915122 33.134741,7.46634316 C33.3019012,8.92395504 32.8282469,10.312341 32.7566456,11.742059 C32.7276657,12.3186698 32.1848534,12.3587122 31.7244335,12.3393697 C28.5331885,12.2072297 25.3418757,12.0678957 22.150495,11.9219105 C21.8065374,11.906165 21.4430337,11.734797 21.1279881,11.8074163 C19.8424229,12.104341 19.6813709,11.3373591 19.8352967,10.4171979 C20.1077888,8.78937179 20.0618418,7.16039194 20.0266859,5.52666129" id="Fill-28" fill="#E6C930"></path>
                <path d="M41.1747563,9.9955105 C42.0664806,10.7157989 42.1513162,10.1833705 42.0810723,9.41279152 C42.3499673,9.44550414 42.2603809,8.78751898 42.6746503,9.1044649 C43.0260055,9.22194528 43.292593,9.46538961 43.5639313,9.70055398 C45.0178104,10.8756971 45.4891572,13.4625052 44.4266078,14.6304543 C44.1395241,14.9448891 43.7845039,14.3869421 43.4330808,14.5541022 C42.8733014,13.1426409 41.4594647,13.8392433 40.5046906,13.5339707 C39.5391253,13.2249654 39.2289663,13.0323546 39.529488,12.1436844 C39.7039101,11.6317523 39.2047372,10.9163504 39.9934371,10.5970291 L39.9945909,10.5970291 C40.1449196,9.91746172 40.9978231,10.621326 41.1747563,9.9955105" id="Fill-30" fill="#70523E"></path>
                <path d="M41.1893345,20.4302931 C43.1860259,19.597818 44.3853981,20.0564734 45.0517311,21.9077905 C44.9887491,23.5258435 44.9887491,23.5258435 43.5966982,23.9753366 C44.155256,22.9623992 44.6204267,21.9810884 43.5858392,21.1523461 C42.1222549,19.9794426 41.533292,21.8429082 40.3835317,22.2033578 C40.3823101,21.3934151 40.8900344,20.9566812 41.1893345,20.4302931" id="Fill-32" fill="#DA853F"></path>
                <path d="M13.5581048,22.4875572 C12.4748556,21.8761977 12.1538375,20.3072814 10.8925692,20.8663822 C9.81183118,21.3462804 9.6809807,22.4366558 10.0335576,23.6015508 C9.04125217,22.9848976 9.16613022,22.0265264 9.42409841,21.2407449 C9.74396267,20.2630312 10.7204547,19.806887 11.6704102,19.8655932 C13.0068089,19.9492751 13.257583,21.0941489 13.5581048,22.4875572" id="Fill-34" fill="#E08B40"></path>
                <path d="M43.5639381,9.70057434 C42.9339147,9.99973871 42.9218341,9.37697731 42.6745892,9.10448526 C43.1084725,8.94750541 43.2355902,8.52889247 43.4476793,7.89038558 C43.5445955,8.68892641 43.8498681,9.17350753 43.5639381,9.70057434" id="Fill-36" fill="#654D3C"></path>
                <path d="M41.1747563,9.9955105 C41.3685209,11.3482655 40.2175389,10.0603249 39.9945909,10.5970291 C39.8165718,10.3153748 39.638417,10.0336526 39.4555113,9.74534719 C40.1376577,9.29761866 40.6198634,9.88230583 41.1747563,9.9955105" id="Fill-38" fill="#70523E"></path>
                <path d="M26.8708038,63.0002834 C26.4589777,63.4375601 26.1221463,63.4509981 26.0408399,62.7820861 C25.9790795,62.269611 26.0203436,61.746277 26.0155249,61.2277616 C26.2263245,61.3124615 26.4359024,61.3972971 26.6467699,61.4821328 C26.5195164,62.0176153 26.6539639,62.5143449 26.8708038,63.0002834" id="Fill-40" fill="#FDFDFD"></path>
                <path d="M50.213063,16.4847712 C51.2235572,17.196576 52.0256271,17.9549387 51.5143737,19.288962 C50.8031796,19.2440331 51.2211818,18.5153968 50.7486134,18.2408687 C50.2155741,19.6385527 50.0579835,21.036576 50.4336356,22.6546969 C49.7588191,21.8398677 49.8205794,21.8393247 49.7939071,19.5881943 C49.7817586,18.5329069 50.9811987,17.6727415 50.213063,16.4847712" id="Fill-42" fill="#70523E"></path>
                <path d="M49.644929,23.4203487 C50.0241782,24.6702151 49.2971029,25.9186562 50.586333,26.5389743 C50.3657603,26.9472713 50.1453234,27.3556361 49.9198643,27.7711949 C48.7532047,26.4626223 49.449807,25.0948004 49.644929,23.4203487" id="Fill-44" fill="#70523E"></path>
                <path d="M18.1801875,33.2705595 C17.4496509,33.22692 16.7965523,33.1929858 16.7904441,32.3782244 C16.7856933,31.6349285 17.2582617,31.1648034 17.9814685,31.1550982 C18.7302617,31.1454609 19.1421557,31.6076454 19.1119542,32.386708 C19.0852819,33.0645786 18.7314834,33.3625213 18.1801875,33.2705595" id="Fill-46" fill="#604833"></path>
                <path d="M35.3470778,30.9630303 C35.8317268,31.0127101 36.5343695,31.2144831 36.2788445,31.7148776 C36.0449697,32.1717005 36.5367449,33.1494142 35.4936738,33.1245065 C34.7401298,33.1063177 34.3269463,32.7089476 34.2809315,31.9451555 C34.2347809,31.1951406 34.7896738,31.0982244 35.3470778,30.9630303" id="Fill-48" fill="#4A3B2D"></path>
                <path d="M25.6349862,37.0991644 C25.7490053,35.6924539 26.2723393,35.5107699 28.0485938,36.2595631 C27.580912,37.5098367 26.7738876,37.7849077 25.6349862,37.0991644" id="Fill-50" fill="#5A422E"></path>
            </g>
            <g id="Group-18" transform="translate(0.000000, 67.000000)">
                <path d="M9.0221094,1.78496561 L12.0191251,4.54092211 L72,0 L72,23.0040943 L0,16.8223059 L9.0221094,1.78496561 Z M0.483475517,17.5550715 L40.5579093,20.7213385 L2.59376898,19.5153533 L0.483475517,17.5550715 Z" id="Combined-Shape" fill="#FFFFFF"></path>
                <text id="下单请认证" font-family="DFPHaiBaoW12, DFPHaiBaoW12-GB" font-size="10" font-weight="normal" letter-spacing="0.233333349" fill="#70523E">
                    <tspan x="12" y="15">下单请认证</tspan>
                </text>
            </g>
            <g id="Icon-24px" transform="translate(72.000000, 0.000000)">
                <path d="M6,0 C2.682,0 0,2.682 0,6 C0,9.318 2.682,12 6,12 C9.318,12 12,9.318 12,6 C12,2.682 9.318,0 6,0 L6,0 Z" id="Shape" stroke="#333333"></path>
                <polygon id="Path" fill="#333333" points="9 8.154 8.154 9 6 6.846 3.846 9 3 8.154 5.154 6 3 3.846 3.846 3 6 5.154 8.154 3 9 3.846 6.846 6"></polygon>
            </g>
        </g>
    </g>
</svg>