<?xml version="1.0" encoding="UTF-8" standalone="no"?>
<svg width="110px" height="22px" viewBox="0 0 110 22" version="1.1" xmlns="http://www.w3.org/2000/svg" xmlns:xlink="http://www.w3.org/1999/xlink">
    <!-- Generator: Sketch 48.2 (47327) - http://www.bohemiancoding.com/sketch -->
    <title>今日必抢@1x</title>
    <desc>Created with Sketch.</desc>
    <defs></defs>
    <g id="首页" stroke="none" stroke-width="1" fill="none" fill-rule="evenodd" transform="translate(-10.000000, -410.000000)">
        <g id="限时抢购" transform="translate(0.000000, 380.000000)" fill="#FD4A70" fill-rule="nonzero">
            <g id="今日必抢" transform="translate(10.000000, 30.000000)">
                <path d="M38.0336693,8.71691051 L37.7387772,11.2112119 L45.2451666,11.2112119 L39.0603489,19.4376952 L33.5700862,19.4376952 L38.769415,12.6591652 L24.9582225,12.6591652 L25.1291708,11.2112119 L32.6346945,11.2112119 L32.9295866,8.71691051 L38.0336693,8.71691051 Z M45.5075265,9.72657926 L40.5599198,1.51887485 L32.0670519,1.51887485 L25.1762992,9.72657926 L30.8808039,9.72657926 L36.1819348,3.53733385 L39.9096482,9.72657926 L45.5075265,9.72657926 Z" id="Shape"></path>
                <path d="M65.1096878,17.6853258 C64.9925474,18.6762156 63.9734131,19.4940319 62.8582905,19.4940319 L46.3652372,19.4940319 L48.4639932,1.76618554 L66.9943254,1.76618554 L65.1096878,17.6853258 Z M60.7778415,11.3443116 L52.3925894,11.3443116 L51.5982114,18.0478358 L59.3620131,18.0478358 C59.7048995,18.0478358 60.0151299,17.7809775 60.0487753,17.4952304 L60.7778415,11.3443116 Z M52.5634141,9.89712701 L60.9486662,9.89712701 L61.7400755,3.21413883 L53.3548233,3.21413883 L52.5634141,9.89712701 Z" id="Shape"></path>
                <path d="M78.9401771,3.38468648 L78.0651491,10.7738059 L88.9266786,4.71842886 L88.6154586,7.34572005 L77.7539291,13.4010971 L77.2064491,18.0281782 L82.5900855,18.0281782 L82.4209926,19.4565839 L72.0839357,19.4565839 L72.4508191,16.3525717 L66.9192418,19.4182573 L67.2304618,16.7909661 L72.7620391,13.7252805 L73.9867567,3.38479626 L78.9401771,3.38479637 L78.9401771,3.38468648 Z M73.2491552,5.44147206 L71.5980563,13.9528239 L67.7165884,13.9528239 L69.3456695,5.44147206 L73.2491552,5.44147206 Z M79.6009629,1.42333303 L79.4338491,7.36526775 L83.7658191,7.36526775 L83.9329329,1.42333303 L79.6009629,1.42333303 Z M83.3336241,10.6594851 L83.1520379,18.7137734 L87.31207,18.7137734 L87.4936562,10.6594851 L83.3336241,10.6594851 Z" id="Shape"></path>
                <path d="M96.5281905,1.36710608 L96.1093546,4.9086341 L97.5463351,4.9086341 L97.3725418,6.37448777 L95.9355613,6.37448777 L95.3044625,11.7067117 L96.7749647,11.4210745 L96.6040164,12.8673806 L95.1335141,13.1530178 L94.6013725,17.6469992 C94.4812633,18.6566679 93.225869,19.4761316 91.8101643,19.4761316 L88.5079665,19.4761316 L88.6817598,18.0093993 L89.1322619,18.0093993 C89.5394703,18.0093993 89.9524924,17.7808676 89.9891065,17.4755729 L90.3944595,14.0492443 L88.9901348,14.3153339 L89.1640519,12.8486016 L90.5683766,12.582512 L91.3031329,6.37448777 L89.9304744,6.37448777 L90.1043915,4.9086341 L91.4769263,4.9086341 L91.8957622,1.36710608 L96.5281905,1.36710608 Z M102.375812,10.8488117 L101.527626,18.0093993 L108.755451,18.0093993 L108.586358,19.437805 L96.833473,19.437805 L98.0215765,9.40261552 L109.045395,9.40261552 L108.362468,15.1714768 C108.267345,15.9713927 107.439446,16.6194301 106.517289,16.6194301 L102.613803,16.6194301 L102.785741,15.1714768 L103.515674,15.1714768 C103.750944,15.1714768 103.943168,15.0000505 103.965186,14.8107239 L104.434861,10.8488117 L102.375812,10.8488117 Z M104.075029,5.19427126 L102.084878,8.77412575 L97.4100219,8.77412575 L101.6084,1.38500635 L107.442538,1.38500635 L109.934154,8.77412575 L105.23728,8.77412575 L104.075029,5.19427126 Z" id="Shape"></path>
                <path d="M2.84984942,21.9087151 C2.69955835,21.9087151 2.54827765,21.877966 2.40701649,21.8149304 C2.00883789,21.6366954 1.79570914,21.2427775 1.88786291,20.8546799 L3.60093377,13.6506042 L1.0536547,13.5917417 C0.754433187,13.5840544 0.47450833,13.4569947 0.294406538,13.244716 C0.113809868,13.0323276 0.0523328022,12.757782 0.127292725,12.5002582 L3.56060874,0.674262868 C3.67255392,0.288800868 4.06442397,0.0193069854 4.51294691,0.0193069854 L16.4709208,0.0193069854 C16.8326089,0.0193069854 17.1648574,0.195016156 17.3363005,0.478127502 C17.5082385,0.760360351 17.4914157,1.10321286 17.2931305,1.37182824 L12.8060453,7.43829691 L15.5944084,7.43829691 C15.9819491,7.43829691 16.3329993,7.6403624 16.4915781,7.95422299 C16.6505279,8.26808346 16.5867005,8.63476659 16.3292885,8.89141172 L3.58510054,21.6153906 C3.39398968,21.8072431 3.12408425,21.9087151 2.84984942,21.9087151 Z M2.34022051,11.8744042 L4.8331968,11.9323882 C5.1252439,11.939197 5.3984891,12.061205 5.57945687,12.2649178 C5.76005354,12.4678619 5.82969454,12.7321944 5.76957821,12.9863137 L4.57801119,17.9962212 L13.4032512,9.18473621 L10.9832558,9.18473621 C10.6215677,9.18473621 10.2893193,9.00902704 10.1178762,8.7259157 C9.94593818,8.44368285 9.96276092,8.10083034 10.1610462,7.83221496 L14.6481314,1.76574619 L5.27516387,1.76574619 L2.34022051,11.8744042 Z" id="Shape"></path>
            </g>
        </g>
    </g>
</svg>