<?xml version="1.0" encoding="UTF-8" standalone="no"?>
<svg width="86px" height="20px" viewBox="0 0 86 20" version="1.1" xmlns="http://www.w3.org/2000/svg" xmlns:xlink="http://www.w3.org/1999/xlink">
    <!-- Generator: Sketch 48.2 (47327) - http://www.bohemiancoding.com/sketch -->
    <title>全球尖货@1x</title>
    <desc>Created with Sketch.</desc>
    <defs></defs>
    <g id="首页" stroke="none" stroke-width="1" fill="none" fill-rule="evenodd" transform="translate(-20.000000, -918.000000)">
        <g id="天天特惠" transform="translate(0.000000, 904.000000)" fill="#FFFFFF">
            <g id="全球尖货" transform="translate(20.000000, 14.000000)">
                <path d="M36.3718264,8.39726027 L32.0238805,8.39726027 L29.2676969,4.03477345 L25.5260279,8.39726027 L21.1941261,8.39726027 L27.4507721,1.03793467 L31.7345417,1.03793467 L36.3718264,8.39726027 Z M21.6253449,9.1369863 L35.8564445,9.1369863 L35.6962759,10.5785037 L30.4498615,10.5785037 L30.1463842,13.3097998 L35.3927986,13.3097998 L35.23263,14.7513172 L29.9862156,14.7513172 L29.6974907,17.3498419 L35.3931394,17.3498419 L35.2329708,18.7913593 L20.0231823,18.7913593 L20.1833509,17.3498419 L25.8789995,17.3498419 L26.1677244,14.7513172 L20.92131,14.7513172 L21.0814786,13.3097998 L26.327893,13.3097998 L26.6313703,10.5785037 L21.4651763,10.5785037 L21.6253449,9.1369863 Z M51.2264757,1.13277134 L53.6330878,1.13277134 L53.6947492,3.46575342 L51.256049,3.46575342 L51.2264757,1.13277134 Z M43.7910652,6.53846154 L46.2137214,6.53846154 L45.8992993,11.6786091 L43.4766431,11.6786091 L43.7910652,6.53846154 Z M50.8504607,6.53846154 L53.289161,6.53846154 L52.4452842,11.6786091 L50.022628,11.6786091 L50.8504607,6.53846154 Z M52.149422,18.9620653 L49.7428099,18.9620653 L49.908824,12.7028451 L52.3314802,12.7028451 L52.149422,18.9620653 Z M44.59266,18.9620653 L42.1539597,18.9620653 L43.3628391,12.7028451 L45.7854953,12.7028451 L44.59266,18.9620653 Z M37.8243337,3.01053741 L37.9760724,1.64488936 L42.5967676,1.64488936 L42.445029,3.01053741 L41.658869,3.01053741 L40.927573,9.59220232 L41.6495567,9.59220232 L41.497818,10.9578504 L40.7758344,10.9578504 L40.0656132,17.3498419 L40.9801258,17.3498419 L40.8283872,18.71549 L35.9509867,18.71549 L36.1027253,17.3498419 L37.0172379,17.3498419 L37.7274591,10.9578504 L37.0054754,10.9578504 L37.1572141,9.59220232 L37.8791977,9.59220232 L38.6104937,3.01053741 L37.8243337,3.01053741 Z M42.6439489,5.55216017 L42.8041175,4.11064278 L46.285683,4.11064278 L46.6313099,1 L49.824082,1 L49.4784551,4.11064278 L52.7995798,4.11064278 L52.6394112,5.55216017 L49.3182865,5.55216017 L48.0221856,17.2170706 C47.9125965,18.203372 47.1181428,19 46.2517624,19 L43.9574589,19 L44.11552,17.5774499 L44.3401371,17.5774499 C44.5807983,17.5774499 44.8146611,17.3498419 44.8504883,17.0273973 L46.1255144,5.55216017 L42.6439489,5.55216017 Z M65.5652364,1.92939937 L68.9184493,1.92939937 L69.0300116,9.15595364 L65.6928428,9.15595364 L65.5652364,1.92939937 Z M57.5103616,9.15595364 L54.1571487,9.15595364 L55.8746117,1.92939937 L59.2278245,1.92939937 L57.5103616,9.15595364 Z M63.4706695,8.79557429 L59.8126191,8.79557429 L60.6724715,1.056902 L64.3305219,1.056902 L63.4706695,8.79557429 Z M53.6152538,12.5890411 L53.7754224,11.1475237 L59.455027,11.1475237 L59.6678826,9.23182297 L63.4382416,9.23182297 L63.225386,11.1475237 L68.9370787,11.1475237 L68.7769101,12.5890411 L63.8674214,12.5890411 L67.5293479,17.4636459 L68.2352875,17.4636459 L68.0709039,18.943098 L63.9957074,18.943098 L60.9191181,14.8651212 L56.9684001,18.943098 L52.8771595,18.943098 L53.041543,17.4636459 L53.7795707,17.4636459 L58.4926544,12.5890411 L53.6152538,12.5890411 Z M79.1026108,11.5268704 L78.849713,13.8029505 L79.947645,14.7513172 L80.3649263,10.995785 L74.2039993,10.995785 L73.786718,14.7513172 L75.0953981,13.8029505 L75.3482959,11.5268704 L79.1026108,11.5268704 Z M71.4968322,9.0800843 L71.8361367,6.02634352 L70.2477727,6.02634352 L72.5006053,1.056902 L76.1105235,1.056902 L75.0085812,3.46575342 L75.6503444,3.46575342 L75.02653,9.0800843 L71.4968322,9.0800843 Z M82.5441998,1.056902 L82.2386151,3.80716544 L85.787144,2.91570074 L85.6269755,4.35721812 L82.0784465,5.24868282 L81.8129039,7.63856691 L85.2463371,7.63856691 L85.0861686,9.0800843 L77.8663323,9.0800843 L78.1824544,6.23498419 L75.8067749,6.82297155 L75.9669435,5.38145416 L78.342623,4.79346681 L78.7577968,1.056902 L82.5441998,1.056902 Z M70.7842304,9.57323498 L84.1008174,9.57323498 L83.4432833,15.4910432 L80.7960099,15.4910432 L83.2253969,17.5964173 L84.1238654,17.5964173 L83.9742343,18.943098 L79.2733186,18.943098 L76.6564334,16.6480506 L73.5134937,18.943098 L68.8286221,18.943098 L68.9782533,17.5964173 L69.8606777,17.5964173 L72.7579255,15.4910432 L70.1266963,15.4910432 L70.7842304,9.57323498 Z"></path>
                <path d="M15.9552444,1.0391938 L12.0160658,0.0897107155 C11.1934537,-0.107770523 10.3017484,0.122354942 9.63703655,0.705425636 L0.357195741,8.86464475 C0.198147197,9.00437916 0.0952728587,9.20929432 0.0703915834,9.43521805 C0.045893169,9.66114178 0.101971613,9.88781965 0.226090704,10.066878 L6.88574573,19.6667515 C7.03589439,19.8834099 7.25953849,19.9963179 7.48576638,19.9963179 C7.64959975,19.9963179 7.81458152,19.936955 7.95391647,19.8147817 L17.1976795,11.6873449 C17.9028712,11.0674282 18.3070957,10.1346444 18.3070957,9.12741444 L18.3055645,4.3111556 C18.3056601,2.74337196 17.3173008,1.36714413 15.9552444,1.0391938 Z M16.2613793,10.3370815 L7.61687133,17.9374706 L1.89389925,9.68786047 L10.5736237,2.05568902 C10.8876059,1.78042193 11.3096299,1.66999186 11.6975858,1.76458465 L15.6363817,2.71406773 C16.3014763,2.87470311 16.7836939,3.54644106 16.7836939,4.31115571 L16.785225,9.12741455 C16.785225,9.60339495 16.5943094,10.0442533 16.2613793,10.3370815 Z" id="Shape" fill-rule="nonzero"></path>
                <path d="M12.9876782,5.10840677 C12.2400926,5.10840677 11.6322248,5.79361178 11.6322248,6.63514272 C11.6322248,7.47678137 12.2400926,8.16112453 12.9876782,8.16112453 C13.7352637,8.16112453 14.3434186,7.47678137 14.3434186,6.63514272 C14.3434186,5.79350407 13.7352637,5.10840677 12.9876782,5.10840677 Z" id="Shape" fill-rule="nonzero"></path>
            </g>
        </g>
    </g>
</svg>