<?xml version="1.0" encoding="UTF-8" standalone="no"?>
<svg width="24px" height="24px" viewBox="0 0 24 24" version="1.1" xmlns="http://www.w3.org/2000/svg" xmlns:xlink="http://www.w3.org/1999/xlink">
    <!-- Generator: Sketch 48.2 (47327) - http://www.bohemiancoding.com/sketch -->
    <title>分类-icon@1x</title>
    <desc>Created with Sketch.</desc>
    <defs></defs>
    <g id="首页" stroke="none" stroke-width="1" fill="none" fill-rule="evenodd" transform="translate(-143.000000, -688.000000)">
        <g id="bottom" transform="translate(0.000000, 680.000000)" fill="#CCCCCC">
            <g id="分类-icon" transform="translate(143.000000, 8.000000)">
                <path d="M4,0 L5.6,0 C7.809139,-4.05812251e-16 9.6,1.790861 9.6,4 L9.6,7.07692308 C9.6,9.28606208 7.809139,11.0769231 5.6,11.0769231 L4,11.0769231 C1.790861,11.0769231 2.705415e-16,9.28606208 0,7.07692308 L0,4 C-2.705415e-16,1.790861 1.790861,4.05812251e-16 4,0 Z M4,12.9230769 L5.6,12.9230769 C7.809139,12.9230769 9.6,14.7139379 9.6,16.9230769 L9.6,20 C9.6,22.209139 7.809139,24 5.6,24 L4,24 C1.790861,24 2.705415e-16,22.209139 0,20 L0,16.9230769 C-2.705415e-16,14.7139379 1.790861,12.9230769 4,12.9230769 Z M13.0461538,13.8461538 L22.1538462,13.8461538 C23.1734488,13.8461538 24,14.6727051 24,15.6923077 C24,16.7119103 23.1734488,17.5384615 22.1538462,17.5384615 L13.0461538,17.5384615 C12.0265512,17.5384615 11.2,16.7119103 11.2,15.6923077 C11.2,14.6727051 12.0265512,13.8461538 13.0461538,13.8461538 Z M13.0461538,19.3846154 L22.1538462,19.3846154 C23.1734488,19.3846154 24,20.2111666 24,21.2307692 C24,22.2503718 23.1734488,23.0769231 22.1538462,23.0769231 L13.0461538,23.0769231 C12.0265512,23.0769231 11.2,22.2503718 11.2,21.2307692 C11.2,20.2111666 12.0265512,19.3846154 13.0461538,19.3846154 Z M13.0461538,0.923076923 L22.1538462,0.923076923 C23.1734488,0.923076923 24,1.74962815 24,2.76923077 C24,3.78883338 23.1734488,4.61538462 22.1538462,4.61538462 L13.0461538,4.61538462 C12.0265512,4.61538462 11.2,3.78883338 11.2,2.76923077 C11.2,1.74962815 12.0265512,0.923076923 13.0461538,0.923076923 Z M13.0461538,6.46153846 L22.1538462,6.46153846 C23.1734488,6.46153846 24,7.28808969 24,8.30769231 C24,9.32729492 23.1734488,10.1538462 22.1538462,10.1538462 L13.0461538,10.1538462 C12.0265512,10.1538462 11.2,9.32729492 11.2,8.30769231 C11.2,7.28808969 12.0265512,6.46153846 13.0461538,6.46153846 Z" id="Combined-Shape"></path>
            </g>
        </g>
    </g>
</svg>