<?xml version="1.0" encoding="UTF-8" standalone="no"?>
<svg width="28px" height="22px" viewBox="0 0 28 22" version="1.1" xmlns="http://www.w3.org/2000/svg" xmlns:xlink="http://www.w3.org/1999/xlink">
    <!-- Generator: Sketch 48.2 (47327) - http://www.bohemiancoding.com/sketch -->
    <title>列表显示@1x</title>
    <desc>Created with Sketch.</desc>
    <defs></defs>
    <g id="新-分类-瀑布流01" stroke="none" stroke-width="1" fill="none" fill-rule="evenodd" transform="translate(-366.000000, -39.000000)">
        <g id="Group-2" fill="#999999" fill-rule="nonzero">
            <g id="Group-5">
                <g id="Group-7">
                    <path d="M373.971486,52.6846348 L366.608153,52.6846348 C366.27133,52.6846348 366,52.9476071 366,53.2740554 L366,60.4105793 C366,60.7370277 366.27133,61 366.608153,61 L373.971486,61 C374.308309,61 374.579639,60.7370277 374.579639,60.4105793 L374.579639,53.2740554 C374.579639,52.9476071 374.30519,52.6846348 373.971486,52.6846348 Z M373.360214,59.818136 L367.216307,59.818136 L367.216307,53.8634761 L373.360214,53.8634761 L373.360214,59.818136 Z M393.391847,53.7183879 L377.944754,53.7183879 C377.60793,53.7183879 377.336601,53.9813602 377.336601,54.3078086 C377.336601,54.6342569 377.60793,54.8972292 377.944754,54.8972292 L393.391847,54.8972292 C393.72867,54.8972292 394,54.6342569 394,54.3078086 C394,53.9813602 393.72867,53.7183879 393.391847,53.7183879 Z M393.391847,58.7843829 L377.944754,58.7843829 C377.60793,58.7843829 377.336601,59.0473552 377.336601,59.3738035 C377.336601,59.7002519 377.60793,59.9632242 377.944754,59.9632242 L393.391847,59.9632242 C393.72867,59.9632242 394,59.7002519 394,59.3738035 C394,59.0473552 393.72867,58.7843829 393.391847,58.7843829 Z M373.971486,39 L366.608153,39 C366.27133,39 366,39.2629723 366,39.5894207 L366,46.7259446 C366,47.0523929 366.27133,47.3153652 366.608153,47.3153652 L373.971486,47.3153652 C374.308309,47.3153652 374.579639,47.0523929 374.579639,46.7259446 L374.579639,39.5894207 C374.579639,39.2629723 374.30519,39 373.971486,39 Z M373.360214,46.1365239 L367.216307,46.1365239 L367.216307,40.181864 L373.360214,40.181864 L373.360214,46.1365239 Z M377.944754,41.2156171 L393.391847,41.2156171 C393.72867,41.2156171 394,40.9526448 394,40.6261965 C394,40.2997481 393.72867,40.0367758 393.391847,40.0367758 L377.944754,40.0367758 C377.60793,40.0367758 377.336601,40.2997481 377.336601,40.6261965 C377.336601,40.9526448 377.60793,41.2156171 377.944754,41.2156171 Z M393.391847,45.0997481 L377.944754,45.0997481 C377.60793,45.0997481 377.336601,45.3627204 377.336601,45.6891688 C377.336601,46.0156171 377.60793,46.2785894 377.944754,46.2785894 L393.391847,46.2785894 C393.72867,46.2785894 394,46.0156171 394,45.6891688 C394,45.3627204 393.72867,45.0997481 393.391847,45.0997481 Z" id="列表显示"></path>
                </g>
            </g>
        </g>
    </g>
</svg>