<?xml version="1.0" encoding="UTF-8" standalone="no"?>
<svg width="24px" height="24px" viewBox="0 0 24 24" version="1.1" xmlns="http://www.w3.org/2000/svg" xmlns:xlink="http://www.w3.org/1999/xlink">
    <!-- Generator: Sketch 48.2 (47327) - http://www.bohemiancoding.com/sketch -->
    <title>加入购物车icon@1x</title>
    <desc>Created with Sketch.</desc>
    <defs>
        <linearGradient x1="0%" y1="0%" x2="100%" y2="100%" id="linearGradient-1">
            <stop stop-color="#FD4A70" offset="0%"></stop>
            <stop stop-color="#F76B1C" offset="100%"></stop>
        </linearGradient>
    </defs>
    <g id="商品详情" stroke="none" stroke-width="1" fill="none" fill-rule="evenodd" transform="translate(-370.000000, -38.000000)">
        <g id="Group-2" fill="url(#linearGradient-1)" fill-rule="nonzero">
            <path d="M374.254492,57.5536026 C373.121543,57.5536026 372.203775,58.5488148 372.203775,59.7762092 C372.203775,61.0036035 373.121543,62 374.254492,62 C375.386617,62 376.304523,61.0035765 376.304523,59.7762092 C376.30455,58.5488149 375.386645,57.5536026 374.254492,57.5536026 Z M385.674441,57.5536026 C384.541602,57.5536026 383.623889,58.5488148 383.623889,59.7762092 C383.623889,61.0036035 384.541602,62 385.674441,62 C386.806758,62 387.724444,61.0035765 387.724444,59.7762092 C387.724472,58.5488149 386.806786,57.5536026 385.674441,57.5536026 Z M377.263398,38.2670122 C376.908683,37.8292146 376.520253,37.9274062 376.35511,38.5791364 C376.173068,39.3010381 375.581217,39.5104757 375.042372,39.0415626 C374.500476,38.5736454 374.084843,38.8038357 374.115701,39.5527615 C374.14807,40.3008799 373.642858,40.6971991 372.99671,40.4354895 C372.349244,40.1689081 372.018765,40.5270058 372.262578,41.2289623 C372.506309,41.9297075 372.14074,42.4756826 371.450408,42.4414986 C370.760379,42.4087681 370.547588,42.8602124 370.979187,43.446024 C371.412351,44.0310819 371.218438,44.6720186 370.55193,44.8698821 C369.885119,45.0689569 369.811808,45.569793 370.390441,45.9828004 C370.96597,46.3929546 370.96597,47.070121 370.390441,47.4811097 C369.854399,47.8645896 369.901469,48.312777 370.43894,48.535646 L380.58418,48.535646 L377.263398,38.2670122 Z M392.259785,43.5597733 C391.465449,43.5597733 390.82378,44.1486534 390.615963,44.9384655 C387.235691,46.2848309 387.296473,50.137261 387.296473,50.137261 L370.494446,50.137261 C370.725069,54.718564 374.82208,58.3702505 379.855901,58.3702505 C384.866146,58.3702505 388.944032,54.7535824 389.211531,50.204983 L389.227441,50.2055482 C389.171742,48.1005131 390.60772,47.0654913 391.051491,46.7956261 C391.364906,47.1250577 391.788426,47.3320728 392.259813,47.3320728 C393.221821,47.3320728 394,46.4881585 394,45.4464075 C393.999973,44.4042529 393.221766,43.5597733 392.259785,43.5597733 Z" id="加入购物车icon"></path>
        </g>
    </g>
</svg>