<?xml version="1.0" encoding="UTF-8" standalone="no"?>
<svg width="16px" height="18px" viewBox="0 0 16 18" version="1.1" xmlns="http://www.w3.org/2000/svg" xmlns:xlink="http://www.w3.org/1999/xlink">
    <!-- Generator: Sketch 48.2 (47327) - http://www.bohemiancoding.com/sketch -->
    <title>反馈@1x</title>
    <desc>Created with Sketch.</desc>
    <defs></defs>
    <g id="新-我的" stroke="none" stroke-width="1" fill="none" fill-rule="evenodd" transform="translate(-325.000000, -208.000000)">
        <g id="Group-9" transform="translate(0.000000, 192.000000)" fill="#000000" fill-rule="nonzero">
            <g id="Group" transform="translate(325.000000, 15.000000)">
                <g id="反馈" transform="translate(0.000000, 1.000000)">
                    <path d="M12.8811029,17.1293924 L1.85573918,17.1293924 C0.841761263,17.1293924 0.0187272344,16.3063583 0.0187272344,15.2923804 L0.0187272344,3.04563418 C0.0187272344,2.03165627 0.841761263,1.20862224 1.85573918,1.20862224 L10.4284616,1.20862224 C10.7675516,1.20862224 11.0407989,1.48186953 11.0407989,1.82095956 C11.0407989,2.16004959 10.7675516,2.43329688 10.4284616,2.43329688 L1.85573918,2.43329686 C1.5199413,2.43329686 1.24340186,2.70983629 1.24340186,3.04563418 L1.24340186,15.2923804 C1.24340186,15.6314704 1.51994128,15.9047177 1.85573918,15.9047177 L12.8778108,15.9047177 C13.2169008,15.9047177 13.4901481,15.6314704 13.4901481,15.2923804 L13.4901481,5.49169129 C13.4901481,5.15260128 13.7633954,4.87935397 14.1024854,4.87935397 C14.4415754,4.87935397 14.7148228,5.15260126 14.7148228,5.49169129 L14.7148228,15.2890883 C14.7181149,16.3030662 13.8917887,17.1293924 12.8811029,17.1293924 Z" id="Shape"></path>
                    <path d="M9.28279818,7.32870323 C9.12477566,7.32870323 8.97004524,7.26944478 8.84823621,7.14763575 C8.60791028,6.90730982 8.60791028,6.52212989 8.84823621,6.28180396 L14.9353958,0.197936459 C15.1757218,-0.0423894737 15.5609017,-0.0423894737 15.8012276,0.197936459 C16.0415536,0.438262392 16.0415536,0.823442316 15.8012276,1.06376825 L9.71406802,7.15092789 C9.59555112,7.26944478 9.43752857,7.32870323 9.28279818,7.32870323 Z" id="Shape"></path>
                    <path d="M6.75443767,7.32870323 L3.0804138,7.32870323 C2.74132379,7.32870323 2.46807648,7.05545594 2.46807648,6.71636591 C2.46807648,6.37727589 2.74132377,6.10402859 3.0804138,6.10402859 L6.75443767,6.10402861 C7.09352767,6.10402861 7.36677499,6.3772759 7.36677499,6.71636593 C7.36677499,7.05545594 7.09352769,7.32870323 6.75443767,7.32870323 Z" id="Shape"></path>
                    <path d="M10.4317537,11.0027271 L3.0804138,11.0027271 C2.74132379,11.0027271 2.46807648,10.7294798 2.46807648,10.3903898 C2.46807648,10.0512998 2.74132377,9.77805246 3.0804138,9.77805246 L10.4284616,9.77805246 C10.7675516,9.77805246 11.0407989,10.0512998 11.0407989,10.3903898 C11.0407989,10.7294798 10.7675516,11.0027271 10.4317537,11.0027271 Z" id="Shape"></path>
                </g>
            </g>
        </g>
    </g>
</svg>