<?xml version="1.0" encoding="UTF-8" standalone="no"?>
<svg width="58px" height="58px" viewBox="0 0 58 58" version="1.1" xmlns="http://www.w3.org/2000/svg" xmlns:xlink="http://www.w3.org/1999/xlink">
    <!-- Generator: Sketch 48.2 (47327) - http://www.bohemiancoding.com/sketch -->
    <title>品牌精选@1x</title>
    <desc>Created with Sketch.</desc>
    <defs>
        <linearGradient x1="47.3955341%" y1="10.3940351%" x2="47.3955333%" y2="100%" id="linearGradient-1">
            <stop stop-color="#6D88FC" offset="0%"></stop>
            <stop stop-color="#8279FE" offset="48.2760682%"></stop>
            <stop stop-color="#AB71FF" offset="100%"></stop>
        </linearGradient>
        <circle id="path-2" cx="25" cy="25" r="25"></circle>
        <filter x="-14.0%" y="-10.0%" width="128.0%" height="128.0%" filterUnits="objectBoundingBox" id="filter-3">
            <feOffset dx="0" dy="2" in="SourceAlpha" result="shadowOffsetOuter1"></feOffset>
            <feGaussianBlur stdDeviation="2" in="shadowOffsetOuter1" result="shadowBlurOuter1"></feGaussianBlur>
            <feColorMatrix values="0 0 0 0 0   0 0 0 0 0   0 0 0 0 0  0 0 0 0.12 0" type="matrix" in="shadowBlurOuter1"></feColorMatrix>
        </filter>
        <linearGradient x1="47.3955341%" y1="10.3940351%" x2="47.3955333%" y2="100%" id="linearGradient-4">
            <stop stop-color="#FFFFFF" stop-opacity="0.7" offset="0%"></stop>
            <stop stop-color="#FFFFFF" offset="100%"></stop>
        </linearGradient>
        <path d="M40.9547382,19.7888126 C41.0678069,20.5918162 40.9739386,21.3777347 40.6176655,22.1123976 C40.2336585,22.8961805 39.5659131,23.3040892 38.727498,23.4279568 C38.3648248,23.481348 37.9872179,23.4578559 37.6181446,23.4429063 C37.4773421,23.4364994 37.4218744,23.4599915 37.3770736,23.596673 C36.5727924,26.1829428 35.7642445,28.7692125 34.9620966,31.3554823 C34.9151625,31.5071133 34.855428,31.5540975 34.6954252,31.5540975 C28.1950411,31.5498262 21.6967903,31.5498262 15.1964063,31.5540975 C15.0449369,31.5540975 14.9873358,31.5092489 14.942535,31.3640249 C14.1553208,28.8161968 13.3617064,26.2705043 12.5766256,23.7226762 C12.5254247,23.5646383 12.4720904,23.5048401 12.2907538,23.517654 C11.7659443,23.5560957 11.2454015,23.5048401 10.7440592,23.329717 C9.75630798,22.9794707 9.22723176,22.2469435 9.06082875,21.2431889 C8.95416016,20.5939519 8.98189399,19.9383079 9.19096444,19.3040205 C9.51737033,18.3130798 10.2256498,17.7642183 11.2326013,17.601909 C11.8939466,17.4951266 12.5595586,17.5399752 13.18677,17.8090669 C14.1041199,18.2020261 14.6118624,18.9409603 14.8550668,19.8806454 C15.051337,20.6409361 14.9446684,21.3691921 14.5414611,22.0397856 C14.4305258,22.2234513 14.2619894,22.370811 14.1083866,22.5502055 C15.3990766,24.1519415 16.7068335,25.7793053 18.0444577,27.4408394 C18.6866026,24.4722887 19.3223475,21.5443153 19.9538255,18.6312913 C19.6572868,18.5415941 19.3799485,18.4839316 19.1218105,18.3750136 C18.5884675,18.1507705 18.2193942,17.7385905 17.9697897,17.2260349 C17.6455172,16.5597128 17.4769808,15.8592202 17.5857827,15.1117434 C17.7095183,14.2510773 18.2001938,13.6573671 18.9895414,13.324206 C19.8386234,12.9675528 20.7239728,12.9077546 21.6178556,13.1319977 C22.5202719,13.3626477 23.0984157,13.9584935 23.3544203,14.8405161 C23.6274919,15.7802012 23.4802892,16.6750378 22.9234792,17.4887197 C22.7378758,17.7620826 22.6034734,17.8389659 22.0402632,18.1123289 C22.8808117,20.3889297 23.7234936,22.6655305 24.5768424,24.9827086 C25.7245964,22.6698018 26.8552835,20.393201 27.9923707,18.0973793 C27.8857021,18.0482594 27.7811669,18.0055465 27.6808984,17.9542909 C27.2990249,17.7514044 27.0174198,17.4481423 26.8296831,17.0594544 C26.5075439,16.3867253 26.4094088,15.6798258 26.5822119,14.9494342 C26.7934157,14.0652759 27.3672928,13.4993291 28.2185082,13.2174236 C29.1763921,12.8949408 30.1300093,12.941925 31.0473593,13.3562407 C31.9945764,13.785506 32.4511179,14.5671532 32.4809851,15.5901286 C32.5151191,16.8587035 31.8452403,17.6916062 30.7678875,18.251146 C30.5374834,18.3707423 30.2900122,18.4583039 30.0340076,18.5693576 C30.5033494,21.5208231 30.9705579,24.4829669 31.4462998,27.4792811 C32.9737941,25.81134 34.4735545,24.1711623 35.9818484,22.522442 C35.962648,22.5010856 35.9498478,22.4797291 35.9285141,22.4647796 C35.5146399,22.1615175 35.279969,21.7407949 35.1861007,21.2495958 C35.0431648,20.4807625 35.0815655,19.7204718 35.3845043,18.9964872 C35.7365106,18.1464992 36.4149229,17.6894706 37.3088057,17.5826882 C38.0874864,17.4908553 38.8576337,17.5762812 39.57658,17.9137136 C40.3723277,18.2853164 40.8310027,18.9260108 40.9547382,19.7888126 Z M15.017203,37 C15.017203,35.5221316 15.017203,34.0463988 15.017203,32.5663947 C21.6519895,32.5663947 28.2803759,32.5663947 34.9194292,32.5663947 C34.9194292,34.0421275 34.9194292,35.5157246 34.9194292,37 C28.2889094,37 21.6583896,37 15.017203,37 Z" id="path-5"></path>
        <filter x="-21.9%" y="-20.8%" width="143.8%" height="158.3%" filterUnits="objectBoundingBox" id="filter-6">
            <feOffset dx="0" dy="2" in="SourceAlpha" result="shadowOffsetOuter1"></feOffset>
            <feGaussianBlur stdDeviation="2" in="shadowOffsetOuter1" result="shadowBlurOuter1"></feGaussianBlur>
            <feColorMatrix values="0 0 0 0 0   0 0 0 0 0   0 0 0 0 0  0 0 0 0.12 0" type="matrix" in="shadowBlurOuter1"></feColorMatrix>
        </filter>
    </defs>
    <g id="首页" stroke="none" stroke-width="1" fill="none" fill-rule="evenodd" transform="translate(-226.000000, -278.000000)">
        <g id="分类" transform="translate(35.000000, 280.000000)">
            <g id="Group-9" transform="translate(192.000000, 0.000000)">
                <g id="品牌精选" transform="translate(3.000000, 0.000000)">
                    <g id="Oval-2-Copy-2">
                        <use fill="black" fill-opacity="1" filter="url(#filter-3)" xlink:href="#path-2"></use>
                        <use fill="url(#linearGradient-1)" fill-rule="evenodd" xlink:href="#path-2"></use>
                    </g>
                    <g id="Combined-Shape" fill-rule="nonzero">
                        <use fill="black" fill-opacity="1" filter="url(#filter-6)" xlink:href="#path-5"></use>
                        <use fill="url(#linearGradient-4)" fill-rule="evenodd" xlink:href="#path-5"></use>
                    </g>
                </g>
            </g>
        </g>
    </g>
</svg>