<?xml version="1.0" encoding="UTF-8" standalone="no"?>
<svg width="17px" height="17px" viewBox="0 0 17 17" version="1.1" xmlns="http://www.w3.org/2000/svg" xmlns:xlink="http://www.w3.org/1999/xlink">
    <!-- Generator: Sketch 48.2 (47327) - http://www.bohemiancoding.com/sketch -->
    <title>圆形选中@1x</title>
    <desc>Created with Sketch.</desc>
    <defs>
        <linearGradient x1="0%" y1="0%" x2="100%" y2="100%" id="linearGradient-1">
            <stop stop-color="#FD4A70" offset="0%"></stop>
            <stop stop-color="#F76B1C" offset="100%"></stop>
        </linearGradient>
    </defs>
    <g id="新-进货单" stroke="none" stroke-width="1" fill="none" fill-rule="evenodd" transform="translate(-10.000000, -647.000000)">
        <g id="Group-3" transform="translate(-2.000000, 630.000000)" fill="url(#linearGradient-1)" fill-rule="nonzero">
            <g id="圆形选中" transform="translate(12.000000, 17.000000)">
                <path d="M8.5,17 C3.81285714,17 0,13.1871429 0,8.5 C0,3.81285714 3.81285714,0 8.5,0 C13.1871429,0 17,3.81285714 17,8.5 C17,13.1871429 13.1871429,17 8.5,17 Z M8.5,1.21973103 C4.48557143,1.21973103 1.21973103,4.48557143 1.21973103,8.5 C1.21973103,12.5138214 4.48557143,15.780269 8.5,15.780269 C12.5138214,15.780269 15.780269,12.5138404 15.780269,8.5 C15.780269,4.48557143 12.5138214,1.21973103 8.5,1.21973103 Z" id="Shape"></path>
                <path d="M12.5788047,6.24567857 C12.3408047,6.00951897 11.9558761,6.01192857 11.7203047,6.25053571 L7.29423326,10.7251786 L5.33498326,8.71189286 C5.10062612,8.47085714 4.71630469,8.46660714 4.47648326,8.69975 C4.23605469,8.9335 4.2305904,9.31842857 4.4643404,9.55825 L6.85528795,12.0153382 C6.85650223,12.0171786 6.85894978,12.0171786 6.86014509,12.019 C6.86135937,12.0201953 6.86198549,12.0226618 6.8631808,12.0238571 C6.9014308,12.0615 6.94878795,12.0845714 6.99373549,12.1100904 C7.01739509,12.1228594 7.03623549,12.1440904 7.06052121,12.1537857 C7.13398549,12.1841429 7.21230692,12.1993214 7.29002121,12.1993214 C7.36714732,12.1993214 7.44423549,12.1841429 7.51707366,12.155 C7.54075223,12.1452667 7.55900446,12.1258571 7.58144978,12.1137143 C7.62698549,12.0882143 7.67432366,12.065731 7.71319978,12.027481 C7.71441406,12.0262667 7.71502121,12.0238192 7.71686161,12.0226239 C7.71805692,12.0207835 7.71989732,12.0201953 7.72171875,12.0189621 L12.5831116,7.10472879 C12.8192143,6.86557143 12.8167857,6.48126897 12.5788047,6.24567857 Z" id="Shape"></path>
            </g>
        </g>
    </g>
</svg>