<?xml version="1.0" encoding="UTF-8" standalone="no"?>
<svg width="17px" height="17px" viewBox="0 0 17 17" version="1.1" xmlns="http://www.w3.org/2000/svg" xmlns:xlink="http://www.w3.org/1999/xlink">
    <!-- Generator: Sketch 48.2 (47327) - http://www.bohemiancoding.com/sketch -->
    <title>圆形未选中@1x</title>
    <desc>Created with Sketch.</desc>
    <defs></defs>
    <g id="新-进货单" stroke="none" stroke-width="1" fill="none" fill-rule="evenodd" transform="translate(-10.000000, -647.000000)">
        <g id="Group-3" transform="translate(-2.000000, 630.000000)" fill="#999999" fill-rule="nonzero">
            <g id="圆形未选中" transform="translate(12.000000, 17.000000)">
                <path d="M8.5,17 C3.81285714,17 0,13.1871429 0,8.5 C0,3.81285714 3.81285714,0 8.5,0 C13.1871429,0 17,3.81285714 17,8.5 C17,13.1871429 13.1871429,17 8.5,17 Z M8.5,1.21973103 C4.48557143,1.21973103 1.21973103,4.48557143 1.21973103,8.5 C1.21973103,12.5138214 4.48557143,15.780269 8.5,15.780269 C12.5138214,15.780269 15.780269,12.5138404 15.780269,8.5 C15.780269,4.48557143 12.5138214,1.21973103 8.5,1.21973103 Z" id="Shape"></path>
            </g>
        </g>
    </g>
</svg>