<?xml version="1.0" encoding="UTF-8" standalone="no"?>
<svg width="24px" height="23px" viewBox="0 0 24 23" version="1.1" xmlns="http://www.w3.org/2000/svg" xmlns:xlink="http://www.w3.org/1999/xlink">
    <!-- Generator: Sketch 48.2 (47327) - http://www.bohemiancoding.com/sketch -->
    <title>客服 (1)@1x</title>
    <desc>Created with Sketch.</desc>
    <defs></defs>
    <g id="新-我的" stroke="none" stroke-width="1" fill="none" fill-rule="evenodd" transform="translate(-375.000000, -39.000000)">
        <g id="Group-7-Copy">
            <g id="Group-6" transform="translate(10.000000, 33.000000)">
                <g id="客服-(1)" transform="translate(360.000000, 0.000000)">
                    <rect id="Rectangle-4" x="0" y="0" width="34" height="34"></rect>
                    <path d="M27.5,15.2308633 C26.6,9.91138273 22.25,6 17,6 C11.75,6 7.4,10.067838 6.5,15.2308633 C5.6,16.0131398 5,17.4212376 5,18.8293354 C5,20.7067991 6.05,22.8971734 7.7,22.8971734 C9.2,22.8971734 9.2,21.176165 9.2,18.8293354 C9.2,16.638961 9.2,14.9179526 8.15,14.7614973 C9.05,10.537204 12.65,7.40809778 17,7.40809778 C21.35,7.40809778 24.95,10.537204 25.85,14.605042 C24.8,14.9179526 24.8,16.4825057 24.8,18.6728801 C24.8,20.2374332 24.8,21.3326203 25.1,22.1148969 C23.75,24.3052712 21.8,25.8698243 19.4,26.4956455 C18.95,25.8698243 18.05,25.4004584 17,25.4004584 C15.5,25.4004584 14.3,26.1827349 14.3,27.1214668 C14.3,28.0601986 15.5,28.8424752 17,28.8424752 C18.5,28.8424752 19.7,28.0601986 19.7,27.1214668 C19.7,27.1214668 19.7,27.1214668 19.7,27.1214668 C22.1,26.4956455 24.2,24.7746371 25.55,22.5842628 C25.7,22.7407181 26,22.7407181 26.3,22.7407181 C27.95,22.7407181 29,20.5503438 29,18.6728801 C29,17.4212376 28.4,16.0131398 27.5,15.2308633 Z" id="Shape" fill="#FFFFFF" fill-rule="nonzero"></path>
                </g>
            </g>
        </g>
    </g>
</svg>