<?xml version="1.0" encoding="UTF-8" standalone="no"?>
<svg width="14px" height="8px" viewBox="0 0 14 8" version="1.1" xmlns="http://www.w3.org/2000/svg" xmlns:xlink="http://www.w3.org/1999/xlink">
    <!-- Generator: Sketch 48.2 (47327) - http://www.bohemiancoding.com/sketch -->
    <title>展开icon@1x</title>
    <desc>Created with Sketch.</desc>
    <defs></defs>
    <g id="首页-优惠券-可领取" stroke="none" stroke-width="1" fill="none" fill-rule="evenodd" transform="translate(-380.000000, -286.000000)">
        <g id="券" transform="translate(10.000000, 150.000000)">
            <g id="展开icon" transform="translate(365.000000, 128.000000)">
                <path d="M16,11.9993495 L9.1586225,5.26536391 C9.00907945,5.1181683 8.76907177,5.11826772 8.61965073,5.26558718 L8.27885562,5.60158906 C8.12783602,5.75048459 8.12611412,5.99361385 8.27500966,6.14463345 C8.27634879,6.14599168 8.27769802,6.14733992 8.27905724,6.14867805 L14.2219467,11.9993495 L8.27810189,17.8522043 C8.12698838,18.0010046 8.12511308,18.2441327 8.27391331,18.3952462 C8.27537397,18.3967296 8.27684667,18.398201 8.27833126,18.3996604 L8.61963188,18.7351735 C8.76912249,18.8821291 9.00884433,18.8820412 9.15822713,18.734976 L16,11.9993495 Z" id="Shape-Copy-5" fill="#999999" transform="translate(12.000000, 12.000000) rotate(-270.000000) translate(-12.000000, -12.000000) "></path>
                <rect id="Rectangle-7" x="0" y="0" width="24" height="24"></rect>
            </g>
        </g>
    </g>
</svg>