<?xml version="1.0" encoding="UTF-8" standalone="no"?>
<svg width="24px" height="24px" viewBox="0 0 24 24" version="1.1" xmlns="http://www.w3.org/2000/svg" xmlns:xlink="http://www.w3.org/1999/xlink">
    <!-- Generator: Sketch 48.2 (47327) - http://www.bohemiancoding.com/sketch -->
    <title>我的-icon@1x</title>
    <desc>Created with Sketch.</desc>
    <defs></defs>
    <g id="首页" stroke="none" stroke-width="1" fill="none" fill-rule="evenodd" transform="translate(-352.000000, -688.000000)">
        <g id="bottom" transform="translate(0.000000, 680.000000)" fill="#CCCCCC" fill-rule="nonzero">
            <g id="我的-icon" transform="translate(352.000000, 8.000000)">
                <path d="M23.8793296,13.9407821 C24.2413408,15.1776536 23.5877095,16.5050279 22.4078212,16.9005587 L22.3776536,16.9106145 C22.6692737,18.7106145 21.6636872,20.5173184 19.9709497,21.1072626 C19.8234637,21.8782123 19.1932961,22.4547486 18.4357542,22.4547486 C18.3251397,22.4547486 18.2145251,22.4413408 18.1106145,22.4178771 C17.9463687,22.7363128 17.6681564,22.9944134 17.3162011,23.1150838 C16.8067039,23.2893855 16.273743,23.1351955 15.9284916,22.7597765 C15.6536313,23.2357542 15.1608939,23.550838 14.6011173,23.550838 C14.2324022,23.550838 13.8938547,23.4134078 13.6256983,23.1821229 C13.350838,23.6715084 12.8547486,23.996648 12.2849162,23.996648 C11.6178771,23.996648 11.0513966,23.550838 10.8234637,22.9206704 C10.5687151,23.1050279 10.2636872,23.2156425 9.93519553,23.2156425 C9.51620112,23.2156425 9.13743017,23.0379888 8.85586592,22.7497207 C8.45698324,23.0446927 7.97765363,23.2156425 7.45810056,23.2156425 C6.27150838,23.2156425 5.28268156,22.3206704 5.03798883,21.1240223 C4.84692737,21.2145251 4.63575419,21.2648045 4.41452514,21.2648045 C3.54636872,21.2648045 2.84581006,20.5106145 2.84581006,19.5787709 C2.84581006,19.5251397 2.84916201,19.4748603 2.85251397,19.424581 C1.65921788,19.2335196 0.740782123,18.1240223 0.740782123,16.7865922 C0.740782123,16.0726257 1.00223464,15.4256983 1.42458101,14.9463687 C1.49832402,14.8458101 1.58547486,14.7553073 1.68938547,14.6882682 C1.75307263,14.6346369 1.81675978,14.5843575 1.88715084,14.5374302 C0.975418994,14.1452514 0.32849162,13.1832402 0.32849162,12.0603352 C0.32849162,11.3564246 0.583240223,10.7128492 0.998882682,10.2368715 C0.415642458,9.98882682 0.00335195531,9.37877095 0.00335195531,8.66480447 C0.00335195531,7.83687151 0.559776536,7.14636872 1.29385475,7.00558659 C1.14972067,6.80111732 1.03240223,6.56648045 0.955307263,6.30502793 C0.589944134,5.06815642 1.24692737,3.74078212 2.42011173,3.33854749 C2.86927374,3.18435754 3.32849162,3.1877095 3.74413408,3.32178771 C3.78435754,2.74860335 4.14972067,2.22569832 4.69944134,2.03798883 C5.06145251,1.91396648 5.43687151,1.96089385 5.74860335,2.13184358 C6.16089385,1.24692737 6.90167598,0.532960894 7.85698324,0.204469274 C8.94301676,-0.167597765 10.0692737,0.0469273743 10.9340782,0.680446927 C11.101676,0.559776536 11.2893855,0.462569832 11.4938547,0.392178771 C12.5128492,0.043575419 13.5854749,0.506145251 14.0916201,1.44469274 C14.4368715,1.1396648 14.8391061,0.894972067 15.2949721,0.740782123 C17.0681564,0.134078212 18.9486034,1.08603352 19.6156425,2.87597765 C19.7363128,2.8424581 19.8636872,2.82569832 19.9910615,2.82569832 C20.8592179,2.82569832 21.5597765,3.57988827 21.5597765,4.51173184 L21.5597765,4.56536313 L21.5731844,4.56536313 C22.1061453,4.56536313 22.5351955,5.02793296 22.5351955,5.59776536 C22.5351955,5.85251397 22.4513966,6.08379888 22.3106145,6.26480447 C22.8,6.55307263 23.1318436,7.10949721 23.1318436,7.74972067 C23.1318436,8.11173184 23.027933,8.44692737 22.8469274,8.72178771 C23.2290503,8.85921788 23.5005587,9.24469274 23.5005587,9.70055866 C23.5005587,9.96871508 23.4067039,10.2100559 23.252514,10.3944134 C23.2994413,10.4949721 23.3363128,10.5988827 23.3698324,10.7094972 C23.5810056,11.4268156 23.4469274,12.1743017 23.0715084,12.7541899 C23.4435754,13.0357542 23.7318436,13.4446927 23.8793296,13.9407821 Z M12.0134078,4.02234637 C10.9173184,4.02234637 9.8547486,4.23687151 8.85586592,4.65921788 C7.89050279,5.06815642 7.02234637,5.6547486 6.27821229,6.39888268 C5.53072626,7.14301676 4.94748603,8.01117318 4.53854749,8.97653631 C4.11620112,9.97541899 3.90167598,11.0379888 3.90167598,12.1340782 C3.90167598,13.2301676 4.11620112,14.2927374 4.53854749,15.2916201 C4.94748603,16.2569832 5.53407821,17.1251397 6.27821229,17.8692737 C7.02234637,18.6167598 7.89050279,19.2 8.85586592,19.6089385 C9.8547486,20.0312849 10.9173184,20.2458101 12.0134078,20.2458101 C13.1094972,20.2458101 14.172067,20.0312849 15.1709497,19.6089385 C16.1363128,19.2 17.0044693,18.6134078 17.7486034,17.8692737 C18.4960894,17.1251397 19.0793296,16.2569832 19.4882682,15.2916201 C19.9106145,14.2927374 20.1251397,13.2301676 20.1251397,12.1340782 C20.1251397,11.0379888 19.9106145,9.97541899 19.4882682,8.97653631 C19.0793296,8.01117318 18.4927374,7.14301676 17.7486034,6.39888268 C17.0044693,5.65139665 16.1363128,5.06815642 15.1709497,4.65921788 C14.172067,4.23687151 13.1094972,4.02234637 12.0134078,4.02234637 Z M6.84804469,3.41899441 C6.14413408,3.41899441 5.57430168,3.98882682 5.57094972,4.69273743 C5.57094972,5.14189944 5.80558659,5.53743017 6.16089385,5.76536313 C6.73743017,5.23575419 7.3877095,4.78324022 8.09162011,4.42458101 C7.97094972,3.85139665 7.45810056,3.41899441 6.84804469,3.41899441 Z M17.1486034,3.41899441 C16.5418994,3.41899441 16.0324022,3.84134078 15.9083799,4.41117318 C16.6189944,4.7698324 17.2726257,5.22234637 17.852514,5.75530726 C18.1944134,5.5273743 18.4223464,5.13519553 18.4223464,4.69273743 C18.4223464,3.98882682 17.852514,3.41899441 17.1486034,3.41899441 Z" id="Combined-Shape"></path>
                <path d="M8.94972067,0.563128492 C9.54972067,0.563128492 10.126257,0.754189944 10.6223464,1.11620112 C10.7162011,1.18659218 10.8268156,1.22011173 10.9407821,1.22011173 C11.0480447,1.22011173 11.1586592,1.18659218 11.249162,1.12290503 C11.3832402,1.02905028 11.5240223,0.955307263 11.6748603,0.905027933 C11.8424581,0.848044693 12.0167598,0.817877095 12.1910615,0.817877095 C12.7843575,0.817877095 13.3340782,1.15642458 13.6290503,1.70614525 C13.7061453,1.85027933 13.8469274,1.95083799 14.0078212,1.98100559 C14.0379888,1.9877095 14.0715084,1.9877095 14.101676,1.9877095 C14.2324022,1.9877095 14.3597765,1.94078212 14.4569832,1.85027933 C14.7586592,1.58212291 15.1005587,1.38100559 15.4759777,1.25027933 C15.7743017,1.14972067 16.0826816,1.09608939 16.3910615,1.09608939 C16.9743017,1.09608939 17.5374302,1.27709497 18.0234637,1.62234637 C18.5195531,1.97430168 18.898324,2.47374302 19.1195531,3.06368715 C19.2,3.27821229 19.4044693,3.4122905 19.6223464,3.4122905 C19.6692737,3.4122905 19.7128492,3.40558659 19.7597765,3.39553073 C19.8368715,3.37541899 19.9173184,3.36536313 19.9977654,3.36536313 C20.5675978,3.36536313 21.0301676,3.88156425 21.0301676,4.5150838 L21.0301676,4.55195531 C21.0268156,4.69944134 21.0804469,4.84022346 21.1843575,4.94413408 C21.2849162,5.04804469 21.4223464,5.10502793 21.5664804,5.10502793 L21.5832402,5.10502793 C21.8145251,5.10837989 22.0022346,5.32960894 22.0022346,5.60111732 C22.0022346,5.72513966 21.9620112,5.8424581 21.8916201,5.93631285 C21.7944134,6.05698324 21.7575419,6.21452514 21.7877095,6.36871508 C21.8178771,6.51955307 21.9117318,6.65363128 22.0424581,6.73072626 C22.3843575,6.93184358 22.5988827,7.32067039 22.5988827,7.74972067 C22.5988827,7.99441341 22.5318436,8.22905028 22.4011173,8.42681564 C22.3106145,8.56424581 22.2905028,8.73519553 22.3407821,8.88938547 C22.3910615,9.04357542 22.5117318,9.16759777 22.6659218,9.22458101 C22.8435754,9.28826816 22.9642458,9.48603352 22.9642458,9.70055866 C22.9642458,9.83128492 22.9206704,9.95530726 22.8435754,10.049162 C22.7094972,10.2067039 22.6793296,10.427933 22.7664804,10.6156425 C22.803352,10.6960894 22.8335196,10.7765363 22.8569832,10.8603352 C23.0178771,11.403352 22.9340782,11.9865922 22.6256983,12.4592179 C22.4715084,12.6938547 22.5284916,13.0089385 22.7497207,13.1765363 C23.0446927,13.4011173 23.2592179,13.7162011 23.3664804,14.0882682 C23.6513966,15.0502793 23.1486034,16.0826816 22.2469274,16.3944134 L22.2435754,16.3944134 C22.2368715,16.3977654 22.2268156,16.3977654 22.2201117,16.4011173 C21.9687151,16.4815642 21.8145251,16.7363128 21.8581006,16.9977654 C21.9787709,17.7519553 21.8379888,18.5363128 21.4625698,19.2 C21.0837989,19.8636872 20.4972067,20.3631285 19.8067039,20.6044693 C19.6256983,20.6681564 19.4916201,20.8223464 19.4547486,21.0100559 C19.3541899,21.5363128 18.9284916,21.9217877 18.4458101,21.9217877 C18.375419,21.9217877 18.3083799,21.9150838 18.2379888,21.898324 C18.1977654,21.8882682 18.1575419,21.8849162 18.1173184,21.8849162 C17.9195531,21.8849162 17.7318436,21.9955307 17.6413408,22.1765363 C17.5340782,22.3843575 17.3597765,22.5418994 17.1519553,22.6122905 C17.0715084,22.6391061 16.9877095,22.6558659 16.9039106,22.6558659 C16.6927374,22.6558659 16.4849162,22.5620112 16.3340782,22.4011173 C16.2335196,22.2905028 16.0893855,22.2301676 15.9418994,22.2301676 C15.9217877,22.2301676 15.901676,22.2301676 15.8815642,22.2335196 C15.7139665,22.2536313 15.5631285,22.350838 15.4759777,22.4949721 C15.2849162,22.8234637 14.9597765,23.0212291 14.6111732,23.0212291 C14.3832402,23.0212291 14.1653631,22.9374302 13.9843575,22.7832402 C13.8871508,22.6994413 13.7631285,22.652514 13.6357542,22.652514 C13.6055866,22.652514 13.575419,22.6558659 13.5418994,22.6592179 C13.3843575,22.6860335 13.2469274,22.7832402 13.1664804,22.9240223 C12.975419,23.2625698 12.6502793,23.4636872 12.2916201,23.4636872 C11.8692737,23.4636872 11.4938547,23.1821229 11.3363128,22.7430168 C11.2793296,22.5854749 11.1486034,22.4614525 10.9877095,22.4111732 C10.9374302,22.3944134 10.8837989,22.3877095 10.8335196,22.3877095 C10.7195531,22.3877095 10.6089385,22.424581 10.5150838,22.4916201 C10.347486,22.6156425 10.1497207,22.6826816 9.94860335,22.6826816 C9.69050279,22.6826816 9.4424581,22.575419 9.25139665,22.3810056 C9.14748603,22.273743 9.00670391,22.2201117 8.86927374,22.2201117 C8.75865922,22.2201117 8.64804469,22.2536313 8.55083799,22.3240223 C8.23240223,22.5586592 7.85698324,22.6826816 7.47150838,22.6826816 C7.02569832,22.6826816 6.60670391,22.5217877 6.26145251,22.2167598 C5.91620112,21.9150838 5.67150838,21.4893855 5.57765363,21.0167598 C5.54413408,20.8558659 5.44022346,20.7184358 5.29273743,20.6446927 C5.21564246,20.6078212 5.13519553,20.5877095 5.05139665,20.5877095 C4.97430168,20.5877095 4.8972067,20.6044693 4.82346369,20.6379888 C4.69608939,20.698324 4.56201117,20.7284916 4.42458101,20.7284916 C3.8547486,20.7284916 3.39217877,20.2122905 3.39217877,19.5787709 C3.39217877,19.5452514 3.39217877,19.5083799 3.39553073,19.4715084 C3.41899441,19.1932961 3.22122905,18.9418994 2.94636872,18.898324 C2.49385475,18.827933 2.07821229,18.5798883 1.77318436,18.2011173 C1.45810056,17.8122905 1.28379888,17.3094972 1.28379888,16.7899441 C1.28379888,16.2335196 1.47821229,15.7072626 1.83351955,15.3050279 C1.84692737,15.2882682 1.8603352,15.2748603 1.87039106,15.2581006 C1.90391061,15.2078212 1.94413408,15.1675978 1.99106145,15.1374302 C2.00782123,15.1273743 2.02458101,15.1139665 2.04134078,15.1005587 C2.09162011,15.0569832 2.1452514,15.0167598 2.19888268,14.9798883 C2.35977654,14.8692737 2.44692737,14.6815642 2.4301676,14.4837989 C2.41005587,14.2893855 2.28938547,14.1217877 2.10837989,14.0446927 C1.75307263,13.8905028 1.44804469,13.6290503 1.22681564,13.2837989 C0.995530726,12.9251397 0.874860335,12.5027933 0.874860335,12.0603352 C0.874860335,11.5106145 1.06592179,10.9877095 1.41452514,10.5888268 C1.52849162,10.4581006 1.57206704,10.2837989 1.53184358,10.1162011 C1.49162011,9.94860335 1.37765363,9.81117318 1.21675978,9.74413408 C0.817877095,9.57653631 0.54972067,9.14413408 0.54972067,8.66815642 C0.54972067,8.10837989 0.908379888,7.62905028 1.40446927,7.53519553 C1.58212291,7.50167598 1.73296089,7.37765363 1.8,7.20670391 C1.86703911,7.03575419 1.84357542,6.84469274 1.7396648,6.6972067 C1.62234637,6.53296089 1.53519553,6.35195531 1.47821229,6.15418994 C1.19329609,5.19217877 1.69944134,4.15642458 2.60111732,3.84804469 C2.76871508,3.79106145 2.94301676,3.76089385 3.11396648,3.76089385 C3.27486034,3.76089385 3.43575419,3.78435754 3.58994413,3.83463687 C3.64357542,3.85139665 3.6972067,3.86145251 3.75418994,3.86145251 C3.86145251,3.86145251 3.96536313,3.83128492 4.05586592,3.76759777 C4.19329609,3.67374302 4.27709497,3.52625698 4.29050279,3.36201117 C4.31731844,2.98659218 4.55530726,2.66145251 4.88379888,2.54748603 C4.96424581,2.52067039 5.04804469,2.50391061 5.13184358,2.50391061 C5.25921788,2.50391061 5.38659218,2.53743017 5.50055866,2.60111732 C5.58100559,2.64469274 5.67150838,2.66815642 5.76201117,2.66815642 C5.81899441,2.66815642 5.8726257,2.65810056 5.92625698,2.64134078 C6.06703911,2.59441341 6.18435754,2.49385475 6.24804469,2.35642458 C6.61675978,1.56536313 7.25363128,0.97877095 8.04469274,0.710614525 C8.33296089,0.616759777 8.64134078,0.563128492 8.94972067,0.563128492 Z M8.94972067,0.0268156425 C8.59106145,0.0268156425 8.22234637,0.087150838 7.8603352,0.207821229 C6.90502793,0.536312849 6.16424581,1.25027933 5.75195531,2.13519553 C5.56089385,2.02793296 5.34636872,1.97094972 5.12513966,1.97094972 C4.98435754,1.97094972 4.84357542,1.99441341 4.7027933,2.04134078 C4.15307263,2.22905028 3.7877095,2.75195531 3.74748603,3.32513966 C3.54301676,3.26145251 3.32849162,3.22458101 3.11061453,3.22458101 C2.88268156,3.22458101 2.65139665,3.26145251 2.42346369,3.33854749 C1.25027933,3.74078212 0.593296089,5.06815642 0.958659218,6.30502793 C1.03575419,6.56648045 1.15307263,6.80111732 1.2972067,7.00558659 C0.563128492,7.14636872 0.00670391061,7.83687151 0.00670391061,8.66480447 C0.00670391061,9.37877095 0.418994413,9.98882682 1.00223464,10.2368715 C0.586592179,10.7128492 0.331843575,11.3564246 0.331843575,12.0603352 C0.331843575,13.1832402 0.97877095,14.1452514 1.89050279,14.5374302 C1.82011173,14.5843575 1.75642458,14.6346369 1.69273743,14.6882682 C1.58882682,14.7553073 1.50167598,14.8458101 1.42793296,14.9463687 C1.00558659,15.4256983 0.744134078,16.0726257 0.744134078,16.7865922 C0.744134078,18.1240223 1.66256983,19.2335196 2.85586592,19.424581 C2.85251397,19.4748603 2.84916201,19.5251397 2.84916201,19.5787709 C2.84916201,20.5106145 3.54972067,21.2648045 4.41787709,21.2648045 C4.63910615,21.2648045 4.85027933,21.2145251 5.04134078,21.1240223 C5.28603352,22.3206704 6.27486034,23.2156425 7.46145251,23.2156425 C7.98100559,23.2156425 8.4603352,23.0446927 8.85921788,22.7497207 C9.14078212,23.0379888 9.51955307,23.2156425 9.93854749,23.2156425 C10.2670391,23.2156425 10.572067,23.1050279 10.8268156,22.9206704 C11.0547486,23.550838 11.6212291,23.996648 12.2882682,23.996648 C12.8581006,23.996648 13.3541899,23.6715084 13.6290503,23.1821229 C13.8972067,23.4134078 14.2357542,23.550838 14.6044693,23.550838 C15.1642458,23.550838 15.6569832,23.2357542 15.9318436,22.7597765 C16.1832402,23.0312849 16.5318436,23.1888268 16.8972067,23.1888268 C17.0379888,23.1888268 17.1787709,23.1653631 17.3195531,23.1184358 C17.6715084,22.9977654 17.9497207,22.7396648 18.1139665,22.4212291 C18.2178771,22.4446927 18.3284916,22.4581006 18.4391061,22.4581006 C19.196648,22.4581006 19.8268156,21.8815642 19.9743017,21.1106145 C21.6670391,20.5206704 22.6726257,18.7139665 22.3810056,16.9139665 L22.4111732,16.9039106 C23.5843575,16.501676 24.2413408,15.1743017 23.8759777,13.9374302 C23.7284916,13.4413408 23.4402235,13.0324022 23.0681564,12.750838 C23.4435754,12.1709497 23.5776536,11.4234637 23.3664804,10.7061453 C23.3329609,10.5955307 23.2960894,10.4916201 23.249162,10.3910615 C23.403352,10.2067039 23.4972067,9.96536313 23.4972067,9.6972067 C23.4972067,9.24134078 23.2256983,8.85586592 22.8435754,8.71843575 C23.024581,8.44357542 23.1284916,8.10837989 23.1284916,7.74636872 C23.1284916,7.10614525 22.796648,6.54972067 22.3072626,6.26145251 C22.4480447,6.08044693 22.5318436,5.84916201 22.5318436,5.59441341 C22.5318436,5.02458101 22.1027933,4.56201117 21.5698324,4.56201117 L21.5564246,4.56201117 L21.5564246,4.50837989 C21.5564246,3.57653631 20.8558659,2.82234637 19.9877095,2.82234637 C19.8603352,2.82234637 19.7329609,2.83910615 19.6122905,2.8726257 C19.0826816,1.44804469 17.7821229,0.556424581 16.3810056,0.556424581 C16.0223464,0.556424581 15.6536313,0.616759777 15.2916201,0.737430168 C14.8357542,0.891620112 14.4335196,1.13631285 14.0882682,1.44134078 C13.6960894,0.71396648 12.9620112,0.27150838 12.1776536,0.27150838 C11.9497207,0.27150838 11.7184358,0.308379888 11.4905028,0.38547486 C11.2860335,0.455865922 11.098324,0.553072626 10.9307263,0.673743017 C10.3608939,0.264804469 9.66703911,0.0268156425 8.94972067,0.0268156425 Z" id="Shape"></path>
                <path d="M12.0134078,4.02234637 C13.1094972,4.02234637 14.172067,4.23687151 15.1709497,4.65921788 C16.1363128,5.06815642 17.0044693,5.65139665 17.7486034,6.39888268 C18.4927374,7.14301676 19.0793296,8.01117318 19.4882682,8.97653631 C19.9106145,9.97541899 20.1251397,11.0379888 20.1251397,12.1340782 C20.1251397,13.2301676 19.9106145,14.2927374 19.4882682,15.2916201 C19.0793296,16.2569832 18.4960894,17.1251397 17.7486034,17.8692737 C17.0044693,18.6134078 16.1363128,19.2 15.1709497,19.6089385 C14.172067,20.0312849 13.1094972,20.2458101 12.0134078,20.2458101 C10.9173184,20.2458101 9.8547486,20.0312849 8.85586592,19.6089385 C7.89050279,19.2 7.02234637,18.6167598 6.27821229,17.8692737 C5.53407821,17.1251397 4.94748603,16.2569832 4.53854749,15.2916201 C4.11620112,14.2927374 3.90167598,13.2301676 3.90167598,12.1340782 C3.90167598,11.0379888 4.11620112,9.97541899 4.53854749,8.97653631 C4.94748603,8.01117318 5.53072626,7.14301676 6.27821229,6.39888268 C7.02234637,5.6547486 7.89050279,5.06815642 8.85586592,4.65921788 C9.8547486,4.23687151 10.9173184,4.02234637 12.0134078,4.02234637 Z M12.0134078,3.48603352 C7.23687151,3.48603352 3.36536313,7.3575419 3.36536313,12.1340782 C3.36536313,16.9106145 7.23687151,20.7821229 12.0134078,20.7821229 C16.7899441,20.7821229 20.6614525,16.9106145 20.6614525,12.1340782 C20.6614525,7.3575419 16.7899441,3.48603352 12.0134078,3.48603352 Z" id="Shape"></path>
                <path d="M8.18882682,9.22458101 C8.18882682,9.55780309 8.45895669,9.82793296 8.79217877,9.82793296 C9.12540085,9.82793296 9.39553073,9.55780309 9.39553073,9.22458101 C9.39553073,8.89135892 9.12540085,8.62122905 8.79217877,8.62122905 C8.45895669,8.62122905 8.18882682,8.89135892 8.18882682,9.22458101 Z" id="Shape"></path>
                <path d="M14.627933,9.22458101 C14.627933,9.55780309 14.8980628,9.82793296 15.2312849,9.82793296 C15.564507,9.82793296 15.8346369,9.55780309 15.8346369,9.22458101 C15.8346369,8.89135892 15.564507,8.62122905 15.2312849,8.62122905 C14.8980628,8.62122905 14.627933,8.89135892 14.627933,9.22458101 Z" id="Shape"></path>
                <path d="M6.84804469,3.41899441 C7.45810056,3.41899441 7.97094972,3.85139665 8.09162011,4.42458101 C7.3877095,4.78324022 6.73743017,5.23575419 6.16089385,5.76536313 C5.80558659,5.53743017 5.57094972,5.14189944 5.57094972,4.69273743 C5.57430168,3.98882682 6.14413408,3.41899441 6.84804469,3.41899441 Z M6.84804469,2.88268156 C5.84916201,2.88268156 5.03798883,3.69385475 5.03798883,4.69273743 C5.03798883,5.31284916 5.34972067,5.88268156 5.8726257,6.21787709 C5.95977654,6.27486034 6.0603352,6.30167598 6.16089385,6.30167598 C6.29162011,6.30167598 6.42234637,6.2547486 6.52290503,6.16089385 C7.06927374,5.66145251 7.67597765,5.23575419 8.33296089,4.90391061 C8.55083799,4.79329609 8.66480447,4.55195531 8.61452514,4.31396648 C8.5273743,3.9150838 8.30614525,3.55307263 7.99106145,3.29162011 C7.6726257,3.02681564 7.26703911,2.88268156 6.84804469,2.88268156 Z" id="Shape"></path>
                <path d="M17.1486034,3.41899441 C17.852514,3.41899441 18.4223464,3.98882682 18.4223464,4.69273743 C18.4223464,5.13519553 18.1944134,5.5273743 17.852514,5.75530726 C17.2726257,5.22234637 16.6189944,4.7698324 15.9083799,4.41117318 C16.0324022,3.84134078 16.5418994,3.41899441 17.1486034,3.41899441 Z M17.1486034,2.88268156 C16.7363128,2.88268156 16.3307263,3.02681564 16.0089385,3.2849162 C15.6938547,3.5396648 15.4692737,3.89832402 15.3821229,4.29385475 C15.3284916,4.53519553 15.4424581,4.77988827 15.6636872,4.89050279 C16.3273743,5.22569832 16.9407821,5.64804469 17.4871508,6.15083799 C17.5877095,6.24469274 17.7184358,6.29162011 17.849162,6.29162011 C17.9530726,6.29162011 18.0536313,6.26145251 18.1441341,6.20111732 C18.6502793,5.86592179 18.9553073,5.29944134 18.9553073,4.69273743 C18.9586592,3.69385475 18.1441341,2.88268156 17.1486034,2.88268156 Z" id="Shape"></path>
                <path d="M12.0134078,13.7162011 C13.3608939,13.7162011 14.6949721,14.0547486 15.8748603,14.6916201 C16.9072626,15.2513966 17.8156425,16.0391061 18.5195531,16.9810056 C17.8156425,17.922905 16.9072626,18.7106145 15.8748603,19.2703911 C14.698324,19.9072626 13.3642458,20.2458101 12.0134078,20.2458101 C10.6625698,20.2458101 9.33184358,19.9072626 8.15195531,19.2703911 C7.11955307,18.7106145 6.21117318,17.922905 5.50726257,16.9810056 C6.21117318,16.0391061 7.11955307,15.2513966 8.15195531,14.6916201 C9.32849162,14.0513966 10.6659218,13.7162011 12.0134078,13.7162011 Z M12.0134078,13.1798883 C9.03351955,13.1798883 6.40558659,14.6882682 4.85027933,16.9810056 C6.40558659,19.273743 9.03351955,20.7821229 12.0134078,20.7821229 C14.9932961,20.7821229 17.6212291,19.273743 19.1765363,16.9810056 C17.6212291,14.6882682 14.9932961,13.1798883 12.0134078,13.1798883 Z" id="Shape"></path>
                <path d="M12.9687151,13.1463687 C12.9687151,13.1430168 12.972067,13.1396648 12.972067,13.1363128 C12.975419,13.126257 12.9787709,13.1195531 12.9821229,13.1094972 L12.9821229,13.1061453 C13.0089385,12.9888268 12.9653631,12.8715084 12.8748603,12.8011173 L12.8446927,12.7810056 C12.8446927,12.7810056 12.8413408,12.7810056 12.8379888,12.7776536 C12.827933,12.7709497 12.8178771,12.7675978 12.8078212,12.7608939 C12.8044693,12.7608939 12.8011173,12.7575419 12.7977654,12.7575419 C12.7877095,12.7541899 12.7810056,12.750838 12.7709497,12.747486 C12.7642458,12.747486 12.7608939,12.7441341 12.7541899,12.7441341 C12.747486,12.7407821 12.7374302,12.7407821 12.7307263,12.7407821 L11.3731844,12.7407821 C11.2122905,12.7407821 11.0949721,12.8614525 11.0748603,12.9988827 C11.0715084,13.0256983 11.0715084,13.049162 11.0748603,13.0759777 C11.0782123,13.1162011 11.0916201,13.1530726 11.1150838,13.1932961 L11.5307263,13.9139665 L11.7653631,14.3162011 L11.7653631,16.2234637 C11.7653631,16.3709497 11.8860335,16.4916201 12.0335196,16.4916201 C12.1810056,16.4916201 12.301676,16.3709497 12.301676,16.2234637 L12.301676,14.3128492 L12.9519553,13.1832402 C12.9553073,13.1731844 12.9620112,13.1597765 12.9687151,13.1463687 Z" id="Shape"></path>
            </g>
        </g>
    </g>
</svg>