<?xml version="1.0" encoding="UTF-8" standalone="no"?>
<svg width="16px" height="16px" viewBox="0 0 16 16" version="1.1" xmlns="http://www.w3.org/2000/svg" xmlns:xlink="http://www.w3.org/1999/xlink">
    <!-- Generator: Sketch 48.2 (47327) - http://www.bohemiancoding.com/sketch -->
    <title>我的-收藏@1x</title>
    <desc>Created with Sketch.</desc>
    <defs></defs>
    <g id="新-我的" stroke="none" stroke-width="1" fill="none" fill-rule="evenodd" transform="translate(-40.000000, -209.000000)">
        <g id="Group-9" transform="translate(0.000000, 192.000000)" fill="#333333" fill-rule="nonzero">
            <g id="待评价" transform="translate(40.000000, 15.000000)">
                <g id="我的-收藏" transform="translate(0.000000, 2.000000)">
                    <path d="M12.5754456,15.9971235 C12.4803297,15.9971235 12.3852137,15.9725775 12.2993025,15.9265536 L7.99453917,13.5394503 L3.68057102,15.9112123 C3.49033914,16.015533 3.25408342,16.00326 3.07612456,15.8774615 C2.89816571,15.751663 2.80611801,15.5338168 2.8429371,15.3190389 L3.68057101,10.241075 L0.176622484,6.635874 C0.029346194,6.48552945 -0.0228141628,6.26154676 0.0446874649,6.06211009 C0.109120838,5.85960519 0.280943197,5.71232888 0.489584606,5.67550981 L3.25408341,5.19993011 C3.56704553,5.14776976 3.86159813,5.35641118 3.91375848,5.66630505 C3.96591884,5.97619892 3.75727741,6.27075152 3.44738355,6.32598013 L1.7506379,6.61746447 L4.69923205,9.6519698 C4.82503056,9.78083657 4.88332743,9.96493192 4.85264487,10.1428908 L4.15921898,14.3464017 L7.71839611,12.3888543 C7.89021845,12.2937383 8.09885988,12.2937383 8.27068222,12.3888543 L11.8237228,14.3586747 L11.1456382,10.1520955 C11.1180239,9.97413669 11.1732525,9.79004131 11.3021193,9.66117455 L14.2384405,6.66042003 L10.2159566,6.04063229 C10.028793,6.01301799 9.86617541,5.89028775 9.78640077,5.71846539 L8.01601696,1.92916905 L6.23029189,5.70619237 C6.09528862,5.99154019 5.75471219,6.11427045 5.46936437,5.97926718 C5.18401655,5.8442639 5.0612863,5.50368747 5.19628957,5.21833966 L7.50054994,0.33981237 C7.59566587,0.140375724 7.79510254,0.0115089588 8.01601698,0.0115089588 C8.01601698,0.0115089588 8.01601698,0.0115089588 8.01601698,0.0115089588 C8.23693142,0.0115089588 8.43943633,0.140375724 8.53148402,0.33981237 L10.6853998,4.95140136 L15.5086985,5.69698761 C15.7204082,5.73073843 15.8952988,5.87801473 15.9628004,6.08051963 C16.0303021,6.28302454 15.9781417,6.50700723 15.8277972,6.66042005 L12.3146439,10.2502797 L13.1338683,15.3313119 C13.1676191,15.5460899 13.0755714,15.7639361 12.8976125,15.8897345 C12.8055648,15.9633727 12.6920393,15.9971235 12.5754456,15.9971235 Z" id="Shape"></path>
                </g>
            </g>
        </g>
    </g>
</svg>