<?xml version="1.0" encoding="UTF-8" standalone="no"?>
<svg width="14px" height="14px" viewBox="0 0 14 14" version="1.1" xmlns="http://www.w3.org/2000/svg" xmlns:xlink="http://www.w3.org/1999/xlink">
    <!-- Generator: Sketch 48.2 (47327) - http://www.bohemiancoding.com/sketch -->
    <title>搜索icon@1x</title>
    <desc>Created with Sketch.</desc>
    <defs></defs>
    <g id="首页" stroke="none" stroke-width="1" fill="none" fill-rule="evenodd" transform="translate(-30.000000, -43.000000)">
        <g id="banner01" fill="#999999">
            <g id="Group-7">
                <g id="Group-6" transform="translate(20.000000, 34.000000)">
                    <g id="搜索">
                        <path d="M20.9312423,18.9221968 L21.4624987,19.3250427 L24,22.0375214 L23.0375013,23 L20.3250027,20.4624786 L19.9182697,19.9343466 C18.8751037,20.7582477 17.5574793,21.25 16.125,21.25 C12.7422559,21.25 10,18.5077441 10,15.125 C10,11.7422559 12.7422559,9 16.125,9 C19.5077441,9 22.25,11.7422559 22.25,15.125 C22.25,16.5592775 21.7570123,17.8784115 20.9312423,18.9221968 Z M16.125,19.5 C18.5412458,19.5 20.5,17.5412458 20.5,15.125 C20.5,12.7087542 18.5412458,10.75 16.125,10.75 C13.7087542,10.75 11.75,12.7087542 11.75,15.125 C11.75,17.5412458 13.7087542,19.5 16.125,19.5 Z" id="搜索icon"></path>
                    </g>
                </g>
            </g>
        </g>
    </g>
</svg>