<?xml version="1.0" encoding="UTF-8" standalone="no"?>
<svg width="24px" height="24px" viewBox="0 0 24 24" version="1.1" xmlns="http://www.w3.org/2000/svg" xmlns:xlink="http://www.w3.org/1999/xlink">
    <!-- Generator: Sketch 48.2 (47327) - http://www.bohemiancoding.com/sketch -->
    <title>收藏icon@1x</title>
    <desc>Created with Sketch.</desc>
    <defs>
        <linearGradient x1="0%" y1="0%" x2="100%" y2="100%" id="linearGradient-1">
            <stop stop-color="#FD4A70" offset="0%"></stop>
            <stop stop-color="#F76B1C" offset="100%"></stop>
        </linearGradient>
    </defs>
    <g id="商品详情" stroke="none" stroke-width="1" fill="none" fill-rule="evenodd" transform="translate(-326.000000, -38.000000)">
        <g id="Group-2" fill="url(#linearGradient-1)" fill-rule="nonzero">
            <g id="收藏icon" transform="translate(326.000000, 38.000000)">
                <path d="M18.8631684,23.9956853 C18.7204945,23.9956853 18.5778206,23.9588662 18.4489538,23.8898304 L11.9918087,20.3091755 L5.52085654,23.8668185 C5.23550871,24.0232996 4.88112514,24.00489 4.61418684,23.8161923 C4.34724856,23.6274945 4.20917702,23.3007252 4.26440565,22.9785583 L5.52085651,15.3616124 L0.264933726,9.953811 C0.044019291,9.72829418 -0.0342212441,9.39232013 0.0670311973,9.09316514 C0.163681258,8.78940779 0.421414796,8.56849332 0.73437691,8.51326472 L4.88112511,7.79989517 C5.35056829,7.72165464 5.79239719,8.03461678 5.87063773,8.49945758 C5.94887826,8.96429838 5.63591612,9.40612728 5.17107532,9.48897019 L2.62595684,9.92619671 L7.04884808,14.4779547 C7.23754585,14.6712548 7.32499114,14.9473979 7.2789673,15.2143362 L6.23882847,21.5196026 L11.5775942,18.5832814 C11.8353277,18.4406075 12.1482898,18.4406075 12.4060233,18.5832814 L17.7355843,21.5380121 L16.7184574,15.2281433 C16.6770359,14.961205 16.7598788,14.685062 16.953179,14.4917618 L21.3576607,9.99063005 L15.3239349,9.06094844 C15.0431895,9.01952698 14.7992631,8.83543163 14.6796012,8.57769809 L12.0240254,2.89375358 L9.34543783,8.55928856 C9.14293292,8.98731029 8.63206828,9.17140567 8.20404656,8.96890076 C7.77602483,8.76639585 7.59192944,8.25553121 7.79443435,7.82750948 L11.2508249,0.509718555 C11.3934988,0.210563585 11.6926538,0.0172634381 12.0240255,0.0172634381 C12.0240255,0.0172634381 12.0240255,0.0172634381 12.0240255,0.0172634381 C12.3553971,0.0172634381 12.6591545,0.210563585 12.797226,0.509718555 L16.0280998,7.42710205 L23.2630478,8.54548142 C23.5806123,8.59610764 23.8429482,8.8170221 23.9442006,9.12077945 C24.0454531,9.4245368 23.9672126,9.76051085 23.7416957,9.99063007 L18.4719658,15.3754196 L19.7008024,22.9969679 C19.7514286,23.3191348 19.6133571,23.6459041 19.3464188,23.8346018 C19.2083472,23.9450591 19.038059,23.9956853 18.8631684,23.9956853 Z" id="Shape"></path>
            </g>
        </g>
    </g>
</svg>