<?xml version="1.0" encoding="UTF-8" standalone="no"?>
<svg width="58px" height="58px" viewBox="0 0 58 58" version="1.1" xmlns="http://www.w3.org/2000/svg" xmlns:xlink="http://www.w3.org/1999/xlink">
    <!-- Generator: Sketch 48.2 (47327) - http://www.bohemiancoding.com/sketch -->
    <title>新品速递@1x</title>
    <desc>Created with Sketch.</desc>
    <defs>
        <linearGradient x1="0%" y1="0%" x2="100%" y2="100%" id="linearGradient-1">
            <stop stop-color="#F98962" offset="0%"></stop>
            <stop stop-color="#E9551C" offset="100%"></stop>
        </linearGradient>
        <circle id="path-2" cx="25" cy="25" r="25"></circle>
        <filter x="-14.0%" y="-10.0%" width="128.0%" height="128.0%" filterUnits="objectBoundingBox" id="filter-3">
            <feOffset dx="0" dy="2" in="SourceAlpha" result="shadowOffsetOuter1"></feOffset>
            <feGaussianBlur stdDeviation="2" in="shadowOffsetOuter1" result="shadowBlurOuter1"></feGaussianBlur>
            <feColorMatrix values="0 0 0 0 0   0 0 0 0 0   0 0 0 0 0  0 0 0 0.12 0" type="matrix" in="shadowBlurOuter1"></feColorMatrix>
        </filter>
        <linearGradient x1="47.3955341%" y1="10.3940351%" x2="47.3955333%" y2="100%" id="linearGradient-4">
            <stop stop-color="#FFFFFF" stop-opacity="0.7" offset="0%"></stop>
            <stop stop-color="#FFFFFF" offset="100%"></stop>
        </linearGradient>
        <path d="M40.7679848,27.1987487 L35.5073488,15.0773213 C34.8846433,13.6428468 33.2028095,12.9842703 31.7526102,13.6055173 L30.0010855,14.3559819 L20.8715801,12.0902762 C20.9073599,11.7752771 20.8730386,11.4479715 20.7380781,11.1370745 C20.3233057,10.1813659 19.2029188,9.74166159 18.2361344,10.1559326 C17.2692589,10.5702492 16.8210312,11.6819305 17.2358492,12.6375023 C17.298612,12.7820801 17.3816577,12.910614 17.4729988,13.0305789 L12.4841982,21.8603999 L10.7324001,22.6107733 C9.28133479,23.2325217 8.60967696,24.8993599 9.23247369,26.333971 L14.4932008,38.4555353 C15.1152227,39.8888246 16.7965095,40.5484495 18.247666,39.9268378 L39.2677393,30.9214451 C40.7179842,30.3000613 41.3900979,28.6319925 40.7679848,27.1987487 Z M13.3598694,21.4854639 L18.0221848,13.5116238 C18.52725,13.8041067 19.1592537,13.8672797 19.7388868,13.6190088 C20.1559837,13.4402464 20.4674733,13.1296229 20.6638748,12.760749 L29.1250042,14.7313281 L13.3598694,21.4854639 Z M21.187035,31.7387746 L16.3190199,28.7048284 L16.2866129,28.7187301 L18.1680844,33.0372402 L17.2858042,33.4167341 L14.7843164,27.674871 L15.6745729,27.2919586 L20.4893514,30.2915835 L20.5217583,30.2776818 L18.6613445,26.0073492 L19.5436247,25.6278552 L22.045067,31.3700374 L21.187035,31.7387746 Z M23.1860557,30.8793297 L20.6846135,25.1374666 L24.8370323,23.3517118 L25.1627426,24.0993961 L21.8926495,25.5057936 L22.6214183,27.1784659 L25.6971609,25.8557521 L26.0231902,26.6038466 L22.9473109,27.9262869 L23.7426256,29.7517413 L27.1502317,28.2864552 L27.475942,29.0342762 L23.1860557,30.8793297 Z M32.8340723,26.7302838 L29.7301161,22.803802 L29.6975268,22.8177037 L30.4544181,27.7536322 L29.5074152,28.1607928 L25.3464731,23.1324294 L26.3422003,22.7042566 L29.4152993,26.6917692 L29.4477062,26.6778675 L28.6813344,21.6983652 L29.6040891,21.3014143 L32.7338432,25.2646786 L32.766159,25.2506402 L31.9431776,20.2953861 L32.9389049,19.8674412 L33.7728709,26.3264504 L32.8340723,26.7302838 Z" id="path-5"></path>
        <filter x="-21.9%" y="-16.6%" width="143.8%" height="146.4%" filterUnits="objectBoundingBox" id="filter-6">
            <feOffset dx="0" dy="2" in="SourceAlpha" result="shadowOffsetOuter1"></feOffset>
            <feGaussianBlur stdDeviation="2" in="shadowOffsetOuter1" result="shadowBlurOuter1"></feGaussianBlur>
            <feColorMatrix values="0 0 0 0 0   0 0 0 0 0   0 0 0 0 0  0 0 0 0.12 0" type="matrix" in="shadowBlurOuter1"></feColorMatrix>
        </filter>
    </defs>
    <g id="首页" stroke="none" stroke-width="1" fill="none" fill-rule="evenodd" transform="translate(-130.000000, -278.000000)">
        <g id="分类" transform="translate(35.000000, 280.000000)">
            <g id="Group-8" transform="translate(96.000000, 0.000000)">
                <g id="新品速递" transform="translate(3.000000, 0.000000)">
                    <g id="Oval-2-Copy">
                        <use fill="black" fill-opacity="1" filter="url(#filter-3)" xlink:href="#path-2"></use>
                        <use fill="url(#linearGradient-1)" fill-rule="evenodd" xlink:href="#path-2"></use>
                    </g>
                    <g id="Shape" fill-rule="nonzero">
                        <use fill="black" fill-opacity="1" filter="url(#filter-6)" xlink:href="#path-5"></use>
                        <use fill="url(#linearGradient-4)" fill-rule="evenodd" xlink:href="#path-5"></use>
                    </g>
                </g>
            </g>
        </g>
    </g>
</svg>