<?xml version="1.0" encoding="UTF-8" standalone="no"?>
<svg width="32px" height="8px" viewBox="0 0 32 8" version="1.1" xmlns="http://www.w3.org/2000/svg" xmlns:xlink="http://www.w3.org/1999/xlink">
    <!-- Generator: Sketch 48.2 (47327) - http://www.bohemiancoding.com/sketch -->
    <title>消息icon@1x</title>
    <desc>Created with Sketch.</desc>
    <defs></defs>
    <g id="首页" stroke="none" stroke-width="1" fill="none" fill-rule="evenodd" transform="translate(-362.000000, -46.000000)">
        <g id="banner01" fill="#FFFFFF">
            <g id="Group-7">
                <g id="Group-6" transform="translate(20.000000, 34.000000)">
                    <path d="M346,12 C343.8,12 342,13.8 342,16 C342,18.2 343.8,20 346,20 C348.2,20 350,18.2 350,16 C350,13.8 348.2,12 346,12 L346,12 Z M370,12 C367.8,12 366,13.8 366,16 C366,18.2 367.8,20 370,20 C372.2,20 374,18.2 374,16 C374,13.8 372.2,12 370,12 L370,12 Z M358,12 C355.8,12 354,13.8 354,16 C354,18.2 355.8,20 358,20 C360.2,20 362,18.2 362,16 C362,13.8 360.2,12 358,12 L358,12 Z" id="消息icon"></path>
                </g>
            </g>
        </g>
    </g>
</svg>