<?xml version="1.0" encoding="UTF-8" standalone="no"?>
<svg width="58px" height="58px" viewBox="0 0 58 58" version="1.1" xmlns="http://www.w3.org/2000/svg" xmlns:xlink="http://www.w3.org/1999/xlink">
    <!-- Generator: Sketch 48.2 (47327) - http://www.bohemiancoding.com/sketch -->
    <title>清仓特卖@1x</title>
    <desc>Created with Sketch.</desc>
    <defs>
        <linearGradient x1="0%" y1="0%" x2="100%" y2="100%" id="linearGradient-1">
            <stop stop-color="#ED5E48" offset="0%"></stop>
            <stop stop-color="#F32929" offset="100%"></stop>
        </linearGradient>
        <circle id="path-2" cx="25" cy="25" r="25"></circle>
        <filter x="-14.0%" y="-10.0%" width="128.0%" height="128.0%" filterUnits="objectBoundingBox" id="filter-3">
            <feOffset dx="0" dy="2" in="SourceAlpha" result="shadowOffsetOuter1"></feOffset>
            <feGaussianBlur stdDeviation="2" in="shadowOffsetOuter1" result="shadowBlurOuter1"></feGaussianBlur>
            <feColorMatrix values="0 0 0 0 0   0 0 0 0 0   0 0 0 0 0  0 0 0 0.12 0" type="matrix" in="shadowBlurOuter1"></feColorMatrix>
        </filter>
        <linearGradient x1="47.3955341%" y1="10.3940351%" x2="47.3955333%" y2="100%" id="linearGradient-4">
            <stop stop-color="#FFFFFF" stop-opacity="0.7" offset="0%"></stop>
            <stop stop-color="#FFFFFF" offset="100%"></stop>
        </linearGradient>
        <path d="M40.9934268,20.5118709 C41.0021804,20.6127779 41.0021804,20.7142622 40.9934909,20.8151693 C40.9696351,21.0906998 40.8808491,21.3616771 40.7271651,21.6032192 C40.6615937,21.6918776 40.5940984,21.7786122 40.5244869,21.8633266 C40.5122062,21.8763448 40.5000539,21.8894913 40.4871961,21.9023171 L38.9474379,23.4420878 C38.7724311,23.6167112 38.5420493,23.7014257 38.312886,23.6972894 L38.312886,23.6977383 C37.7524988,23.6971932 37.1919191,23.9104223 36.7638291,24.337618 C36.3357711,24.7648137 36.1215177,25.3250451 36.1209405,25.8854369 C36.1209084,25.9456861 36.1193693,26.0058712 36.1165798,26.0660243 C36.0724914,27.0139479 35.6882011,27.9487571 34.963741,28.6717481 C34.2058059,29.4282144 33.2168797,29.8116421 32.2246509,29.823057 C32.208234,29.8232174 32.1918492,29.8235701 32.1754964,29.8235701 C31.615045,29.823057 31.0543371,30.0363503 30.6263754,30.4634818 C30.1983815,30.8907096 29.9840639,31.450909 29.9835189,32.0113007 L29.9834547,32.0112686 C29.9833906,32.0719348 29.9818194,32.1325688 29.9790299,32.1931707 C29.9346208,33.140421 29.5503306,34.0747172 28.8262553,34.7974196 C28.055783,35.5664232 27.0466883,35.9502035 26.0379144,35.9492416 C26.0194454,35.9491454 26.0010726,35.9500111 25.9826677,35.9504921 C25.4407815,35.9634782 24.9028393,36.1760019 24.4888575,36.5890892 C24.0608636,37.0162528 23.8464819,37.5764843 23.8459368,38.1369081 L23.8443657,38.1369081 C23.8459689,38.3308985 23.7833474,38.5251454 23.6568538,38.6855963 C23.6353707,38.712787 23.6127334,38.7393043 23.5875629,38.7644429 C23.5777834,38.7740944 23.5672983,38.7825594 23.5571981,38.7918261 C22.702044,39.700631 21.8963652,40.4899955 21.5364758,40.7676102 C20.9347257,41.1138109 20.1714678,41.0731851 19.6075535,40.6458291 C19.5440021,40.5977002 19.4828556,40.5451785 19.4250437,40.4872379 L9.51308041,30.5753549 C8.82898922,29.8911621 8.82895717,28.7819538 9.51308041,28.0978251 L17.5871839,20.023464 L19.3390153,18.2716185 L24.0633326,13.5472631 L28.0977871,9.512808 C28.4012113,9.20934929 28.7884194,9.04075402 29.1849261,9.00654117 C29.2858324,8.99781961 29.3872837,8.99781961 29.4880617,9.00654117 C29.4880617,9.00654117 36.5300806,10.3364174 37.69225,10.5558991 C38.8544194,10.7753808 39.1758958,11.0569074 39.4440493,12.3077767 C39.7122028,13.5585819 40.9934268,20.5118709 40.9934268,20.5118709 Z M19.6773895,31.6179331 L20.5935298,32.5340167 C21.0659327,32.3790488 21.5474418,32.056159 22.0382817,31.5653152 C22.5751978,31.0283947 22.8814757,30.5062238 22.9571474,29.9988027 C23.032755,29.4914136 22.8648985,29.031961 22.4533857,28.620509 C22.1729516,28.3400726 21.8515073,28.1781467 21.4888924,28.1347634 C21.1263418,28.0914122 20.6405681,28.1914535 20.0316997,28.4350477 C19.5094689,28.6399401 19.1557038,28.7418091 18.9702762,28.7408792 C18.7848165,28.7399814 18.6367437,28.684125 18.5260578,28.5734062 C18.3876364,28.4350478 18.3447343,28.2574744 18.3973518,28.0406541 C18.4499052,27.8238979 18.5887435,27.6028771 18.8138667,27.377752 C19.1995037,26.9921761 19.6340707,26.7532633 20.1174395,26.6609495 L19.2594318,25.8029669 C18.8664521,25.9782637 18.4604864,26.2753094 18.0416629,26.6941363 C17.5416206,27.1941826 17.2500923,27.7062852 17.1670458,28.2302196 C17.0840314,28.7542822 17.2418197,29.2154984 17.6403785,29.6140605 C18.1828418,30.1565281 18.9310616,30.23499 19.8849415,29.8493499 C20.488359,29.6002406 20.891503,29.4775938 21.0944378,29.4812492 C21.2974367,29.4849686 21.4570206,29.5448973 21.5732856,29.6611632 C21.7079876,29.7958984 21.7554427,29.9688544 21.7158113,30.1800955 C21.6761157,30.3914008 21.5317624,30.6215279 21.2826551,30.8706372 C20.8435028,31.309825 20.3084464,31.5589343 19.6773895,31.6179331 Z M26.8789601,26.5751769 L26.1316382,25.8278169 L24.5291623,27.4303699 L20.989267,23.890446 L20.0759483,24.8038041 L24.3631014,29.0910238 L26.8789601,26.5751769 Z M31.3238694,22.1301996 L25.4978559,19.3818528 L24.4239915,20.4557259 L27.1418871,26.3122157 L28.1327372,25.3213897 L27.4657042,24.0233214 L29.0238994,22.4651136 L30.3275043,23.1265728 L31.3238694,22.1301996 Z M28.1022761,21.9751997 L26.959217,23.1182681 L25.9517897,21.131069 C25.8742904,20.976069 25.7783541,20.8303358 25.6639167,20.6937729 L25.6888307,20.6688588 C25.8567192,20.8109688 26.0034132,20.9133508 26.1289128,20.976069 L28.1022761,21.9751997 Z M34.4043158,19.0497284 L33.657058,18.3024646 L32.0323935,19.9271101 L30.9945052,18.8892134 L32.4115535,17.4721216 L31.6670533,16.7276153 L30.2499729,18.1447071 L29.239756,17.1344821 L30.7647968,15.6094611 L30.017507,14.8621652 L27.5791797,17.3005122 L31.8663648,21.587732 L34.4043158,19.0497284 Z" id="path-5"></path>
        <filter x="-21.9%" y="-15.6%" width="143.8%" height="143.8%" filterUnits="objectBoundingBox" id="filter-6">
            <feOffset dx="0" dy="2" in="SourceAlpha" result="shadowOffsetOuter1"></feOffset>
            <feGaussianBlur stdDeviation="2" in="shadowOffsetOuter1" result="shadowBlurOuter1"></feGaussianBlur>
            <feColorMatrix values="0 0 0 0 0   0 0 0 0 0   0 0 0 0 0  0 0 0 0.12 0" type="matrix" in="shadowBlurOuter1"></feColorMatrix>
        </filter>
    </defs>
    <g id="首页" stroke="none" stroke-width="1" fill="none" fill-rule="evenodd" transform="translate(-34.000000, -278.000000)">
        <g id="分类" transform="translate(35.000000, 280.000000)">
            <g id="Group-7">
                <g id="清仓特卖" transform="translate(3.000000, 0.000000)">
                    <g id="Oval-2">
                        <use fill="black" fill-opacity="1" filter="url(#filter-3)" xlink:href="#path-2"></use>
                        <use fill="url(#linearGradient-1)" fill-rule="evenodd" xlink:href="#path-2"></use>
                    </g>
                    <g id="Combined-Shape" fill-rule="nonzero">
                        <use fill="black" fill-opacity="1" filter="url(#filter-6)" xlink:href="#path-5"></use>
                        <use fill="url(#linearGradient-4)" fill-rule="evenodd" xlink:href="#path-5"></use>
                    </g>
                </g>
            </g>
        </g>
    </g>
</svg>