<?xml version="1.0" encoding="UTF-8" standalone="no"?>
<svg width="28px" height="24px" viewBox="0 0 28 24" version="1.1" xmlns="http://www.w3.org/2000/svg" xmlns:xlink="http://www.w3.org/1999/xlink">
    <!-- Generator: Sketch 48.2 (47327) - http://www.bohemiancoding.com/sketch -->
    <title>瀑布流显示@1x</title>
    <desc>Created with Sketch.</desc>
    <defs></defs>
    <g id="新-分类-列表01" stroke="none" stroke-width="1" fill="none" fill-rule="evenodd" transform="translate(-366.000000, -38.000000)">
        <g id="Group-2" fill="#999999" fill-rule="nonzero">
            <g id="Group-5">
                <g id="Group-7">
                    <g id="Group-6" transform="translate(10.000000, 33.000000)">
                        <g id="分类" transform="translate(356.000000, 5.000000)">
                            <path d="M12.6914945,0 L0.61220567,0 C0.272465161,0 1.0658141e-14,0.236424796 1.0658141e-14,0.524747717 L0,12.8784238 C0,13.16963 0.275828928,13.4031716 0.61220567,13.4031716 L12.6914945,13.4031716 C13.031235,13.4031716 13.3037001,13.1667468 13.3037001,12.8784238 L13.3037001,0.524747717 C13.3037001,0.233541567 13.0278712,0 12.6914945,0 Z M1.22441134,12.3536761 L1.22441134,1.04949543 L12.0792888,1.04949543 L12.0792888,12.3536761 L1.22441134,12.3536761 Z M27.3877943,0 L15.3085055,0 C14.968765,0 14.6962999,0.236424796 14.6962999,0.524747717 L14.6962999,8.87842383 C14.6962999,9.16962999 14.9721288,9.40317155 15.3085055,9.40317155 L27.3877943,9.40317155 C27.7275348,9.40317155 28,9.16674676 28,8.87842383 L28,0.524747717 C28,0.233541567 27.7275348,0 27.3877943,0 Z M15.9207112,8.35367612 L15.9207112,1.04949543 L26.7755887,1.04949543 L26.7755887,8.35367612 L15.9207112,8.35367612 Z M0.61220567,14.5968284 C0.272465161,14.5968284 0,14.8332532 0,15.1215762 L1.0658141e-14,23.4752523 C1.0658141e-14,23.7664584 0.275828928,24 0.61220567,24 L12.6914945,24 C13.031235,24 13.3037001,23.7635752 13.3037001,23.4752523 L13.3037001,15.1215762 C13.3037001,14.8332532 13.0278712,14.5968284 12.6914945,14.5968284 L0.61220567,14.5968284 Z M1.22441134,22.9505046 L1.22441134,15.6463239 L12.0792888,15.6463239 L12.0792888,22.9505046 L1.22441134,22.9505046 Z M15.3085055,10.5968284 C14.968765,10.5968284 14.6962999,10.8332532 14.6962999,11.1215762 L14.6962999,23.4752523 C14.6962999,23.7664584 14.9721288,24 15.3085055,24 L27.3877943,24 C27.7275348,24 28,23.7635752 28,23.4752523 L28,11.1215762 C28,10.8332532 27.7275348,10.5968284 27.3877943,10.5968284 L15.3085055,10.5968284 Z M15.9207112,22.9505046 L15.9207112,11.6463239 L26.7755887,11.6463239 L26.7755887,22.9505046 L15.9207112,22.9505046 Z" id="瀑布流显示"></path>
                        </g>
                    </g>
                </g>
            </g>
        </g>
    </g>
</svg>