<?xml version="1.0" encoding="UTF-8" standalone="no"?>
<svg width="87px" height="19px" viewBox="0 0 87 19" version="1.1" xmlns="http://www.w3.org/2000/svg" xmlns:xlink="http://www.w3.org/1999/xlink">
    <!-- Generator: Sketch 48.2 (47327) - http://www.bohemiancoding.com/sketch -->
    <title>热购单品@1x</title>
    <desc>Created with Sketch.</desc>
    <defs></defs>
    <g id="首页" stroke="none" stroke-width="1" fill="none" fill-rule="evenodd" transform="translate(-19.000000, -2617.000000)">
        <g id="滑动分类" transform="translate(0.000000, 2579.000000)">
            <g id="热购单品" transform="translate(20.000000, 38.000000)">
                <g id="尾货特卖" transform="translate(0.000000, 1.000000)" fill-rule="nonzero" stroke="#FFFFFF" stroke-width="1.5">
                    <path d="M16.996508,6.11568141 C16.996508,6.11568141 16.3158577,2.42174661 16.1734012,1.75725637 C16.0309446,1.09273205 15.8601603,0.943171074 15.2427578,0.826571421 C14.6253553,0.709971768 10.8842828,0.00347499758 10.8842828,0.00347499758 C10.8307445,-0.00115833253 10.7768485,-0.00115833253 10.723242,0.00347499758 C10.5125978,0.0216505711 10.3068935,0.111216813 10.1456994,0.272429251 L8.00239543,2.41573351 L5.49260186,4.92554734 L4.56194147,5.85621524 L0.272573968,10.1457196 C-0.0908665017,10.509163 -0.0908494767,11.0984298 0.272573968,11.4619073 L5.53830447,16.7275952 C5.56901703,16.7583761 5.60150114,16.7862783 5.63526281,16.8118467 C5.93484228,17.0388796 6.34032302,17.060462 6.66000277,16.8765429 C6.85119399,16.7290601 7.2792109,16.3097102 7.73351148,15.8269076 C7.73887723,15.8219847 7.74444741,15.8174876 7.74964281,15.8123603 C7.76301461,15.7990054 7.77504071,15.7849181 7.78645359,15.770473 C7.85365329,15.6852335 7.88692097,15.5820398 7.88606927,15.4789824 L7.88690395,15.4789824 C7.88719352,15.1812573 8.00108381,14.8836343 8.22845555,14.6567036 C8.44838338,14.437251 8.73416519,14.3243478 9.0220422,14.3174489 C9.0318198,14.3171934 9.04158037,14.3167335 9.05139202,14.3167846 C9.58730318,14.3172956 10.1233847,14.1134123 10.5326981,13.7048792 C10.9173631,13.3209435 11.1215173,12.8245987 11.1451096,12.3213719 C11.1465916,12.2891772 11.1474263,12.2569653 11.1474603,12.2247365 L11.1474944,12.2247535 C11.147784,11.9270454 11.2616402,11.6294395 11.4890119,11.4024747 C11.7163666,11.1755611 12.0142427,11.0622491 12.3119824,11.0625216 C12.3206699,11.0625216 12.3293743,11.0623342 12.3380958,11.0622491 C12.8652173,11.0561849 13.3905844,10.8524889 13.7932374,10.4506162 C14.1781069,10.0665272 14.3822611,9.56990982 14.405683,9.0663254 C14.407165,9.03436909 14.4079826,9.00239575 14.4079996,8.97038833 C14.4083063,8.67268022 14.5221284,8.37505727 14.7495342,8.14810955 C14.976957,7.92116184 15.274765,7.80788388 15.5724707,7.80817346 L15.5724707,7.80793497 C15.6942137,7.81013239 15.816604,7.76512783 15.9095764,7.67235914 L16.7275729,6.85435596 C16.7344036,6.84754225 16.7408596,6.84055819 16.7473836,6.83364228 C16.7843648,6.78863771 16.8202216,6.74255997 16.8550565,6.69546019 C16.9367011,6.56714096 16.9838686,6.42318425 16.996542,6.27680869 C17.0011583,6.22320178 17.0011583,6.16928828 16.996508,6.11568141 Z" id="Combined-Shape"></path>
                </g>
                <path d="M35.7964467,17.943098 L32.3959391,17.943098 L31.9101523,13.2391992 L35.2939086,13.2391992 L35.7964467,17.943098 Z M31.9771574,17.943098 L28.593401,17.943098 L28.0908629,13.2391992 L31.4913706,13.2391992 L31.9771574,17.943098 Z M28.1411168,17.943098 L24.7406091,17.943098 L24.2380711,13.2391992 L27.6385787,13.2391992 L28.1411168,17.943098 Z M23.4005076,17.943098 L20,17.943098 L20.5025381,13.2391992 L23.919797,13.2391992 L23.4005076,17.943098 Z M20,3.6227608 L20,2.18124341 L21.1390863,2.18124341 L21.1390863,0.0379346681 L24.9583756,0.0379346681 L24.9583756,2.18124341 L25.8629442,2.18124341 L25.8629442,3.6227608 L24.9583756,3.6227608 L24.9583756,6.4109589 L25.8629442,6.22128556 L25.8629442,7.66280295 L24.9583756,7.85247629 L24.9583756,10.6596417 C24.9583756,11.6838778 24.2548223,12.4615385 23.3670051,12.4615385 L20.1675127,12.4615385 L20.1675127,11.0200211 L20.686802,11.0200211 C20.9380711,11.0200211 21.1390863,10.7924131 21.1390863,10.5079031 L21.1390863,8.66807165 L20,8.914647 L20,7.47312961 L21.1390863,7.22655427 L21.1390863,3.6227608 L20,3.6227608 Z M26.3822335,3.20547945 L26.3822335,1.7829294 L27.3538071,1.7829294 L27.5213198,0.0379346681 L31.206599,0.0379346681 L31.0390863,1.7829294 L35.377665,1.7829294 L35.377665,11.0389884 L35.8969543,11.0389884 L35.8969543,12.4805058 L31.642132,12.4805058 L31.642132,3.20547945 L30.8883249,3.20547945 L30.4192893,7.90937829 L31.2903553,8.49736565 L31.2903553,10.1285564 L30.2685279,9.44573235 L29.9837563,12.4046365 L26.2984772,12.4046365 L26.8177665,7.05584826 L26.2817259,6.67650158 L26.2817259,5.06427819 L26.9685279,5.53846154 L27.2030457,3.20547945 L26.3822335,3.20547945 Z M41.7263959,2.75026344 L41.7263959,11.2855638 L42.0111675,12.0632244 L42.0111675,1.82086407 L39.0294416,1.82086407 L39.0294416,12.1580611 L39.364467,11.2855638 L39.364467,2.75026344 L41.7263959,2.75026344 Z M45.277665,6.71443625 L47.3213198,6.71443625 L46.9360406,13.4099052 L47.3715736,13.4099052 C47.4385787,13.4099052 47.5055838,13.3719705 47.5558376,13.2771338 C47.6228426,13.2012645 47.6395939,13.1064278 47.6395939,12.9926238 L47.5055838,9.42676502 L49.4822335,9.42676502 L49.6497462,13.6375132 C49.6664975,13.9599579 49.6162437,14.2444679 49.4654822,14.5100105 C49.2979695,14.7376185 49.1137056,14.8703899 48.8791878,14.8703899 L44.7751269,14.8703899 L45.277665,6.71443625 Z M45.4451777,0 L48.1923858,0 L47.9411168,1.7260274 L52.5477157,1.7260274 L52.5477157,16.1791359 C52.5477157,17.1654373 51.9446701,17.9810327 51.2243655,17.9810327 L48.5274112,17.9810327 L48.5274112,16.5395153 L49.5659898,16.5395153 C49.7670051,16.5395153 49.951269,16.2929399 49.951269,16.0084299 L49.951269,3.16754478 L47.7233503,3.16754478 L47.3883249,5.53846154 L44.6411168,5.53846154 L45.4451777,0 Z M36.8517766,12.9357218 L36.8517766,0.341412013 L44.2055838,0.341412013 L44.2055838,12.9357218 L42.3294416,12.9357218 L44.2055838,18 L41.5253807,18 L40.5538071,15.1359326 L39.4984772,18 L36.7847716,18 L38.7279188,12.9357218 L36.8517766,12.9357218 Z M64.7928934,10.280295 L64.7928934,8.0800843 L63.4527919,8.0800843 L63.4527919,10.8303477 L64.3238579,10.8303477 C64.5751269,10.8303477 64.7928934,10.5837724 64.7928934,10.280295 Z M64.7928934,3.86933614 L63.4527919,3.86933614 L63.4527919,6.63856691 L64.7928934,6.63856691 L64.7928934,3.86933614 Z M58.1091371,8.0800843 L58.1091371,10.8303477 L59.4659898,10.8303477 L59.4659898,8.0800843 L58.1091371,8.0800843 Z M58.1091371,3.86933614 L58.1091371,6.63856691 L59.4659898,6.63856691 L59.4659898,3.86933614 L58.1091371,3.86933614 Z M67.7076142,0.0379346681 L67.0543147,2.42781876 L68.6121827,2.42781876 L68.6121827,10.109589 C68.6121827,11.3045311 67.757868,12.2718651 66.7025381,12.2718651 L63.4527919,12.2718651 L63.4527919,13.6564805 L69.3994924,13.6564805 L69.3994924,15.0979979 L63.4527919,15.0979979 L63.4527919,17.9620653 L59.4659898,17.9620653 L59.4659898,15.0979979 L53.5192893,15.0979979 L53.5192893,13.6564805 L59.4659898,13.6564805 L59.4659898,12.2718651 L54.306599,12.2718651 L54.306599,2.42781876 L55.864467,2.42781876 L55.2111675,0.0379346681 L59.1812183,0.0379346681 L59.8345178,2.42781876 L63.084264,2.42781876 L63.7375635,0.0379346681 L67.7076142,0.0379346681 Z M82.8172589,15.8377239 L82.8172589,10.2992624 L81.828934,10.2992624 L81.828934,16.3877766 L82.3482234,16.3877766 C82.6162437,16.3877766 82.8172589,16.1601686 82.8172589,15.8377239 Z M74.5923858,15.8377239 L74.5923858,10.2992624 L73.5873096,10.2992624 L73.5873096,16.3877766 L74.1233503,16.3877766 C74.3913706,16.3877766 74.5923858,16.1601686 74.5923858,15.8377239 Z M80.8741117,5.80400421 L80.8741117,1.8967334 L75.5472081,1.8967334 L75.5472081,6.3540569 L80.3883249,6.3540569 C80.6563452,6.3540569 80.8741117,6.10748156 80.8741117,5.80400421 Z M86,8.83877766 L86,16.0273973 C86,17.0136986 85.2964467,17.829294 84.4086294,17.829294 L78.6461929,17.829294 L78.6461929,8.83877766 L86,8.83877766 Z M77.7751269,8.83877766 L77.7751269,16.0273973 C77.7751269,17.0136986 77.0715736,17.829294 76.1837563,17.829294 L70.4045685,17.829294 L70.4045685,8.83877766 L77.7751269,8.83877766 Z M84.8441624,0.436248683 L84.8441624,5.99367756 C84.8441624,6.97997893 84.1238579,7.79557429 83.2527919,7.79557429 L71.5771574,7.79557429 L71.5771574,0.436248683 L84.8441624,0.436248683 Z" fill="#FFFFFF"></path>
            </g>
        </g>
    </g>
</svg>