<?xml version="1.0" encoding="UTF-8" standalone="no"?>
<svg width="40px" height="40px" viewBox="0 0 40 40" version="1.1" xmlns="http://www.w3.org/2000/svg" xmlns:xlink="http://www.w3.org/1999/xlink">
    <!-- Generator: Sketch 48.2 (47327) - http://www.bohemiancoding.com/sketch -->
    <title>热门hot@1x</title>
    <desc>Created with Sketch.</desc>
    <defs></defs>
    <g id="首页" stroke="none" stroke-width="1" fill="none" fill-rule="evenodd" transform="translate(-90.000000, -1249.000000)">
        <g id="天天特惠" transform="translate(0.000000, 904.000000)" fill-rule="nonzero">
            <g id="特惠1" transform="translate(0.000000, 345.000000)">
                <g id="热门hot" transform="translate(90.000000, 0.000000)">
                    <polygon id="Shape" fill="#FD4A70" points="39.99643 18.8229821 21.1779109 0.0417014373 0.0188781018 0.0417014373 39.99643 39.9773219"></polygon>
                    <path d="M17.2096422,14.2770308 L15.7066973,12.7779446 L18.6128936,9.87098878 L15.6069443,6.87275694 L12.700748,9.77971272 L11.1977437,8.28062644 L18.24262,1.23386524 L19.7456243,2.73301084 L16.9031393,5.57620979 L19.9090886,8.57444167 L22.7515736,5.73124272 L24.2545779,7.23032896 L17.2096422,14.2770308 Z M22.3120667,12.5159188 C23.4157029,11.4120656 24.6364894,10.835348 25.9746043,10.7858845 C27.3126006,10.7364211 28.5114771,11.240189 29.5711151,12.2970698 C30.5791546,13.3025299 31.0555345,14.4471282 31.0003141,15.7306274 C30.9450937,17.0142452 30.3914646,18.1821518 29.3393675,19.2344657 C28.2417284,20.3323881 27.031511,20.9044796 25.7087152,20.9508591 C24.3858006,20.9972385 23.2067559,20.5040868 22.1714031,19.471404 C21.1603354,18.4628598 20.6701801,17.3123307 20.7011154,16.0197572 C20.7321101,14.7271245 21.2690543,13.5592772 22.3120667,12.5159188 Z M23.9743789,14.010379 C23.2891115,14.6958688 22.8943747,15.421214 22.7903466,16.1864146 C22.686081,16.9517339 22.9225787,17.6220999 23.4994241,18.197572 C24.0885011,18.7850246 24.7553616,19.0339431 25.5001839,18.9439125 C26.2449468,18.8540006 26.969106,18.4572848 27.6725426,17.7536466 C28.4062614,17.0197609 28.8267678,16.2807154 28.9339429,15.5365694 C29.0411179,14.7925419 28.804739,14.1311908 28.224806,13.5527532 C27.6357884,12.9652414 26.9537274,12.720949 26.1785042,12.8200537 C25.4033998,12.9190399 24.6686716,13.3158743 23.9743789,14.010379 Z M37.7046052,23.0990789 L35.691495,21.0912427 L29.8746491,26.9096618 L28.3670728,25.4059494 L34.183978,19.5875303 L32.1754992,17.5842017 L33.4034703,16.3558595 L38.9325169,21.8708553 L37.7046052,23.0990789 Z" id="Shape" fill="#FFFFFF"></path>
                </g>
            </g>
        </g>
    </g>
</svg>