<?xml version="1.0" encoding="UTF-8" standalone="no"?>
<svg width="156px" height="17px" viewBox="0 0 156 17" version="1.1" xmlns="http://www.w3.org/2000/svg" xmlns:xlink="http://www.w3.org/1999/xlink">
    <!-- Generator: Sketch 48.2 (47327) - http://www.bohemiancoding.com/sketch -->
    <title>猜你想买@1x</title>
    <desc>Created with Sketch.</desc>
    <defs></defs>
    <g id="清仓促销" stroke="none" stroke-width="1" fill="none" fill-rule="evenodd" transform="translate(-129.000000, -717.000000)">
        <g id="猜你想买" transform="translate(10.000000, 713.000000)">
            <g transform="translate(119.000000, 0.000000)">
                <path d="M0,13 L20,13" id="Path-33" stroke="#444444" stroke-width="1.32"></path>
                <path d="M136,13 L156,13" id="Path-33" stroke="#444444" stroke-width="1.32"></path>
                <text font-family="PingFangSC-Medium, PingFang SC" font-size="18" font-weight="400" letter-spacing="0.946969748" fill="#444444">
                    <tspan x="40.1060605" y="19">猜你想买</tspan>
                </text>
                <g id="推荐" transform="translate(20.000000, 8.000000)" fill="#000000" fill-rule="nonzero">
                    <path d="M5,0 C2.23849826,0 0,2.23849826 0,5 C0,7.76150174 2.23849826,10 5,10 C7.76150174,10 10,7.76150174 10,5 C10,2.23849826 7.76150174,0 5,0 Z M5,9.44444444 C2.54448785,9.44444444 0.555555556,7.45551215 0.555555556,5 C0.555555556,2.54448785 2.54448785,0.555555556 5,0.555555556 C7.45551215,0.555555556 9.44444444,2.54448785 9.44444444,5 C9.44444444,7.45551215 7.45551215,9.44444444 5,9.44444444 Z M7.40885417,3.33007813 C7.10286458,3.02734375 6.69704861,2.86132813 6.26519097,2.86132813 C5.859375,2.86132813 5.46983507,3.01106771 5.16927083,3.28233507 L4.98372396,3.44835069 L4.79926215,3.28233507 C4.49761285,3.01106771 4.10807292,2.86132813 3.70225694,2.86132813 C3.27039931,2.86132813 2.86458333,3.02842882 2.55859375,3.33007813 C2.2515191,3.63498264 2.08224826,4.03971354 2.08224826,4.47157118 C2.08224826,4.90342882 2.2515191,5.30815972 2.55967882,5.61306424 L4.75368924,7.73654514 C4.81553819,7.79730903 4.8969184,7.83094618 4.98372396,7.83094618 C5.07052951,7.83094618 5.15299479,7.79730903 5.21267361,7.73763021 L7.40885417,5.61306424 C7.71592882,5.30924479 7.88519965,4.90342882 7.88519965,4.47157118 C7.88628472,4.04079861 7.71701389,3.63498264 7.40885417,3.33007813 Z M2.89171007,4.58984375 C2.890625,4.58984375 2.890625,4.58984375 2.88953993,4.58984375 C2.82009549,4.58875868 2.76367188,4.53125 2.76584201,4.46180556 C2.76909722,4.21875 2.87326389,3.97243924 3.04361979,3.80208333 C3.25520833,3.59049479 3.54166667,3.53841146 3.68381076,3.5546875 C3.75325521,3.56228299 3.80208333,3.62521701 3.79448785,3.69466146 C3.78689236,3.7641059 3.72287326,3.81293403 3.65451389,3.80533854 C3.58181424,3.79665799 3.3734809,3.82921007 3.22265625,3.98003472 C3.09787326,4.10481771 3.02083333,4.28602431 3.01866319,4.46506076 C3.01649306,4.53450521 2.96006944,4.58984375 2.89171007,4.58984375 Z" id="Shape"></path>
                    <path d="M111,0 C108.238498,0 106,2.23849826 106,5 C106,7.76150174 108.238498,10 111,10 C113.761502,10 116,7.76150174 116,5 C116,2.23849826 113.761502,0 111,0 Z M111,9.44444444 C108.544488,9.44444444 106.555556,7.45551215 106.555556,5 C106.555556,2.54448785 108.544488,0.555555556 111,0.555555556 C113.455512,0.555555556 115.444444,2.54448785 115.444444,5 C115.444444,7.45551215 113.455512,9.44444444 111,9.44444444 Z M113.408854,3.33007813 C113.102865,3.02734375 112.697049,2.86132813 112.265191,2.86132813 C111.859375,2.86132813 111.469835,3.01106771 111.169271,3.28233507 L110.983724,3.44835069 L110.799262,3.28233507 C110.497613,3.01106771 110.108073,2.86132813 109.702257,2.86132813 C109.270399,2.86132813 108.864583,3.02842882 108.558594,3.33007813 C108.251519,3.63498264 108.082248,4.03971354 108.082248,4.47157118 C108.082248,4.90342882 108.251519,5.30815972 108.559679,5.61306424 L110.753689,7.73654514 C110.815538,7.79730903 110.896918,7.83094618 110.983724,7.83094618 C111.07053,7.83094618 111.152995,7.79730903 111.212674,7.73763021 L113.408854,5.61306424 C113.715929,5.30924479 113.8852,4.90342882 113.8852,4.47157118 C113.886285,4.04079861 113.717014,3.63498264 113.408854,3.33007813 Z M108.89171,4.58984375 C108.890625,4.58984375 108.890625,4.58984375 108.88954,4.58984375 C108.820095,4.58875868 108.763672,4.53125 108.765842,4.46180556 C108.769097,4.21875 108.873264,3.97243924 109.04362,3.80208333 C109.255208,3.59049479 109.541667,3.53841146 109.683811,3.5546875 C109.753255,3.56228299 109.802083,3.62521701 109.794488,3.69466146 C109.786892,3.7641059 109.722873,3.81293403 109.654514,3.80533854 C109.581814,3.79665799 109.373481,3.82921007 109.222656,3.98003472 C109.097873,4.10481771 109.020833,4.28602431 109.018663,4.46506076 C109.016493,4.53450521 108.960069,4.58984375 108.89171,4.58984375 Z" id="Shape"></path>
                </g>
            </g>
        </g>
    </g>
</svg>