<?xml version="1.0" encoding="UTF-8" standalone="no"?>
<svg width="24px" height="24px" viewBox="0 0 24 24" version="1.1" xmlns="http://www.w3.org/2000/svg" xmlns:xlink="http://www.w3.org/1999/xlink">
    <!-- Generator: Sketch 48.2 (47327) - http://www.bohemiancoding.com/sketch -->
    <title>设置 (1)@1x</title>
    <desc>Created with Sketch.</desc>
    <defs></defs>
    <g id="新-我的" stroke="none" stroke-width="1" fill="none" fill-rule="evenodd" transform="translate(-15.000000, -38.000000)">
        <g id="Group-7-Copy">
            <g id="Group-6" transform="translate(10.000000, 33.000000)">
                <g id="设置-(1)">
                    <rect id="Rectangle-4" x="0" y="0" width="34" height="34"></rect>
                    <path d="M12.3386364,24.125924 L12.9292592,24.4476096 C13.4552395,24.7329733 14.0101771,24.9613785 14.5846417,25.1289439 L15.2288122,25.3187584 L15.395849,26.9771379 L18.5815361,26.9781369 L18.7473741,25.3197574 L19.3927435,25.1291437 C19.9674386,24.9613243 20.522681,24.7329315 21.0491249,24.4478094 L21.6397478,24.1261238 L22.9264905,25.1790949 L25.1792892,22.9262962 L24.125319,21.6383547 L24.4480037,21.0469326 C24.7265316,20.5374304 24.956307,19.9799752 25.130337,19.3925492 L25.3201515,18.7471798 L26.978531,18.5813418 L26.978531,15.3956547 L25.3201515,15.2288177 L25.130337,14.5844474 C24.9565069,13.9970214 24.7267314,13.4395661 24.4480037,12.9288651 L24.1263181,12.3384421 L25.1802882,11.0516994 L22.9274895,8.79790168 L21.639548,9.85087278 L21.0491249,9.52918711 C20.522681,9.24406503 19.9674386,9.0156722 19.3927435,8.84785286 L18.7473741,8.65703933 L18.5825352,6.99865982 L15.396848,6.99766079 L15.229012,8.65803836 L14.5844419,8.84785286 C13.9970159,9.02068398 13.4415587,9.24946044 12.9290594,9.52918711 L12.3386364,9.85087278 L11.0508947,8.79710246 L8.79709696,11.0509002 L9.85126688,12.3376429 L9.5283824,12.9280659 C9.2446637,13.4550281 9.01671715,14.0101624 8.84824698,14.5844474 L8.65723363,15.2286179 L7.00384923,15.3944559 L6.99785508,18.5765465 L8.65743345,18.7473796 L8.84824698,19.392749 C9.01689805,19.9669705 9.24483702,20.5220863 9.5283824,21.0491304 L9.85126688,21.6385545 L8.8022919,22.9213011 L11.0470984,25.1750988 L12.3386364,24.1261238 L12.3386364,24.125924 Z M18.5815361,28.9763843 L15.3966482,28.9763843 C14.3636576,28.9763843 13.5084932,28.2031399 13.4065928,27.1761435 L13.372626,26.8324793 C13.1049426,26.7350568 12.8413774,26.6266712 12.582598,26.5075967 L12.3196549,26.7225866 C11.5240498,27.3774629 10.3608086,27.319474 9.63427892,26.5887174 L7.38947243,24.3429119 C6.6572411,23.6162435 6.5992144,22.4513792 7.25560324,21.6555379 L7.46939432,21.3945929 C7.35038235,21.1357447 7.2420633,20.8721128 7.1447116,20.604365 L6.80624231,20.5703982 C5.77998452,20.4710468 4.99768296,19.6073997 5.00000728,18.5763467 L5.00000728,15.4006498 C4.99724853,14.3698697 5.77907995,13.5061683 6.80504348,13.4065983 L7.1447116,13.3726315 C7.2420633,13.1048837 7.35038235,12.8412518 7.46939432,12.5824037 L7.25060812,12.3166633 C6.59832298,11.5228538 6.65628404,10.3632865 7.38447731,9.63848032 L9.638275,7.38468261 C10.3631484,6.65646145 11.5227835,6.59850132 12.3166578,7.25081342 L12.5823982,7.46959962 C12.8412993,7.35025217 13.1049978,7.24159982 13.3728258,7.14391786 L13.4067926,6.80025367 C13.5059254,5.77640758 14.3682204,4.99635956 15.396848,5.00001278 L18.5817359,5.00001278 C19.6091639,4.99776473 20.4701168,5.77654918 20.5705925,6.79905486 L20.6045593,7.14371807 C20.8724562,7.24122242 21.1361621,7.34987777 21.394987,7.46939982 L21.6597283,7.25161263 C22.4539964,6.598486 23.6146765,6.65645944 24.3399094,7.38548182 L26.591709,9.6382805 C27.3205727,10.3628677 27.3785582,11.5230097 26.7255782,12.3166633 L26.50879,12.5824037 C26.6274506,12.8414986 26.7358293,13.1051801 26.8336726,13.3728313 L27.1773368,13.4067981 C28.2003142,13.5065571 28.9795762,14.3680289 28.9765787,15.3958545 L28.9765787,18.5815416 C28.9765787,19.6125342 28.2033342,20.4676986 27.1773368,20.5707978 L26.8336726,20.6047647 C26.7358195,20.872281 26.6274409,21.135829 26.50879,21.3947927 L26.7245792,21.659534 C27.3784601,22.4535032 27.3209942,23.6145928 26.5919088,24.3401147 L24.3401092,26.5919143 C23.6150633,27.3206417 22.4547994,27.3786117 21.6607273,26.7257835 L21.394987,26.5079963 C21.1361459,26.6271202 20.87244,26.7353756 20.6045593,26.8324793 L20.5705925,27.1761435 C20.4710528,28.1993047 19.6097245,28.9789478 18.5817359,28.9763843 L18.5815361,28.9763843 Z" id="Shape" fill="#FFFFFF" fill-rule="nonzero"></path>
                    <path d="M16.995119,12 C14.2408104,12 12,14.2408104 12,16.995119 C12,19.7494277 14.2408104,21.9902381 16.995119,21.9902381 C19.7494277,21.9902381 21.9902381,19.7494277 21.9902381,16.995119 C21.9902381,14.2408104 19.7494277,12 16.995119,12 M16.995119,13.9980476 C18.6505015,13.9980476 19.9921905,15.3397366 19.9921905,16.995119 C19.9921905,18.6505015 18.6505015,19.9921905 16.995119,19.9921905 C15.3397366,19.9921905 13.9980476,18.6505015 13.9980476,16.995119 C13.9980476,15.3397366 15.3397366,13.9980476 16.995119,13.9980476" id="Shape" fill="#FFFFFF" fill-rule="nonzero"></path>
                </g>
            </g>
        </g>
    </g>
</svg>