<?xml version="1.0" encoding="UTF-8" standalone="no"?>
<svg width="88px" height="20px" viewBox="0 0 88 20" version="1.1" xmlns="http://www.w3.org/2000/svg" xmlns:xlink="http://www.w3.org/1999/xlink">
    <!-- Generator: Sketch 48.2 (47327) - http://www.bohemiancoding.com/sketch -->
    <title>超值爆款@1x</title>
    <desc>Created with Sketch.</desc>
    <defs></defs>
    <g id="首页" stroke="none" stroke-width="1" fill="none" fill-rule="evenodd" transform="translate(-20.000000, -1670.000000)">
        <g id="Group-12" transform="translate(-20.000000, 1642.000000)" fill="#FFFFFF" fill-rule="nonzero">
            <g id="超值爆款" transform="translate(40.000000, 28.000000)">
                <path d="M22.0433489,4.63630723 L23.5325193,4.63630723 L23.7701457,2.08849255 L27.4186086,2.08849255 L27.1809822,4.63630723 L28.6529725,4.63630723 L28.5195852,6.0707866 L27.0475948,6.0707866 L26.7571733,9.18577426 L28.4135123,9.18577426 L28.280125,10.6194916 L27.3095438,10.6194916 L27.0509731,13.3947198 L27.9548607,13.3947198 L27.8210873,14.8291991 L26.9171997,14.8291991 L26.6462747,17.7362597 L27.6895338,18.3972719 L36.3908874,18.3972719 L36.257114,19.8309893 L25.8648678,19.830989 L22.7571933,18.1707291 L22.5450476,19.9070838 L20.4195364,19.9070838 L21.3522827,12.0548417 L23.4942984,12.0548417 L23.0701034,15.5274421 L23.5460318,15.811464 L24.0297782,10.6194914 L21.3189841,10.6194914 L21.4523715,9.18577404 L23.1087105,9.18577404 L23.399132,6.07078638 L21.9099616,6.07078638 L22.0433489,4.63630723 Z M28.7945638,10.846905 L36.943547,10.846905 L36.4916515,15.6973764 C36.3807527,16.8875686 35.421078,17.8495853 34.383803,17.8495853 L28.1422012,17.8495853 L28.7945638,10.846905 Z M29.5755845,2.46635372 L37.7245677,2.46635372 L37.2126382,7.95845989 C37.1021255,9.14789011 36.1420647,10.1106688 35.1047898,10.1106688 L32.9290894,10.1106688 L33.0628628,8.67618947 L33.41438,8.67618947 C33.6654223,8.67618947 33.9056548,8.43103138 33.9322936,8.14788043 L34.3280158,3.90007106 L33.3912157,3.90007106 L32.2599326,10.1106688 L29.0304529,10.1106688 L30.161736,3.90007106 L29.4421971,3.90007106 L29.5755845,2.46635372 Z M33.6976593,12.2813843 L31.7564967,12.2813843 L31.3712949,16.414997 L32.8439608,16.414997 C33.0950031,16.414997 33.3334017,16.1884545 33.3633222,15.8672016 L33.6976593,12.2813843 Z" id="Shape"></path>
                <path d="M73.154258,14.6212718 L72.335499,19.8132446 L70.67916,19.8132446 L71.4807388,14.6212718 L73.154258,14.6212718 Z M71.336445,12.39471 L79.2186535,12.39471 L79.0867138,13.8106828 L76.7101603,13.8106828 L76.3058479,18.1514605 C76.2144457,19.1337256 75.5032073,19.9452946 74.6996981,19.9452946 L72.6243761,19.9452946 L72.7348888,18.7558644 L72.9192375,18.7558644 C73.1365952,18.7558644 73.2643845,18.6425386 73.294305,18.3213947 L73.7143498,13.8106828 L71.2044088,13.8106828 L71.336445,12.39471 Z M72.1368657,3.80612287 L74.3627553,3.80612287 L74.5227815,2.08838362 L77.9531145,2.08838362 L77.7930883,3.80612287 L80.0017976,3.80612287 L79.8664799,5.25921766 L77.6577706,5.25921766 L77.4835562,7.12827553 L79.5752862,7.12827553 L79.4415128,8.56275489 L71.8104432,8.56275489 L71.9442166,7.12827553 L74.0532233,7.12827553 L74.2274377,5.25921766 L72.0015481,5.25921766 L72.1368657,3.80612287 Z M71.9985559,9.60086638 L79.0772552,9.60086638 L78.9434818,11.0353457 L71.8646861,11.0353457 L71.9985559,9.60086638 Z M78.6434084,14.6212719 L78.477398,19.8132446 L76.8038789,19.8132446 L76.9526126,14.6212719 L78.6434084,14.6212719 Z M82.9426896,16.9629013 L81.846539,19.9265702 L78.9685764,19.9265702 L81.7948055,12.5831507 L82.1853159,8.39282074 L85.2476271,8.39282074 L84.8571168,12.5831507 L86.3650117,19.9265702 L83.4862769,19.9265702 L82.9426896,16.9629013 Z M84.237377,1.99378223 L83.9563177,3.39113947 L87.9727057,3.39113947 L87.1149535,8.10977851 L84.2362188,8.10977851 L84.8417704,4.84423426 L83.6538314,4.84423426 L82.9980907,8.10977851 L80.0699389,8.10977851 L81.2919486,1.99378213 L84.237377,1.99378223 Z" id="Shape"></path>
                <path d="M5.71275957,19.9652164 C5.58352247,19.9652164 5.45718088,19.9550922 5.33238358,19.9382185 C4.93965335,19.8858557 4.5664197,19.7547854 4.22127266,19.5484913 C3.63290117,19.2788393 3.08805922,18.9288467 2.60132084,18.5053721 C2.34053025,18.2788296 2.09093565,18.027793 1.85967938,17.7581409 C1.0439124,16.8028736 0.479863434,15.6346716 0.228821033,14.3785088 C0.12873221,13.8780685 0.0781570161,13.3666332 0.0781570161,12.8569396 C0.0781570161,11.6979909 0.328523713,10.5872682 0.822404424,9.55590617 C0.956563961,9.27438809 2.13880831,7.22788457 2.49785387,6.60660702 C2.65228208,6.34032968 2.91828467,6.18139064 3.20532803,6.21775064 C3.48677344,6.24474851 3.73260385,6.44342234 3.84466077,6.73593553 C3.90276435,6.8863833 3.96685212,7.04869713 4.03132584,7.20589436 C4.33072353,6.87114255 4.60203461,6.50852202 4.83850277,6.12641521 C5.4414484,5.15177053 5.81545416,4.07392426 5.95067535,2.92346681 C5.98368441,2.64619436 5.98252617,1.30555436 5.94951711,1.02490723 C5.91351606,0.719766064 6.02412526,0.415386915 6.24032476,0.22694617 C6.45652425,0.036763617 6.7458841,-0.00634585106 6.99837421,0.108612766 C7.60469798,0.385885213 8.1817768,0.73587766 8.71349242,1.14922809 C8.89600725,1.29042255 9.07359964,1.44087032 9.24598013,1.59806755 C9.68474926,1.99617723 10.0899302,2.44425468 10.4488793,2.92782128 C10.9821392,3.64555085 11.4119322,4.44013723 11.7267727,5.28795723 C11.7432771,5.33280851 11.7597817,5.37755096 11.7755141,5.42316426 C11.7904743,4.89986287 11.7530255,4.51024447 11.7522533,4.50425702 C11.7192443,4.17124702 11.8587123,3.84574862 12.1112024,3.66993585 C12.3645612,3.49412309 12.6845171,3.49662702 12.9326639,3.67918915 C15.0158039,5.20413309 16.0718032,7.84578713 16.0718032,11.5305604 C16.0718032,15.026784 14.2569823,18.209484 11.3351042,19.8367586 C11.0776916,19.9804569 10.7711517,19.9508464 10.5402815,19.75816 C10.3090252,19.5662356 10.1921425,19.2450917 10.2371196,18.9254718 C10.2596082,18.7665328 10.2757266,18.6059607 10.2757266,18.4402722 C10.2757266,18.2492188 10.2577743,18.0539197 10.2210011,17.841747 C10.1220705,17.2728323 9.88145209,16.7445233 9.53070701,16.304937 C9.24964765,17.4985039 8.5747964,18.5467397 7.61097145,19.2559779 C7.33821266,19.5020068 6.96343472,19.7133086 6.55275221,19.8383915 C6.27603644,19.9228689 5.99381884,19.9652164 5.71275957,19.9652164 Z M3.04124812,8.84068053 C2.61444718,9.58540798 2.23291304,10.2566533 2.17220341,10.3792323 C1.80157571,11.1544412 1.61307678,11.9878915 1.61307678,12.8569397 C1.61307678,13.2381756 1.65129774,13.6219155 1.72629194,13.9981438 C1.91556297,14.9449198 2.34381171,15.8290999 2.96442006,16.5552118 C3.14278465,16.7640098 3.33581987,16.958438 3.53734873,17.1342507 C3.92370882,17.4690026 4.35909981,17.7471459 4.83165009,17.9593186 C4.861281,17.9720555 4.89013982,17.9880583 4.91784029,18.0049319 C5.10112722,18.1190197 5.30082223,18.1908688 5.51219588,18.2188465 C5.71903313,18.2458444 5.93899682,18.2323454 6.15220422,18.1672457 C6.36203357,18.1030169 6.55246283,17.9964407 6.71731494,17.8502385 C7.63095075,17.1739855 8.14355594,16.1511148 8.14355594,15.0691318 C8.14172208,14.955044 8.13602755,14.8662123 8.1289818,14.7774896 C8.10311508,14.4655989 8.22868448,14.1629616 8.45723821,13.9845362 C8.68695018,13.8069817 8.98258368,13.7833585 9.23073048,13.9203073 C9.32251872,13.9701663 9.41063936,14.0260127 9.49827736,14.0826212 C10.6659476,14.8340981 11.4794946,16.0826404 11.727545,17.5087374 C11.7297649,17.5231072 11.7323708,17.5366062 11.7346873,17.5509761 C13.4884126,16.1156259 14.5373661,13.9093123 14.5373661,11.5305609 C14.5373661,9.30824457 14.1049671,7.56514043 13.2482766,6.32334755 C13.222796,6.53802415 13.1879531,6.75781723 13.1414316,6.97761032 C12.9308302,7.97174138 12.155118,8.77144436 12.06748,8.85929628 C11.8475163,9.07821851 11.53644,9.1382016 11.2655151,9.01224787 C10.994204,8.88629415 10.8106275,8.59639362 10.7918065,8.26664957 C10.7472154,7.47369617 10.5857414,6.69685436 10.3110522,5.95637255 C10.0554736,5.26912447 9.70588671,4.62324404 9.27194343,4.0383266 C8.97775774,3.64184989 8.64467538,3.27411277 8.28225167,2.94534851 C8.13988814,2.81514915 7.99443612,2.69169926 7.8437721,2.57510766 C7.74262162,2.49650904 7.63915474,2.42041426 7.53424007,2.34769415 C7.52371968,2.62583745 7.50277531,2.89037298 7.47198625,3.15164266 C7.30443161,4.57861053 6.84172619,5.91250096 6.09747869,7.11619213 C5.78418247,7.62338191 5.4214692,8.10096106 5.01976287,8.5363016 C4.7818469,8.79495862 4.52848811,9.0401166 4.26808357,9.26502628 C3.93422911,9.55329383 3.45830068,9.48569032 3.1981857,9.1128367 C3.15108523,9.04523287 3.09790399,8.95139351 3.04124812,8.84068053 Z" id="Shape"></path>
                <polygon id="Shape" points="59.5981643 2.06900617 57.0380343 2.06900617 56.1532572 11.5637636 53.8681059 19.9265702 56.1936981 19.9265702 56.8982768 17.3965001 57.1140901 19.9265702 59.4231779 19.9265702 58.7134837 11.5637636"></polygon>
                <polygon id="Shape" points="60.4477124 17.3778846 59.8268145 19.9070838 62.2873384 19.9070838 62.8909596 17.3778846"></polygon>
                <polygon id="Shape" points="56.5917367 3.44687702 55.4704915 3.44687702 54.7214182 11.4885397 55.842567 11.4885397"></polygon>
                <polygon id="Shape" points="60.1431028 11.4885397 60.8921761 3.44687702 59.7709308 3.44687702 59.0218576 11.4885397"></polygon>
                <path d="M63.500372,18.0195194 C63.4707411,18.3407722 63.3433378,18.453227 63.1088,18.453227 L62.958136,18.453227 L62.8243626,19.8885772 L64.7655251,19.8885772 C65.5854423,19.8885772 66.3304619,19.0762463 66.4218641,18.0956141 L66.8261764,13.7539654 L63.8980247,13.7539654 L63.500372,18.0195194 Z" id="Shape"></path>
                <polygon id="Shape" points="62.9261886 17.0008943 62.744832 14.9991332 60.2843081 14.9991332 60.4829414 17.0008943"></polygon>
                <path d="M70.8780828,6.01417809 L71.2262218,2.27693319 L61.587296,2.27693319 L61.0719884,7.80790319 L62.4269994,7.80790319 L62.3493992,8.63797872 L60.9943882,8.63797872 L60.8610009,10.0724581 L62.2160119,10.0724581 L62.1331997,10.9592509 L60.6605338,10.9592509 L60.5267604,12.3946011 L61.3803623,12.3946011 L60.3209848,14.6026564 L63.3166023,14.6026564 L64.3587031,12.3946011 L66.550908,12.3946011 L67.1988309,14.6026564 L70.1944484,14.6026564 L69.5465255,12.3946011 L70.4002239,12.3946011 L70.5339973,10.9592509 L69.0777394,10.9592509 L69.1605515,10.0724581 L70.4998301,10.0724581 L70.6332174,8.63797872 L69.294132,8.63797872 L69.3717322,7.80790319 C70.1353797,7.69381553 70.7918926,6.93896394 70.8780828,6.01417809 Z M66.1998735,10.9593598 L65.0119345,10.9593598 L65.0947466,10.072567 L66.2826856,10.072567 L66.1998735,10.9593598 Z M66.4161694,8.63808766 L65.2282305,8.63808766 L65.3058306,7.80801213 L66.4937696,7.80801213 L66.4161694,8.63808766 Z M67.878315,5.88223691 C67.8502284,6.1840034 67.5763114,6.43003234 67.3251725,6.43003234 L64.2126721,6.43003234 L64.277532,5.7309183 L67.2041395,5.7309183 L67.3086681,4.35304734 L64.4060935,4.35304734 L64.4713395,3.65480415 L68.086021,3.65480415 L67.878315,5.88223691 Z" id="Shape"></path>
                <polygon id="Shape" points="67.1427541 17.0008943 69.5860013 17.0008943 70.1578682 14.9991332 67.7146211 14.9991332"></polygon>
                <polygon id="Shape" points="67.1075252 17.3778846 67.257031 19.9070838 69.7002782 19.9070838 69.5507724 17.3778846"></polygon>
                <polygon id="Shape" points="42.7726326 6.4672633 44.0432871 1.99378223 40.3282272 1.99378223 37.9710737 10.4124352 39.2924 10.4124352 38.4095533 19.8884684 42.0917008 19.8884684 43.3421831 6.4672633"></polygon>
                <path d="M54.3091914,4.786755 L54.4411311,3.37165319 L51.5961774,3.37165319 L51.7247389,1.99378223 L47.5411824,1.99378223 L47.4126209,3.37165319 L44.5338862,3.37165319 L44.4019466,4.786755 L47.2806813,4.786755 L47.1311755,6.39203936 L44.7883066,6.39203936 L43.6626216,18.4726045 L42.9760917,18.4726045 L42.8441521,19.8885772 L53.0691329,19.8885772 L53.2010725,18.4726045 L52.5145427,18.4726045 L53.6402278,6.39203936 L51.3146355,6.39203936 L51.4641413,4.786755 L54.3091914,4.786755 Z M49.16818,18.4726045 L47.0096598,18.4726045 L47.1625437,16.8300891 L48.7847154,16.8300891 L48.9267894,15.3956098 L47.2963171,15.3956098 L47.443989,13.8105738 L49.0838235,13.8105738 L49.2240636,12.3946011 L47.5759286,12.3946011 L47.7186782,10.8654115 L49.3755963,10.8654115 L49.5158364,9.44943872 L47.8505213,9.44943872 L48.0015714,7.82640979 L50.1600916,7.82640979 L49.16818,18.4726045 Z" id="Shape"></path>
            </g>
        </g>
    </g>
</svg>