<?xml version="1.0" encoding="UTF-8" standalone="no"?>
<svg width="15px" height="16px" viewBox="0 0 15 16" version="1.1" xmlns="http://www.w3.org/2000/svg" xmlns:xlink="http://www.w3.org/1999/xlink">
    <!-- Generator: Sketch 48.2 (47327) - http://www.bohemiancoding.com/sketch -->
    <title>足迹@1x</title>
    <desc>Created with Sketch.</desc>
    <defs></defs>
    <g id="新-我的" stroke="none" stroke-width="1" fill="none" fill-rule="evenodd" transform="translate(-183.000000, -209.000000)">
        <g id="Group-9" transform="translate(0.000000, 192.000000)" fill="#333333" fill-rule="nonzero">
            <g id="待发货" transform="translate(183.000000, 15.000000)">
                <g id="足迹" transform="translate(0.000000, 2.000000)">
                    <path d="M13.7139981,10.6830904 C13.4817647,10.493721 13.1421233,10.5315949 12.9563366,10.7646649 C12.7676469,10.9977349 12.8053849,11.3385998 13.0376183,11.5250558 C13.4149976,11.8309602 13.9230082,12.7399332 13.9230082,13.2526873 C13.9230082,14.1674871 13.1827642,14.9103977 12.271248,14.9103977 C11.7342082,14.9103977 11.2291005,14.6481939 10.9184883,14.2082743 C10.8807504,14.1558335 9.87924373,12.7078861 9.29575727,12.0785971 C8.26522146,10.9744279 6.53508247,11.0356088 6.52927664,11.0356088 C4.34047665,10.5840356 2.83966817,8.80105005 3.11544536,6.9772772 C3.25188249,6.06830417 3.80633979,5.27003937 4.68011805,4.73397835 C5.58292547,4.18043708 6.70925756,3.96776069 7.85300717,4.14256321 C8.99675678,4.31445235 10.0098751,4.85051337 10.7094783,5.64586478 C11.3858581,6.41790918 11.6819557,7.3414491 11.5455186,8.25333552 C11.4932661,8.60294053 11.3800523,8.93797868 11.2029743,9.24970982 C11.0578284,9.50900021 11.1478188,9.84112496 11.4090814,9.98679373 C11.6674411,10.1324625 11.9983737,10.0421479 12.1435196,9.77994409 C12.3815589,9.35167795 12.5412194,8.89136467 12.6108894,8.41357115 C12.7966761,7.18121347 12.4076852,5.94594241 11.5164894,4.9291745 C10.648517,3.94154033 9.40316527,3.28020416 8.00976473,3.07044115 C6.6163642,2.86067814 5.23167242,3.12288191 4.11114617,3.81043844 C2.96159073,4.51838859 2.22715254,5.58468389 2.04426872,6.81704157 C1.68430691,9.20892256 3.55668888,11.5308825 6.30865491,12.1019041 C6.34639284,12.1106442 7.81526923,12.0844238 8.50326075,12.8244211 C9.10706765,13.4711904 10.0301955,14.8783506 10.0998655,14.9220512 C10.613682,15.5979542 11.4148873,16 12.2683451,16 C13.7749594,16 14.9999907,14.7705557 14.9999907,13.258514 C15.0028936,12.3786747 14.3236109,11.1725374 13.7139981,10.6830904 Z" id="Shape"></path>
                    <path d="M0,4 C0,4.55107528 0.448924725,5 1,5 C1.55107528,5 2,4.55107528 2,4 C2,3.44892472 1.55107528,3 1,3 C0.448924725,3 0,3.44892472 0,4 Z" id="Shape"></path>
                    <path d="M3.8800287,3 C3.67780827,3 3.47558783,2.93138824 3.31128372,2.79416469 C2.94475917,2.48541171 2.89420406,1.94587369 3.20069441,1.57786509 C3.27336739,1.49054102 5.01435896,-0.517912677 8.29096201,0.127661728 C8.76807586,0.22122323 9.07772591,0.679674631 8.98293506,1.15060087 C8.88814422,1.62152712 8.42366916,1.93028011 7.94655532,1.83359988 C5.72844988,1.39386078 4.59727932,2.64446628 4.5498839,2.69748447 C4.37610073,2.89708234 4.12964456,3 3.8800287,3 Z" id="Shape"></path>
                </g>
            </g>
        </g>
    </g>
</svg>