<?xml version="1.0" encoding="UTF-8" standalone="no"?>
<svg width="13px" height="22px" viewBox="0 0 13 22" version="1.1" xmlns="http://www.w3.org/2000/svg" xmlns:xlink="http://www.w3.org/1999/xlink">
    <!-- Generator: Sketch 48.2 (47327) - http://www.bohemiancoding.com/sketch -->
    <title>返回icon@1x</title>
    <desc>Created with Sketch.</desc>
    <defs></defs>
    <g id="品牌活动页面" stroke="none" stroke-width="1" fill="none" fill-rule="evenodd" transform="translate(-21.000000, -39.000000)">
        <g id="Group-2">
            <g id="返回icon" transform="translate(10.000000, 33.000000)">
                <rect id="Rectangle" x="0" y="0" width="34" height="34"></rect>
                <path d="M23,16.9987756 L12.4317972,7.0897573 C12.239345,6.90930925 11.9398086,6.9094331 11.7475057,7.09004023 L11.1158239,7.68330368 C10.9145367,7.87234879 10.9046125,8.18877569 11.0936576,8.39006294 C11.1008968,8.39777098 11.1083788,8.40524742 11.1160921,8.41248099 L20.2719041,16.9987756 L11.114581,25.5883112 C10.9131748,25.7772295 10.9030513,26.0936501 11.0919697,26.2950564 C11.0993592,26.3029344 11.107002,26.3105708 11.1148861,26.3179537 L11.7475062,26.9103552 C11.9398804,27.0904993 12.2390544,27.0903898 12.4312967,26.910105 L23,16.9987756 Z" id="Shape-Copy" stroke="#CCCCCC" fill="#CCCCCC" transform="translate(17.000000, 17.000000) scale(-1, 1) translate(-17.000000, -17.000000) "></path>
            </g>
        </g>
    </g>
</svg>