<?xml version="1.0" encoding="UTF-8" standalone="no"?>
<svg width="24px" height="24px" viewBox="0 0 24 24" version="1.1" xmlns="http://www.w3.org/2000/svg" xmlns:xlink="http://www.w3.org/1999/xlink">
    <!-- Generator: Sketch 48.2 (47327) - http://www.bohemiancoding.com/sketch -->
    <title>进货单-icon-选中@1x</title>
    <desc>Created with Sketch.</desc>
    <defs>
        <linearGradient x1="0%" y1="0%" x2="100%" y2="100%" id="linearGradient-1">
            <stop stop-color="#FD4A70" offset="0%"></stop>
            <stop stop-color="#F76B1C" offset="100%"></stop>
        </linearGradient>
    </defs>
    <g id="新-进货单" stroke="none" stroke-width="1" fill="none" fill-rule="evenodd" transform="translate(-247.000000, -688.000000)">
        <g id="bottom" transform="translate(0.000000, 680.000000)" fill="url(#linearGradient-1)" fill-rule="nonzero">
            <g id="进货单-icon-选中" transform="translate(247.000000, 8.000000)">
                <path d="M4.25640161,19.5405799 C3.12373213,19.5405799 2.20619047,20.5340781 2.20619047,21.7593585 C2.20619047,22.984639 3.12373213,23.9793194 4.25640161,23.9793194 C5.38824695,23.9793194 6.30592596,22.9846121 6.30592596,21.7593585 C6.30595345,20.5340781 5.38827442,19.5405799 4.25640161,19.5405799 Z M15.6735319,19.5405799 C14.5409723,19.5405799 13.6234856,20.5340781 13.6234856,21.7593585 C13.6234856,22.984639 14.5409723,23.9793194 15.6735319,23.9793194 C16.8055695,23.9793194 17.7230288,22.9846121 17.7230288,21.7593585 C17.7230562,20.5340781 16.805597,19.5405799 15.6735319,19.5405799 Z M7.26456472,0.287205899 C6.90993761,-0.149837646 6.52160322,-0.0518152123 6.35650067,0.598792569 C6.17450325,1.31945091 5.58279877,1.52852783 5.04408644,1.06042233 C4.50232478,0.593311037 4.0867938,0.823104867 4.11764408,1.57074087 C4.15000529,2.31757077 3.64491783,2.71320738 2.99893004,2.45194858 C2.35162362,2.18582626 2.0212262,2.5433072 2.26497911,3.24405474 C2.50864961,3.94359314 2.14317133,4.48862794 1.45300969,4.45450283 C0.763150228,4.42182869 0.55041243,4.87249541 0.981904242,5.45729811 C1.41496193,6.04134846 1.22109691,6.68118129 0.554752886,6.87870402 C-0.111893342,7.07743591 -0.185186765,7.57740943 0.393304,7.98970553 C0.968690523,8.39915341 0.968690523,9.07515351 0.393304,9.48543437 C-0.142606255,9.86825388 -0.0955479195,10.3156693 0.441790846,10.5381545 L10.5845271,10.5381545 L7.26456472,0.287205899 Z M22.2572505,5.57085154 C21.4631099,5.57085154 20.8215999,6.15871744 20.6138344,6.94716927 C17.2343966,8.2912159 17.2951632,12.1370111 17.2951632,12.1370111 L0.497282872,12.1370111 C0.727849557,16.710424 4.82384894,20.3558213 9.85642762,20.3558213 C14.8654359,20.3558213 18.9423153,16.7453821 19.2097485,12.2046164 L19.2256543,12.2051807 C19.16997,10.103771 20.605593,9.07053182 21.0492547,8.80113135 C21.3625924,9.12999555 21.7860077,9.33665414 22.2572779,9.33665414 C23.2190484,9.33665414 23.9970358,8.49419325 23.9970358,7.45423649 C23.9970084,6.41387669 23.2189935,5.57085154 22.2572505,5.57085154 Z" id="Shape"></path>
            </g>
        </g>
    </g>
</svg>