<?xml version="1.0" encoding="UTF-8" standalone="no"?>
<svg width="24px" height="24px" viewBox="0 0 24 24" version="1.1" xmlns="http://www.w3.org/2000/svg" xmlns:xlink="http://www.w3.org/1999/xlink">
    <!-- Generator: Sketch 48.2 (47327) - http://www.bohemiancoding.com/sketch -->
    <title>首页-icon-选中@1x</title>
    <desc>Created with Sketch.</desc>
    <defs>
        <linearGradient x1="0%" y1="0%" x2="100%" y2="100%" id="linearGradient-1">
            <stop stop-color="#FD4A70" offset="0%"></stop>
            <stop stop-color="#F76B1C" offset="100%"></stop>
        </linearGradient>
    </defs>
    <g id="首页--下单请认证" stroke="none" stroke-width="1" fill="none" fill-rule="evenodd" transform="translate(-38.000000, -688.000000)">
        <g id="bottom" transform="translate(0.000000, 680.000000)" fill="url(#linearGradient-1)" fill-rule="nonzero">
            <g id="首页-icon-选中" transform="translate(38.000000, 8.000000)">
                <path d="M20.9877692,13.2349989 C19.3346625,13.2349989 17.9932243,11.7564643 17.9932243,9.92915608 C17.9932243,11.7564334 16.6513759,13.2349989 14.998652,13.2349989 C13.3458735,13.2349989 12.0036422,11.7564643 12.0036422,9.92915608 C12.0036422,11.7564334 10.662204,13.2349989 9.00904257,13.2349989 C7.35590852,13.2349989 6.01447032,11.7564643 6.01447032,9.92915608 C6.01447032,11.7564334 4.67308682,13.2349989 3.01946047,13.2349989 C1.36673663,13.2349989 0.0248882138,11.7564643 0.0248882138,9.92915608 L2.07709804,3.87683668 L21.8521325,3.87683668 L23.980263,9.92915608 C23.982779,11.7564643 22.6409306,13.2349989 20.9877692,13.2349989 Z M21.846608,3.84446158 L21.966608,3.96446158 L21.8573174,3.96446158 L21.846608,3.84446158 Z M20.5583635,2.1172134 L3.44681498,2.1172134 C2.8819773,2.1172134 2.42049127,1.6457357 2.42049127,1.06181014 C2.42049127,0.479769026 2.87984408,0.00829132075 3.44681498,0.00829132075 L20.5583635,0.00829132075 C21.1278505,0.00829132075 21.5893091,0.48051046 21.5893091,1.06181014 C21.5893091,1.64644622 21.1278505,2.1172134 20.5583635,2.1172134 Z M3.79015358,15.2876971 L3.79015358,22.2396301 L20.2192366,22.2396301 L20.2192366,15.2876971 C20.2192366,15.2876971 20.4529059,15.2786456 20.5583361,15.2876971 L21.9317999,15.2876971 L21.9317999,22.5869209 C21.9317999,23.1994526 21.2332533,23.9808725 20.6148937,23.9808725 L3.39657498,23.9808725 C2.773949,23.9808725 2.07961408,23.1994527 2.07961408,22.5869209 L2.07961408,15.2876971 L3.78974336,15.2876971 L3.79015358,15.2876971 Z" id="Shape"></path>
            </g>
        </g>
    </g>
</svg>