<?xml version="1.0" standalone="no"?>
<!DOCTYPE svg PUBLIC "-//W3C//DTD SVG 1.1//EN" "http://www.w3.org/Graphics/SVG/1.1/DTD/svg11.dtd" >
<!--
2013-9-30: Created.
-->
<svg>
<metadata>
Created by iconfont
</metadata>
<defs>

<font id="iconfont" horiz-adv-x="1024" >
  <font-face
    font-family="iconfont"
    font-weight="500"
    font-stretch="normal"
    units-per-em="1024"
    ascent="896"
    descent="-128"
  />
    <missing-glyph />
    
    <glyph glyph-name="x" unicode="x" horiz-adv-x="1001"
d="M281 543q-27 -1 -53 -1h-83q-18 0 -36.5 -6t-32.5 -18.5t-23 -32t-9 -45.5v-76h912v41q0 16 -0.5 30t-0.5 18q0 13 -5 29t-17 29.5t-31.5 22.5t-49.5 9h-133v-97h-438v97zM955 310v-52q0 -23 0.5 -52t0.5 -58t-10.5 -47.5t-26 -30t-33 -16t-31.5 -4.5q-14 -1 -29.5 -0.5
t-29.5 0.5h-32l-45 128h-439l-44 -128h-29h-34q-20 0 -45 1q-25 0 -41 9.5t-25.5 23t-13.5 29.5t-4 30v167h911zM163 247q-12 0 -21 -8.5t-9 -21.5t9 -21.5t21 -8.5q13 0 22 8.5t9 21.5t-9 21.5t-22 8.5zM316 123q-8 -26 -14 -48q-5 -19 -10.5 -37t-7.5 -25t-3 -15t1 -14.5
t9.5 -10.5t21.5 -4h37h67h81h80h64h36q23 0 34 12t2 38q-5 13 -9.5 30.5t-9.5 34.5q-5 19 -11 39h-368zM336 498v228q0 11 2.5 23t10 21.5t20.5 15.5t34 6h188q31 0 51.5 -14.5t20.5 -52.5v-227h-327z" />
    

    
    <glyph glyph-name="callx" unicode="&#58890;" d="M512 896C229.010286 896 0 666.441143 0 384c0-282.989714 229.558857-512 512-512 282.989714 0 512 229.558857 512 512 0.548571 282.441143-229.010286 512-512 512z m199.314286-747.629714c-36.352-36.352-170.678857-1.645714-303.908572 131.035428-132.681143 132.681143-166.838857 267.556571-130.486857 303.323429 31.378286 31.378286 69.376 85.906286 126.610286 14.884571 57.270857-71.021714 29.184-90.843429-3.291429-123.318857-22.564571-22.564571 24.758857-79.835429 73.764572-128.841143 49.554286-49.005714 106.276571-96.329143 128.841143-73.764571 32.475429 32.475429 52.297143 60.562286 123.318857 3.291428 71.570286-57.234286 16.530286-95.780571-14.884572-126.610285z"  horiz-adv-x="1024" />

    
    <glyph glyph-name="zujix" unicode="&#58892;" d="M909.69568 212.288a34.56 34.56 0 1 1-43.264-53.888c24.128-19.584 56.64-77.76 56.64-110.592 0-58.496-47.36-106.048-105.728-106.048a106.112 106.112 0 0 0-86.592 44.928c-2.368 3.328-66.496 96-103.808 136.32-65.92 70.656-176.64 66.688-177.088 66.688C309.75968 218.624 213.75968 332.8 231.35968 449.472c8.768 58.176 44.224 109.248 100.16 143.552 57.792 35.456 129.92 49.024 203.072 37.824 73.216-10.944 138.048-45.312 182.784-96.192 43.328-49.408 62.272-108.48 53.568-166.848-3.392-22.4-10.624-43.84-21.952-63.808a34.688 34.688 0 0 1 13.184-47.168c16.512-9.28 37.76-3.52 47.04 13.248 15.232 27.392 25.408 56.896 29.888 87.424 11.904 78.912-12.992 157.952-70.08 223.04C713.59968 643.712 633.79168 686.08 544.63968 699.52c-89.216 13.44-177.792-3.392-249.536-47.36-73.6-45.312-120.576-113.6-132.288-192.448-23.04-153.088 96.832-301.696 272.96-338.24 2.368-0.576 96.384 1.152 140.416-46.208 38.656-41.408 97.728-131.456 102.208-134.272A174.464 174.464 0 0 1 817.15168-128 175.36 175.36 0 0 1 991.99968 47.424c0.192 56.32-43.264 133.504-82.304 164.864zM31.99968 640c0-35.264 28.736-64 64-64 35.264 0 64 28.736 64 64 0 35.264-28.736 64-64 64-35.264 0-64-28.736-64-64zM280.31968 704a56.704 56.704 0 0 0-36.416 13.184 55.232 55.232 0 0 0-7.04 77.824C241.47168 800.64 352.89568 929.152 562.55968 887.808a55.68 55.68 0 0 0 44.288-65.472 56.256 56.256 0 0 0-66.304-43.712c-142.016 28.16-214.4-51.84-217.408-55.232A56.64 56.64 0 0 0 280.31968 704z"  horiz-adv-x="1024" />

    
    <glyph glyph-name="bianjiiconx" unicode="&#58941;" d="M1024 429.511111v-466.488889c0-51.2-39.822222-91.022222-91.022222-91.022222H96.711111c-51.2 0-91.022222 39.822222-91.022222 91.022222V804.977778C5.688889 856.177778 45.511111 896 96.711111 896h466.488889v-91.022222H96.711111v-836.266667h836.266667V435.2H1024zM932.977778 896L466.488889 429.511111v-91.022222h91.022222L1024 804.977778V896h-91.022222z"  horiz-adv-x="1024" />

    
    <glyph glyph-name="x" unicode="&#58942;" d="M804.571429 384L307.2 874.057143C299.885714 881.371429 277.942857 881.371429 270.628571 874.057143L248.685714 852.114286c-14.628571-7.314286-14.628571-29.257143 0-36.571429L680.228571 384 248.685714-47.542857c-14.628571-7.314286-14.628571-29.257143 0-36.571429l21.942857-21.942857c7.314286-7.314286 29.257143-7.314286 36.571429 0L804.571429 384z"  horiz-adv-x="1024" />

    
    <glyph glyph-name="dingdaniconx" unicode="&#58943;" d="M823.466667 861.866667H768c-17.066667 0-34.133333-12.8-34.133333-29.866667s17.066667-34.133333 34.133333-34.133333h55.466667c34.133333 0 55.466667-25.6 55.466666-64V0c0-38.4-21.333333-64-55.466666-64H213.333333c-34.133333 0-72.533333 25.6-72.533333 64V738.133333c0 38.4 21.333333 64 55.466667 64h72.533333c17.066667 0 21.333333 17.066667 21.333333 34.133334S285.866667 861.866667 268.8 861.866667H200.533333C119.466667 861.866667 85.333333 806.4 85.333333 733.866667v-725.333334C85.333333-72.533333 128-128 204.8-128h614.4c76.8 0 119.466667 46.933333 119.466667 136.533333v725.333334c0 72.533333-38.4 128-115.2 128z m-554.666667-285.866667c0-17.066667 12.8-34.133333 29.866667-34.133333h426.666666c17.066667 0 29.866667 17.066667 29.866667 34.133333s-12.8 34.133333-29.866667 34.133333H298.666667c-17.066667 0-29.866667-17.066667-29.866667-34.133333zM725.333333 430.933333H298.666667c-17.066667 0-29.866667-17.066667-29.866667-34.133333s12.8-34.133333 29.866667-34.133333h426.666666c17.066667 0 29.866667 17.066667 29.866667 34.133333 0 21.333333-12.8 34.133333-29.866667 34.133333z m0-192H298.666667c-17.066667 0-29.866667-17.066667-29.866667-34.133333s12.8-34.133333 29.866667-34.133333h426.666666c17.066667 0 29.866667 17.066667 29.866667 34.133333 0 21.333333-12.8 34.133333-29.866667 34.133333zM413.866667 785.066667h196.266666c21.333333 0 42.666667 25.6 42.666667 55.466666 0 29.866667-21.333333 55.466667-42.666667 55.466667H413.866667c-25.6 0-42.666667-25.6-42.666667-55.466667 0-29.866667 17.066667-55.466667 42.666667-55.466666z"  horiz-adv-x="1024" />

    
    <glyph glyph-name="dingweix" unicode="&#58944;" d="M512 896C273.066667 896 85.333333 716.8 85.333333 503.466667c0-204.8 349.866667-571.733333 392.533334-614.4 8.533333-8.533333 25.6-17.066667 34.133333-17.066667 17.066667 0 25.6 8.533333 34.133333 17.066667 42.666667 42.666667 392.533333 409.6 392.533334 614.4C938.666667 716.8 742.4 896 512 896z m0-563.2c-93.866667 0-170.666667 68.266667-170.666667 162.133333s76.8 162.133333 170.666667 162.133334 170.666667-68.266667 170.666667-162.133334c0-93.866667-76.8-162.133333-170.666667-162.133333z"  horiz-adv-x="1024" />

    
    <glyph glyph-name="duigouiconx" unicode="&#58945;" d="M0 250.88S286.72 128 430.08-128C604.16 189.44 931.84 486.4 1024 506.88V896C634.88 640 440.32 168.96 440.32 168.96L235.52 384 0 250.88z"  horiz-adv-x="1024" />

    
    <glyph glyph-name="fanhuiiconx" unicode="&#58946;" d="M209.454545 384l493.381819 460.8c9.309091 9.309091 23.272727 9.309091 32.581818 0l27.927273-27.927273c9.309091-9.309091 9.309091-23.272727 0-32.581818L335.127273 384l428.218182-400.290909c9.309091-9.309091 9.309091-23.272727 0-32.581818l-27.927273-27.927273c-9.309091-9.309091-23.272727-9.309091-32.581818 0L209.454545 384z"  horiz-adv-x="1024" />

    
    <glyph glyph-name="fankuix" unicode="&#58947;" d="M790.755556-76.8h-625.777778c-56.888889 0-102.4 45.511111-102.4 102.4V725.333333c0 56.888889 45.511111 102.4 102.4 102.4h489.244444c17.066667 0 34.133333-17.066667 34.133334-34.133333s-17.066667-34.133333-34.133334-34.133333H164.977778c-22.755556 0-39.822222-17.066667-39.822222-34.133334v-694.044444c0-17.066667 17.066667-34.133333 34.133333-34.133333h625.777778c17.066667 0 34.133333 17.066667 34.133333 34.133333V583.111111c0 17.066667 17.066667 34.133333 34.133333 34.133333s34.133333-17.066667 34.133334-34.133333v-557.511111c5.688889-56.888889-39.822222-102.4-96.711111-102.4zM585.955556 480.711111c-11.377778 0-17.066667 0-28.444445 11.377778s-11.377778 34.133333 0 51.2L904.533333 890.311111c11.377778 11.377778 34.133333 11.377778 51.2 0s11.377778-34.133333 0-51.2L608.711111 486.4c-5.688889-5.688889-17.066667-5.688889-22.755555-5.688889zM443.733333 480.711111H233.244444c-17.066667 0-34.133333 17.066667-34.133333 34.133333s17.066667 34.133333 34.133333 34.133334h210.488889c17.066667 0 34.133333-17.066667 34.133334-34.133334 0-22.755556-17.066667-34.133333-34.133334-34.133333zM648.533333 270.222222H233.244444c-17.066667 0-34.133333 17.066667-34.133333 34.133334s17.066667 34.133333 34.133333 34.133333h415.288889c17.066667 0 34.133333-17.066667 34.133334-34.133333s-11.377778-34.133333-34.133334-34.133334z"  horiz-adv-x="1024" />

    
    <glyph glyph-name="chaozhibaokuanx" unicode="&#58948;" d="M1126.4 660.48h76.8l10.24 128h184.32l-10.24-128h76.8L1459.2 588.8H1382.4l-15.36-158.72h87.04l-5.12-71.68h-51.2l-15.36-143.36h51.2l-5.12-71.68H1382.4l-15.36-148.48 51.2-35.84h445.44l-5.12-71.68H1326.08L1167.36-25.6l-10.24-87.04h-107.52l46.08 404.48h107.52l-20.48-179.2 25.6-15.36 25.6 266.24h-138.24l5.12 71.68h87.04l15.36 158.72H1126.4V660.48z m348.16-317.44h414.72l-25.6-250.88c-5.12-61.44-56.32-112.64-107.52-112.64h-317.44l35.84 363.52z m40.96 424.96h414.72L1904.64 486.4c-5.12-61.44-56.32-112.64-107.52-112.64h-112.64l5.12 71.68h20.48c15.36 0 25.6 10.24 25.6 25.6l20.48 215.04h-46.08l-56.32-317.44H1484.8l56.32 317.44h-35.84l10.24 81.92z m209.92-501.76h-97.28l-20.48-209.92h76.8c15.36 0 25.6 10.24 25.6 25.6l15.36 184.32zM3747.84 148.48l-40.96-266.24h-87.04l40.96 266.24h87.04z m-97.28 112.64h404.48l-5.12-71.68h-122.88l-20.48-220.16c-5.12-51.2-40.96-92.16-81.92-92.16h-107.52l5.12 61.44h10.24c10.24 0 15.36 5.12 20.48 20.48l20.48 230.4h-128l5.12 71.68z m40.96 440.32h112.64l10.24 87.04H3993.6l-10.24-87.04H4096l-5.12-76.8h-112.64l-10.24-97.28h107.52l-5.12-71.68h-389.12l5.12 71.68h107.52l10.24 97.28H3686.4l5.12 76.8zM3686.4 404.48h363.52l-10.24-71.68h-363.52l10.24 71.68z m337.92-256l-10.24-266.24h-87.04l5.12 266.24h92.16z m220.16-122.88l-56.32-153.6H4044.8l143.36 373.76 20.48 215.04h158.72l-20.48-215.04 76.8-373.76h-148.48l-30.72 153.6z m66.56 768L4300.8 721.92h204.8l-46.08-240.64h-148.48l30.72 168.96h-61.44L4249.6 481.28h-148.48L4162.56 793.6h148.48zM291.84-128h-20.48c-20.48 5.12-40.96 10.24-56.32 20.48-30.72 15.36-56.32 30.72-81.92 51.2-15.36 10.24-25.6 25.6-35.84 35.84-40.96 51.2-71.68 107.52-81.92 174.08-5.12 25.6-10.24 51.2-10.24 76.8 0 61.44 15.36 117.76 35.84 168.96 10.24 20.48 66.56 128 87.04 158.72 10.24 15.36 20.48 20.48 35.84 20.48 15.36 0 25.6-10.24 30.72-25.6 5.12-10.24 10.24-15.36 10.24-25.6 15.36 15.36 30.72 35.84 40.96 56.32 30.72 51.2 51.2 107.52 56.32 163.84V844.8c0 15.36 5.12 30.72 15.36 40.96 15.36 10.24 25.6 10.24 40.96 5.12 30.72-15.36 61.44-30.72 87.04-51.2 10.24-5.12 20.48-15.36 25.6-20.48 20.48-20.48 40.96-40.96 61.44-66.56 25.6-35.84 51.2-76.8 66.56-122.88v40.96c0 15.36 5.12 35.84 20.48 40.96 15.36 10.24 30.72 10.24 40.96 0C768 634.88 819.2 496.64 819.2 307.2c0-179.2-92.16-343.04-240.64-424.96-15.36-5.12-30.72-5.12-40.96 5.12-10.24 10.24-15.36 25.6-15.36 40.96v25.6c0 10.24 0 20.48-5.12 30.72-5.12 30.72-15.36 56.32-35.84 76.8-15.36-61.44-51.2-112.64-97.28-153.6-15.36-10.24-30.72-25.6-56.32-30.72-5.12 0-20.48-5.12-35.84-5.12zM153.6 445.44c-20.48-35.84-40.96-71.68-46.08-76.8-20.48-40.96-30.72-81.92-30.72-128 0-20.48 0-40.96 5.12-56.32 10.24-46.08 30.72-92.16 61.44-133.12l30.72-30.72c20.48-15.36 40.96-30.72 66.56-40.96h5.12c10.24-5.12 20.48-10.24 30.72-10.24 10.24 0 20.48 0 30.72 5.12l30.72 15.36C384 25.6 409.6 76.8 409.6 133.12v15.36c0 15.36 5.12 30.72 15.36 40.96 10.24 10.24 25.6 10.24 40.96 5.12 5.12 0 10.24-5.12 15.36-10.24 61.44-40.96 102.4-102.4 112.64-174.08 92.16 71.68 143.36 184.32 143.36 307.2 0 112.64-20.48 204.8-66.56 266.24 0-10.24-5.12-20.48-5.12-35.84-10.24-51.2-51.2-92.16-56.32-97.28-10.24-10.24-25.6-15.36-40.96-10.24-15.36 5.12-25.6 20.48-25.6 35.84 0 40.96-10.24 81.92-25.6 117.76-15.36 35.84-30.72 66.56-51.2 97.28-5.12 20.48-25.6 35.84-40.96 56.32-10.24 5.12-15.36 10.24-25.6 15.36l-15.36 15.36c0-15.36 0-25.6-5.12-40.96-10.24-71.68-30.72-143.36-71.68-204.8-10.24-25.6-30.72-51.2-51.2-71.68-10.24-15.36-25.6-25.6-35.84-40.96-20.48-15.36-40.96-10.24-56.32 10.24 0 5.12-5.12 5.12-10.24 15.36zM3051.52 788.48H2918.4l-40.96-486.4-117.76-424.96h117.76l35.84 128 10.24-128h117.76l-35.84 424.96zM3092.48 5.12l-30.72-128h128l30.72 128zM2897.92 721.92h-56.32l-40.96-414.72h56.32zM3077.12 307.2l40.96 414.72h-56.32l-40.96-414.72zM3251.2-25.6c0-15.36-10.24-20.48-20.48-20.48H3225.6l-5.12-71.68h97.28c40.96 0 81.92 40.96 87.04 92.16l20.48 220.16H3276.8l-25.6-220.16zM3220.48 25.6l-10.24 102.4h-122.88l10.24-102.4zM3630.08 588.8l15.36 189.44h-491.52l-25.6-281.6h71.68l-5.12-40.96H3123.2l-5.12-71.68h71.68l-10.24-51.2h-76.8l-5.12-71.68h46.08l-56.32-112.64h153.6l51.2 112.64h112.64l30.72-112.64h153.6l-30.72 112.64h46.08l5.12 71.68H3532.8l5.12 46.08h66.56l5.12 71.68h-66.56l5.12 40.96c40.96 10.24 76.8 51.2 81.92 97.28z m-240.64-256H3328l5.12 46.08h61.44l-5.12-46.08z m10.24 122.88h-61.44l5.12 40.96h61.44l-5.12-40.96z m76.8 138.24c0-15.36-15.36-25.6-30.72-25.6h-158.72l5.12 35.84h148.48l5.12 71.68h-148.48l5.12 35.84h184.32l-10.24-117.76zM3435.52 25.6h128l30.72 102.4h-128zM3435.52 5.12l10.24-128h122.88l-5.12 128zM2191.36 563.2L2252.8 793.6h-189.44L1945.6 363.52h66.56l-46.08-486.4h189.44l61.44 686.08zM2780.16 650.24l5.12 71.68h-143.36l5.12 71.68h-215.04l-5.12-71.68h-148.48l-5.12-71.68h148.48l-5.12-81.92h-117.76l-56.32-619.52H2201.6l-5.12-71.68h522.24l5.12 71.68h-35.84l56.32 619.52h-117.76l5.12 81.92h148.48z m-261.12-701.44H2406.4l10.24 81.92h81.92l5.12 71.68h-81.92l5.12 81.92H2508.8l5.12 71.68h-81.92l5.12 76.8h87.04l5.12 71.68h-87.04l15.36 92.16h112.64l-51.2-547.84z"  horiz-adv-x="4505" />

    
    <glyph glyph-name="guanbiiconx" unicode="&#58949;" d="M1024 793.6L921.6 896 512 486.4 102.4 896 0 793.6 409.6 384 0-25.6 102.4-128 512 281.6l409.6-409.6 102.4 102.4L614.4 384z"  horiz-adv-x="1024" />

    
    <glyph glyph-name="jindux" unicode="&#58950;" d="M455.68 168.96c15.36 0 25.6 5.12 35.84 15.36l307.2 307.2c15.36 15.36 15.36 46.08 0 61.44-15.36 15.36-46.08 15.36-61.44 0L460.8 276.48 317.44 414.72c-20.48 15.36-46.08 15.36-61.44 0-15.36-15.36-15.36-46.08 0-61.44l168.96-168.96c5.12-10.24 15.36-15.36 30.72-15.36zM762.88 15.36c-71.68-51.2-158.72-76.8-250.88-76.8-245.76 0-445.44 199.68-445.44 445.44 0 87.04 25.6 174.08 76.8 245.76 5.12 10.24 10.24 20.48 0 30.72-5.12 15.36-15.36 20.48-30.72 20.48-10.24 0-20.48-5.12-25.6-15.36C30.72 583.68 0 486.4 0 384c0-281.6 230.4-512 512-512 102.4 0 199.68 30.72 286.72 87.04 10.24 5.12 15.36 15.36 15.36 30.72 0 10.24-10.24 20.48-20.48 25.6-10.24 5.12-20.48 5.12-30.72 0zM512 896C404.48 896 296.96 860.16 209.92 798.72c-15.36-10.24-15.36-30.72-5.12-46.08 10.24-15.36 30.72-20.48 46.08-10.24C327.68 798.72 419.84 829.44 512 829.44c245.76 0 445.44-199.68 445.44-445.44 0-92.16-30.72-184.32-87.04-261.12-5.12-10.24-10.24-20.48-5.12-30.72 5.12-10.24 15.36-20.48 25.6-20.48s25.6 5.12 30.72 15.36c66.56 87.04 97.28 194.56 97.28 302.08C1024 665.6 793.6 896 512 896z"  horiz-adv-x="1024" />

    
    <glyph glyph-name="fenlei-iconx" unicode="&#58951;" d="M170.666667 896h68.266666c93.866667 0 170.666667-76.8 170.666667-170.666667v-132.266666c0-93.866667-76.8-170.666667-170.666667-170.666667H170.666667c-93.866667 0-170.666667 76.8-170.666667 170.666667V725.333333c0 93.866667 76.8 170.666667 170.666667 170.666667z m0-550.4h68.266666c93.866667 0 170.666667-76.8 170.666667-170.666667V42.666667c0-93.866667-76.8-170.666667-170.666667-170.666667H170.666667c-93.866667 0-170.666667 76.8-170.666667 170.666667v132.266666c0 93.866667 76.8 170.666667 170.666667 170.666667z m384-38.4h388.266666c42.666667 0 76.8-34.133333 76.8-76.8s-34.133333-76.8-76.8-76.8H554.666667c-42.666667 0-76.8 34.133333-76.8 76.8s34.133333 76.8 76.8 76.8z m0-238.933333h388.266666c42.666667 0 76.8-34.133333 76.8-76.8s-34.133333-76.8-76.8-76.8H554.666667c-42.666667 0-76.8 34.133333-76.8 76.8s34.133333 76.8 76.8 76.8zM554.666667 857.6h388.266666c42.666667 0 76.8-34.133333 76.8-76.8s-34.133333-76.8-76.8-76.8H554.666667c-42.666667 0-76.8 34.133333-76.8 76.8S512 857.6 554.666667 857.6z m0-238.933333h388.266666c42.666667 0 76.8-34.133333 76.8-76.8s-34.133333-76.8-76.8-76.8H554.666667c-42.666667 0-76.8 34.133333-76.8 76.8S512 618.666667 554.666667 618.666667z"  horiz-adv-x="1024" />

    
    <glyph glyph-name="jinribiqiangx" unicode="&#58952;" d="M1768.727273 491.054545l-13.963637-116.363636h349.090909L1815.272727-6.981818h-256l242.036364 316.509091H1163.636364l9.309091 65.163636h349.090909l13.963636 116.363636h232.727273z m349.090909-46.545454l-228.072727 381.672727h-395.636364l-321.163636-381.672727h265.30909l246.69091 288.581818 172.218181-288.581818h260.654546zM3030.109091 72.145455c-4.654545-46.545455-51.2-83.781818-107.054546-83.781819H2159.709091l97.745454 823.854546H3118.545455l-88.436364-740.072727z m-200.145455 297.890909h-390.981818l-37.236363-311.854546h363.054545c13.963636 0 32.581818 13.963636 32.581818 27.927273l32.581818 283.927273z m-381.672727 65.163636H2839.272727l37.236364 311.854545h-390.981818l-37.236364-311.854545zM3672.436364 737.745455l-41.890909-344.436364 507.345454 283.927273-13.963636-121.018182-507.345455-283.927273-23.272727-214.109091h251.345454l-9.30909-65.163636H3355.927273l18.618182 144.290909-256-144.290909 13.963636 121.018182 256 144.290909L3444.363636 737.745455h228.072728z m-265.309091-93.09091L3332.654545 244.363636h-181.527272l74.472727 395.636364h181.527273z m297.890909 186.181819l-9.309091-274.618182h200.145454l9.309091 274.618182h-200.145454z m172.218182-432.872728l-9.309091-377.018181h195.490909l9.309091 377.018181h-195.490909zM4491.636364 830.836364l-18.618182-162.909091h65.163636l-9.309091-69.818182h-65.163636l-27.927273-246.690909 69.818182 13.963636-9.309091-65.163636-69.818182-13.963637-23.272727-209.454545c-4.654545-46.545455-65.163636-83.781818-130.327273-83.781818h-153.6l9.309091 69.818182h23.272727c18.618182 0 37.236364 9.309091 41.89091 23.272727l18.618181 158.254545-69.818181-13.963636 9.30909 69.818182 65.163637 13.963636 32.581818 288.581818h-65.163636l9.309091 69.818182h65.163636l18.618182 162.909091h214.109091z m274.618181-437.527273l-37.236363-335.127273h335.127273l-9.309091-65.163636H4505.6l55.854545 465.454545h512l-32.581818-269.963636c-4.654545-37.236364-41.890909-65.163636-83.781818-65.163636h-181.527273l9.309091 65.163636h32.581818c9.309091 0 18.618182 9.309091 18.618182 18.618182l23.272728 186.181818h-93.09091z m79.127273 260.654545l-93.090909-167.563636h-218.763636l195.490909 344.436364h269.963636l116.363637-344.436364h-218.763637l-51.2 167.563636zM130.327273-123.345455c-9.309091 0-13.963636 0-18.618182 4.654546-18.618182 9.309091-27.927273 27.927273-23.272727 46.545454l79.127272 335.127273-116.363636 4.654546c-13.963636 0-27.927273 4.654545-37.236364 13.963636-9.309091 9.309091-9.309091 23.272727-9.309091 32.581818L167.563636 863.418182c4.654545 18.618182 23.272727 32.581818 41.890909 32.581818h558.545455c18.618182 0 32.581818-9.309091 41.890909-23.272727 9.309091-13.963636 9.309091-27.927273 0-41.890909l-209.454545-283.927273h130.327272c18.618182 0 32.581818-9.309091 41.890909-23.272727 9.309091-13.963636 4.654545-32.581818-9.30909-41.890909L167.563636-109.381818c-9.309091-9.309091-23.272727-13.963636-37.236363-13.963637z m-23.272728 465.454546l116.363637-4.654546c13.963636 0 27.927273-4.654545 32.581818-13.963636 9.309091-9.309091 13.963636-23.272727 9.309091-32.581818l-55.854546-232.727273 409.6 409.6H512c-18.618182 0-32.581818 9.309091-41.890909 23.272727-9.309091 13.963636-9.309091 27.927273 0 41.89091l209.454545 283.927272H246.690909l-139.636364-474.763636z"  horiz-adv-x="5120" />

    
    <glyph glyph-name="jinhuodan-iconx" unicode="&#58953;" d="M183.466667 64c-46.933333 0-89.6-42.666667-89.6-93.866667 0-55.466667 38.4-98.133333 89.6-98.133333 46.933333 0 85.333333 42.666667 85.333333 93.866667 0 55.466667-38.4 98.133333-85.333333 98.133333z m486.4 0c-46.933333 0-89.6-42.666667-89.6-93.866667 0-51.2 38.4-93.866667 89.6-93.866666 46.933333 0 85.333333 42.666667 85.333333 93.866666 0 51.2-38.4 93.866667-85.333333 93.866667zM311.466667 883.2c-17.066667 17.066667-34.133333 17.066667-38.4-12.8-8.533333-29.866667-34.133333-38.4-59.733334-21.333333-21.333333 21.333333-42.666667 8.533333-38.4-21.333334 0-29.866667-21.333333-46.933333-46.933333-38.4-25.6 12.8-42.666667 0-29.866667-29.866666 8.533333-29.866667-4.266667-51.2-34.133333-51.2-29.866667 0-38.4-17.066667-21.333333-42.666667s8.533333-55.466667-17.066667-64c-29.866667-8.533333-34.133333-29.866667-8.533333-46.933333 25.6-17.066667 25.6-46.933333 0-64-21.333333-17.066667-21.333333-34.133333 0-46.933334h430.933333L311.466667 883.2z m640-226.133333c-34.133333 0-59.733333-25.6-68.266667-59.733334-145.066667-55.466667-140.8-221.866667-140.8-221.866666H21.333333c8.533333-196.266667 183.466667-349.866667 401.066667-349.866667 213.333333 0 388.266667 153.6 401.066667 349.866667-4.266667 89.6 59.733333 132.266667 76.8 145.066666 12.8-12.8 29.866667-21.333333 51.2-21.333333 42.666667 0 72.533333 34.133333 72.533333 81.066667 0 42.666667-34.133333 76.8-72.533333 76.8z"  horiz-adv-x="1024" />

    
    <glyph glyph-name="liebiaoxianshix" unicode="&#58954;" d="M372.363636 258.327273H27.927273c-13.963636 0-27.927273-13.963636-27.927273-27.927273v-330.472727c0-13.963636 13.963636-27.927273 27.927273-27.927273H372.363636c13.963636 0 27.927273 13.963636 27.927273 27.927273v330.472727c0 18.618182-13.963636 27.927273-27.927273 27.927273z m-27.927272-330.472728H60.509091v279.272728h283.927273v-279.272728z m930.909091 283.927273H558.545455c-13.963636 0-27.927273-13.963636-27.927273-27.927273s13.963636-27.927273 27.927273-27.927272h716.8c13.963636 0 27.927273 13.963636 27.927272 27.927272s-13.963636 27.927273-27.927272 27.927273z m0-237.381818H558.545455c-13.963636 0-27.927273-13.963636-27.927273-27.927273s13.963636-27.927273 27.927273-27.927272h716.8c13.963636 0 27.927273 13.963636 27.927272 27.927272 0 18.618182-13.963636 27.927273-27.927272 27.927273zM372.363636 896H27.927273C13.963636 896 0 882.036364 0 868.072727v-330.472727c0-13.963636 13.963636-27.927273 27.927273-27.927273H372.363636c13.963636 0 27.927273 13.963636 27.927273 27.927273V868.072727C400.290909 882.036364 386.327273 896 372.363636 896z m-27.927272-330.472727H60.509091v279.272727h283.927273v-279.272727z m209.454545 228.072727h716.8c13.963636 0 27.927273 13.963636 27.927273 27.927273s-13.963636 27.927273-27.927273 27.927272H553.890909c-13.963636 0-27.927273-13.963636-27.927273-27.927272 0-18.618182 13.963636-27.927273 27.927273-27.927273z m721.454546-181.527273H558.545455c-13.963636 0-27.927273-13.963636-27.927273-27.927272s13.963636-27.927273 27.927273-27.927273h716.8c13.963636 0 27.927273 13.963636 27.927272 27.927273s-13.963636 27.927273-27.927272 27.927272z"  horiz-adv-x="1303" />

    
    <glyph glyph-name="kefux" unicode="&#58955;" d="M1001.73913 486.4C961.669565 722.365217 765.773913 896 534.26087 896S106.852174 713.46087 66.782609 486.4C26.713043 450.782609 0 388.452174 0 326.121739c0-84.591304 48.973913-182.53913 120.208696-182.53913 66.782609 0 66.782609 75.686957 66.782608 182.53913 0 97.947826 0 173.634783-48.973913 182.539131 44.521739 186.991304 200.347826 325.008696 396.243479 325.008695s356.173913-138.017391 396.243478-320.556522c-48.973913-13.356522-48.973913-84.591304-48.973913-182.53913 0-71.234783 0-120.208696 13.356522-151.373913-62.330435-97.947826-146.921739-169.182609-253.773914-195.895652-17.808696 26.713043-62.330435 48.973913-106.852173 48.973913-66.782609 0-120.208696-35.617391-120.208696-75.686957 0-40.069565 53.426087-75.686957 120.208696-75.686956s120.208696 35.617391 120.208695 75.686956c106.852174 26.713043 200.347826 102.4 258.226087 200.347826 8.904348-8.904348 22.26087-8.904348 35.617391-8.904347 75.686957 0 120.208696 97.947826 120.208696 182.53913 0 57.878261-26.713043 120.208696-66.782609 155.826087z"  horiz-adv-x="1068" />

    
    <glyph glyph-name="pingjia-chapingx" unicode="&#58956;" d="M512-128c-66.56 0-138.24 15.36-199.68 40.96-61.44 25.6-117.76 61.44-163.84 107.52-46.08 46.08-81.92 102.4-107.52 163.84C15.36 245.76 0 317.44 0 384c0 66.56 15.36 138.24 40.96 199.68 25.6 61.44 61.44 112.64 107.52 163.84s102.4 81.92 163.84 107.52C373.76 880.64 445.44 896 512 896s138.24-15.36 199.68-40.96c61.44-25.6 117.76-61.44 163.84-107.52 46.08-46.08 81.92-102.4 107.52-163.84 25.6-61.44 40.96-133.12 40.96-199.68 0-66.56-15.36-138.24-40.96-199.68-25.6-61.44-61.44-117.76-107.52-163.84-46.08-46.08-102.4-81.92-163.84-107.52-61.44-25.6-133.12-40.96-199.68-40.96z m0 967.68c-250.88 0-455.68-204.8-455.68-455.68s204.8-455.68 455.68-455.68 455.68 204.8 455.68 455.68-204.8 455.68-455.68 455.68zM348.16 128c-5.12 0-15.36 5.12-20.48 10.24-10.24 10.24-10.24 30.72 0 40.96 35.84 35.84 87.04 71.68 199.68 71.68 102.4 0 163.84-40.96 199.68-71.68 10.24-10.24 10.24-30.72 0-40.96-10.24-10.24-30.72-10.24-40.96 0-25.6 25.6-71.68 56.32-158.72 56.32-87.04 0-128-30.72-158.72-56.32-5.12-5.12-10.24-10.24-20.48-10.24zM225.28 471.04c-10.24 0-25.6 10.24-25.6 20.48-5.12 15.36 5.12 30.72 20.48 35.84l163.84 40.96c15.36 5.12 30.72-5.12 35.84-20.48 5.12-15.36-5.12-30.72-20.48-35.84l-163.84-40.96h-10.24z m604.16 0h-5.12l-163.84 40.96c-15.36 5.12-25.6 20.48-20.48 35.84 5.12 15.36 20.48 25.6 35.84 20.48l163.84-40.96c15.36-5.12 25.6-20.48 20.48-35.84-5.12-10.24-15.36-20.48-30.72-20.48z"  horiz-adv-x="1024" />

    
    <glyph glyph-name="pubuliuxianshix" unicode="&#58957;" d="M541.866667 896H25.6C12.8 896 0 887.466667 0 874.666667v-529.066667c0-12.8 12.8-21.333333 25.6-21.333333h516.266667c12.8 0 25.6 8.533333 25.6 21.333333V874.666667c0 12.8-12.8 21.333333-25.6 21.333333zM51.2 366.933333V853.333333h465.066667v-482.133333H51.2zM1169.066667 896H652.8c-12.8 0-25.6-8.533333-25.6-21.333333v-358.4c0-12.8 12.8-21.333333 25.6-21.333334h516.266667c12.8 0 25.6 8.533333 25.6 21.333334V874.666667c0 12.8-12.8 21.333333-25.6 21.333333zM678.4 537.6V853.333333h465.066667v-311.466666H678.4zM25.6 273.066667c-12.8 0-25.6-8.533333-25.6-21.333334v-358.4c0-12.8 12.8-21.333333 25.6-21.333333h516.266667c12.8 0 25.6 8.533333 25.6 21.333333v358.4c0 12.8-12.8 21.333333-25.6 21.333334H25.6z m25.6-358.4v311.466666h465.066667V-85.333333H51.2z m601.6 529.066666c-12.8 0-25.6-8.533333-25.6-21.333333v-529.066667c0-12.8 12.8-21.333333 25.6-21.333333h516.266667c12.8 0 25.6 8.533333 25.6 21.333333V422.4c0 12.8-12.8 21.333333-25.6 21.333333H652.8z m25.6-529.066666V401.066667h465.066667V-85.333333H678.4z"  horiz-adv-x="1194" />

    
    <glyph glyph-name="pingjia-zhongpingx" unicode="&#58958;" d="M512-128c-66.56 0-138.24 15.36-199.68 40.96-61.44 25.6-117.76 61.44-163.84 107.52-46.08 46.08-81.92 102.4-107.52 163.84C15.36 245.76 0 317.44 0 384c0 66.56 15.36 138.24 40.96 199.68 25.6 61.44 61.44 112.64 107.52 163.84 46.08 46.08 102.4 81.92 163.84 107.52C373.76 880.64 445.44 896 512 896c66.56 0 138.24-15.36 199.68-40.96 61.44-25.6 117.76-61.44 163.84-107.52 46.08-46.08 81.92-102.4 107.52-163.84 25.6-61.44 40.96-133.12 40.96-199.68 0-66.56-15.36-138.24-40.96-199.68-25.6-61.44-61.44-117.76-107.52-163.84-46.08-46.08-102.4-81.92-163.84-107.52-61.44-25.6-133.12-40.96-199.68-40.96z m0 967.68c-250.88 0-455.68-204.8-455.68-455.68s204.8-455.68 455.68-455.68 455.68 204.8 455.68 455.68-204.8 455.68-455.68 455.68zM317.44 578.56c35.84 0 66.56-30.72 66.56-66.56 0-35.84-30.72-66.56-66.56-66.56S256 476.16 256 512c0 35.84 25.6 66.56 61.44 66.56z m389.12 0c35.84 0 66.56-30.72 66.56-66.56 0-35.84-30.72-66.56-66.56-66.56s-66.56 30.72-66.56 66.56c0 35.84 30.72 66.56 66.56 66.56z m-353.28-353.28h322.56c15.36 0 30.72-15.36 30.72-30.72s-15.36-30.72-30.72-30.72H353.28c-15.36 0-30.72 15.36-30.72 30.72-5.12 15.36 10.24 30.72 30.72 30.72z"  horiz-adv-x="1024" />

    
    <glyph glyph-name="quanqiujianhuox" unicode="&#58959;" d="M1863.68 465.92H1638.4L1500.16 691.2l-189.44-225.28h-220.16L1408 844.8h220.16l235.52-378.88z m-757.76-35.84h727.04l-10.24-71.68h-266.24l-15.36-138.24h266.24l-10.24-71.68H1536l-15.36-133.12h291.84l-10.24-71.68H1024l10.24 71.68h291.84l15.36 133.12H1075.2l10.24 71.68h266.24l15.36 138.24h-266.24l5.12 71.68z m1515.52 409.6h122.88l5.12-117.76h-122.88l-5.12 117.76z m-378.88-276.48h122.88l-15.36-261.12h-122.88l15.36 261.12z m363.52 0h122.88l-40.96-261.12H2560l46.08 261.12zM2667.52-76.8h-122.88l10.24 322.56h122.88l-10.24-322.56z m-384 0h-122.88l61.44 322.56h122.88L2283.52-76.8zM1935.36 742.4l10.24 71.68h235.52L2170.88 742.4h-40.96l-35.84-337.92h35.84l-5.12-71.68h-35.84l-35.84-327.68h46.08l-10.24-71.68H1843.2l10.24 71.68h40.96l35.84 327.68H1894.4l10.24 71.68h35.84l35.84 337.92h-40.96z m245.76-133.12l10.24 71.68h179.2l15.36 163.84h163.84l-15.36-158.72h168.96l-10.24-71.68h-168.96L2457.6 15.36c-5.12-51.2-46.08-92.16-92.16-92.16H2252.8l10.24 71.68h10.24c10.24 0 25.6 10.24 25.6 30.72l66.56 588.8h-184.32z m1177.6 189.44H3532.8v-373.76h-168.96l-5.12 373.76z m-414.72-373.76h-174.08L2856.96 793.6h174.08l-87.04-368.64z m307.2 20.48h-189.44l46.08 394.24h189.44l-46.08-394.24z m-506.88-194.56l10.24 71.68h291.84l10.24 97.28h194.56l-10.24-97.28H3532.8l-10.24-71.68h-250.88l189.44-250.88h35.84l-10.24-76.8H3276.8l-158.72 209.92-204.8-209.92h-209.92l10.24 76.8h35.84l240.64 250.88h-245.76z m1305.6 56.32l-15.36-117.76 56.32-46.08 20.48 194.56h-317.44l-20.48-194.56 66.56 46.08 15.36 117.76h194.56z m-389.12 122.88l15.36 158.72h-81.92l117.76 256h184.32L3840 716.8h30.72L3840 430.08h-179.2z m563.2 409.6l-15.36-143.36 179.2 46.08-10.24-71.68-179.2-46.08-15.36-122.88h174.08l-10.24-71.68h-368.64l15.36 143.36-122.88-30.72 20.48 76.8 122.88 30.72 20.48 189.44h189.44zM3624.96 404.48h680.96l-35.84-302.08h-133.12l122.88-107.52h46.08l-5.12-66.56h-240.64l-133.12 117.76-158.72-117.76h-240.64l5.12 66.56h46.08l148.48 107.52h-133.12l30.72 302.08zM819.2 844.8l-204.8 46.08c-40.96 10.24-87.04 0-122.88-30.72L20.48 440.32c-10.24-5.12-15.36-15.36-15.36-25.6s0-25.6 10.24-30.72L358.4-107.52c0-15.36 15.36-20.48 25.6-20.48s15.36 5.12 25.6 10.24l471.04 414.72c35.84 30.72 56.32 81.92 56.32 133.12V675.84c0 81.92-51.2 148.48-117.76 168.96z m15.36-476.16l-440.32-389.12-296.96 419.84 445.44 389.12c15.36 15.36 35.84 20.48 56.32 15.36l199.68-46.08c35.84-10.24 56.32-40.96 56.32-81.92v-245.76c5.12-25.6-5.12-46.08-20.48-61.44zM665.6 634.88c-35.84 0-71.68-35.84-71.68-76.8s30.72-76.8 71.68-76.8c35.84 0 71.68 35.84 71.68 76.8s-35.84 76.8-71.68 76.8z"  horiz-adv-x="4403" />

    
    <glyph glyph-name="shanchuiconx" unicode="&#58960;" d="M721.92 896H302.08v-158.72H51.2v-76.8h81.92V-128h752.64V660.48H972.8V737.28h-250.88V896zM384 819.2h250.88V742.4H384V819.2zM220.16 660.48h588.8v-706.56H220.16V660.48z m368.64-81.92V25.6h81.92V578.56h-81.92z m-235.52 0V25.6h81.92V578.56H353.28z"  horiz-adv-x="1024" />

    
    <glyph glyph-name="shaixuaniconx" unicode="&#58961;" d="M399.36 5.12L624.64-128V384L1024 824.32V896H0v-71.68L399.36 384z"  horiz-adv-x="1024" />

    
    <glyph glyph-name="shezhix" unicode="&#58962;" d="M311.466667 81.066667l25.6-12.8c25.6-12.8 46.933333-25.6 72.533333-29.866667l25.6-8.533333 8.533333-72.533334h136.533334l8.533333 72.533334 25.6 8.533333c25.6 8.533333 46.933333 17.066667 72.533333 29.866667l25.6 12.8 55.466667-46.933334 98.133333 98.133334-46.933333 55.466666 12.8 25.6c12.8 21.333333 21.333333 46.933333 29.866667 72.533334l8.533333 25.6 72.533333 8.533333v136.533333l-72.533333 8.533334-8.533333 25.6c-8.533333 21.333333-21.333333 46.933333-34.133334 68.266666l-12.8 25.6L861.866667 640l-98.133334 98.133333-55.466666-46.933333-25.6 12.8c-21.333333 12.8-42.666667 21.333333-68.266667 29.866667l-25.6 8.533333-8.533333 68.266667h-136.533334l-8.533333-72.533334-25.6-4.266666c-25.6-8.533333-51.2-17.066667-72.533333-29.866667l-25.6-17.066667-51.2 46.933334-98.133334-98.133334 46.933334-55.466666-17.066667-21.333334c-12.8-25.6-21.333333-46.933333-29.866667-72.533333l-8.533333-25.6-68.266667-8.533333v-136.533334l72.533334-8.533333 8.533333-25.6c4.266667-25.6 12.8-46.933333 25.6-68.266667l12.8-25.6-42.666667-55.466666L256 34.133333l55.466667 46.933334z m268.8-209.066667h-136.533334c-42.666667 0-81.066667 34.133333-85.333333 76.8v12.8c-12.8 4.266667-21.333333 8.533333-34.133333 12.8l-12.8-8.533333c-34.133333-29.866667-85.333333-25.6-115.2 4.266666l-93.866667 93.866667c-29.866667 29.866667-34.133333 81.066667-4.266667 115.2l8.533334 12.8c-4.266667 12.8-8.533333 21.333333-12.8 34.133333h-12.8c-42.666667 4.266667-76.8 42.666667-76.8 85.333334v136.533333c0 42.666667 34.133333 81.066667 76.8 85.333333h12.8c4.266667 12.8 8.533333 21.333333 12.8 34.133334l-8.533334 17.066666c-29.866667 34.133333-25.6 85.333333 4.266667 115.2l98.133333 98.133334c29.866667 29.866667 81.066667 34.133333 115.2 4.266666l12.8-8.533333c12.8 4.266667 21.333333 8.533333 34.133334 12.8v12.8c4.266667 42.666667 42.666667 76.8 85.333333 76.8h136.533333c42.666667 0 81.066667-34.133333 85.333334-76.8v-12.8c12.8-4.266667 21.333333-8.533333 34.133333-12.8l12.8 8.533333c34.133333 29.866667 85.333333 25.6 115.2-4.266666l98.133333-98.133334c29.866667-29.866667 34.133333-81.066667 4.266667-115.2l-8.533333-12.8c4.266667-12.8 8.533333-21.333333 12.8-34.133333h12.8c42.666667-4.266667 76.8-42.666667 76.8-85.333333v-136.533334c0-42.666667-34.133333-81.066667-76.8-85.333333H938.666667c-4.266667-12.8-8.533333-21.333333-12.8-34.133333l8.533333-12.8c29.866667-34.133333 25.6-85.333333-4.266667-115.2l-98.133333-98.133334c-29.866667-29.866667-81.066667-34.133333-115.2-4.266666l-12.8 8.533333c-12.8-4.266667-21.333333-8.533333-34.133333-12.8v-12.8c-8.533333-42.666667-46.933333-76.8-89.6-76.8zM512 597.333333c-119.466667 0-213.333333-93.866667-213.333333-213.333333s93.866667-213.333333 213.333333-213.333333 213.333333 93.866667 213.333333 213.333333-98.133333 213.333333-213.333333 213.333333m0-85.333333c72.533333 0 128-55.466667 128-128s-55.466667-128-128-128-128 55.466667-128 128 55.466667 128 128 128"  horiz-adv-x="1028" />

    
    <glyph glyph-name="shouye-iconx" unicode="&#58963;" d="M892.282158 330.887967c-72.232365 0-127.46888 63.73444-127.46888 140.215767 0-76.481328-55.236515-140.215768-127.46888-140.215767s-127.46888 63.73444-127.468879 140.215767c0-76.481328-55.236515-140.215768-127.46888-140.215767s-127.46888 63.73444-127.46888 140.215767c0-76.481328-55.236515-140.215768-127.468879-140.215767s-127.46888 63.73444-127.46888 140.215767l89.228216 259.186722h841.294606L1019.751037 471.103734c0-80.73029-59.485477-140.215768-127.468879-140.215767z m33.991701 399.402489l8.497925-8.497925h-4.248962l-4.248963 8.497925z m-50.987552 72.232366H144.46473c-25.493776 0-42.489627 21.244813-42.489626 46.738589 0 25.493776 21.244813 46.738589 42.489626 46.738589h726.572614c25.493776 0 42.489627-21.244813 42.489627-46.738589 4.248963-25.493776-16.995851-46.738589-38.240664-46.738589zM161.460581 241.659751v-297.427386h696.829875v297.427386h72.232366v-310.174274c0-25.493776-29.742739-59.485477-55.236515-59.485477H144.46473c-25.493776 0-55.236515 33.991701-55.236514 59.485477v310.174274h72.232365z"  horiz-adv-x="1024" />

    
    <glyph glyph-name="sousuoiconx" unicode="&#58964;" d="M797.257143 171.885714l36.571428-29.257143L1024-54.857143l-73.142857-73.142857-197.485714 182.857143-29.257143 36.571428c-73.142857-58.514286-175.542857-95.085714-277.942857-95.085714C197.485714-3.657143 0 193.828571 0 442.514286S197.485714 896 446.171429 896s446.171429-197.485714 446.171428-446.171429c0-109.714286-29.257143-204.8-95.085714-277.942857z m-351.085714-43.885714c175.542857 0 321.828571 146.285714 321.828571 321.828571s-146.285714 321.828571-321.828571 321.828572-321.828571-146.285714-321.828572-321.828572 146.285714-321.828571 321.828572-321.828571z"  horiz-adv-x="1024" />

    
    <glyph glyph-name="weishoucangiconx" unicode="&#58965;" d="M806.4-128c-4.266667 0-12.8 0-17.066667 4.266667L512 29.866667l-277.333333-153.6c-12.8-4.266667-25.6-4.266667-38.4 4.266666s-17.066667 21.333333-12.8 34.133334l55.466666 324.266666L12.8 469.333333C0 482.133333 0 494.933333 4.266667 507.733333c4.266667 12.8 17.066667 21.333333 29.866666 25.6l174.933334 29.866667c21.333333 4.266667 38.4-8.533333 42.666666-29.866667 4.266667-21.333333-8.533333-38.4-29.866666-42.666666l-110.933334-17.066667L298.666667 277.333333c8.533333-8.533333 12.8-21.333333 8.533333-29.866666l-42.666667-268.8 226.133334 123.733333c12.8 4.266667 25.6 4.266667 34.133333 0l226.133333-128-42.666666 268.8c0 12.8 0 21.333333 8.533333 29.866667l187.733333 192-256 38.4c-12.8 0-21.333333 8.533333-25.6 21.333333L512 772.266667 396.8 529.066667c-8.533333-17.066667-29.866667-25.6-46.933333-17.066667-17.066667 8.533333-25.6 29.866667-17.066667 51.2L482.133333 874.666667c4.266667 12.8 17.066667 21.333333 29.866667 21.333333 12.8 0 25.6-8.533333 34.133333-21.333333L682.666667 580.266667l307.2-46.933334c12.8-4.266667 25.6-12.8 29.866666-25.6 4.266667-12.8 0-25.6-8.533333-38.4l-226.133333-230.4 51.2-324.266666c4.266667-12.8-4.266667-25.6-17.066667-34.133334 0-4.266667-8.533333-8.533333-12.8-8.533333z"  horiz-adv-x="1024" />

    
    <glyph glyph-name="tuikuanx" unicode="&#58966;" d="M889.6 704c0 21.333333-17.066667 38.4-34.133333 38.4h-183.466667V793.6h213.333333c29.866667 0 55.466667-25.6 55.466667-55.466667v-529.066666H893.866667V704z m-221.866667 0c0-34.133333-25.6-64-59.733333-64H403.2c-17.066667 0-29.866667 8.533333-42.666667 17.066667-12.8 12.8-17.066667 29.866667-17.066666 42.666666v38.4H164.266667c-21.333333 0-34.133333-17.066667-34.133334-38.4V-42.666667c0-21.333333 17.066667-38.4 34.133334-38.4h490.666666V-128H138.666667C108.8-128 83.2-102.4 83.2-72.533333V733.866667c0 29.866667 25.6 55.466667 55.466667 55.466666h209.066666v42.666667C347.733333 866.133333 373.333333 896 407.466667 896h204.8c34.133333 0 59.733333-29.866667 59.733333-64l-4.266667-128z m-64 29.866667V810.666667c0 12.8-4.266667 17.066667-17.066666 17.066666H433.066667c-12.8 0-25.6-4.266667-25.6-17.066666v-76.8c0-12.8 8.533333-25.6 25.6-25.6h153.6c12.8 0 21.333333 12.8 17.066666 25.6z m68.266667-430.933334c0-17.066667-12.8-29.866667-25.6-29.866666h-106.666667v-128c0-17.066667-12.8-29.866667-25.6-29.866667-17.066667 0-25.6 12.8-25.6 29.866667v128H381.866667c-17.066667 0-25.6 12.8-25.6 29.866666 0 17.066667 12.8 29.866667 25.6 29.866667h106.666666v46.933333H381.866667c-17.066667 0-25.6 12.8-25.6 29.866667 0 17.066667 12.8 29.866667 25.6 29.866667h55.466666L377.6 499.2c-8.533333 12.8-8.533333 29.866667 0 38.4 4.266667 4.266667 12.8 8.533333 21.333333 8.533333s12.8-4.266667 21.333334-8.533333l98.133333-102.4h4.266667l98.133333 102.4c4.266667 4.266667 12.8 8.533333 21.333333 8.533333s12.8-4.266667 21.333334-8.533333c8.533333-12.8 8.533333-29.866667 0-38.4l-59.733334-59.733333h55.466667c17.066667 0 25.6-12.8 25.6-29.866667 0-17.066667-12.8-29.866667-25.6-29.866667H552.533333v-46.933333h106.666667s12.8-12.8 12.8-29.866667z m38.4-366.933333c4.266667 0 8.533333 4.266667 12.8 4.266667h55.466667c12.8 0 25.6 4.266667 34.133333 8.533333s21.333333 12.8 29.866667 21.333333c8.533333 8.533333 17.066667 17.066667 21.333333 29.866667 4.266667 12.8 8.533333 21.333333 8.533333 34.133333 0 12.8-4.266667 25.6-8.533333 34.133334-12.8 34.133333-42.666667 55.466667-76.8 59.733333h-59.733333l25.6-64-136.533334 93.866667 136.533334 93.866666-25.6-64H791.466667c17.066667 0 38.4-8.533333 51.2-17.066666 17.066667-8.533333 29.866667-17.066667 42.666666-34.133334 12.8-12.8 21.333333-29.866667 29.866667-46.933333 8.533333-17.066667 8.533333-34.133333 8.533333-55.466667s-4.266667-38.4-8.533333-55.466666c-8.533333-17.066667-17.066667-34.133333-29.866667-46.933334-12.8-12.8-25.6-25.6-42.666666-34.133333-17.066667-8.533333-34.133333-12.8-55.466667-17.066667H723.2c-4.266667 0-8.533333 0-12.8 4.266667-8.533333 4.266667-12.8 8.533333-17.066667 17.066667-4.266667 8.533333-4.266667 17.066667 0 21.333333 0 4.266667 4.266667 8.533333 8.533334 8.533333s8.533333 0 8.533333 4.266667z"  horiz-adv-x="1024" />

    
    <glyph glyph-name="wode-shoucangx" unicode="&#58967;" d="M806.4-128c-6.4 0-12.8 0-19.2 6.4L512 32l-275.2-153.6c-12.8-6.4-25.6-6.4-38.4 0-12.8 6.4-19.2 19.2-12.8 38.4l51.2 326.4L12.8 473.6C0 480 0 492.8 0 505.6c6.4 12.8 12.8 19.2 25.6 25.6l179.2 32c19.2 6.4 38.4-12.8 44.8-32 6.4-19.2-6.4-38.4-32-38.4l-102.4-19.2 185.6-192c6.4-6.4 12.8-19.2 12.8-32l-44.8-268.8 230.4 128c12.8 6.4 25.6 6.4 38.4 0l230.4-128-44.8 268.8c0 12.8 0 25.6 12.8 32l185.6 192-256 38.4c-25.6 0-32 6.4-38.4 19.2L512 774.4 396.8 531.2c-6.4-19.2-25.6-25.6-44.8-19.2-19.2 12.8-25.6 32-19.2 51.2L480 876.8c6.4 12.8 19.2 19.2 32 19.2s25.6-6.4 32-19.2L684.8 576l307.2-44.8c12.8 0 25.6-12.8 32-25.6 6.4-12.8 0-25.6-6.4-38.4l-224-230.4 51.2-326.4c0-12.8-6.4-25.6-12.8-38.4h-25.6z"  horiz-adv-x="1026" />

    
    <glyph glyph-name="xiaoxiiconx" unicode="&#58968;" d="M512 896C230.4 896 0 665.6 0 384s230.4-512 512-512 512 230.4 512 512-230.4 512-512 512z m3072 0c-281.6 0-512-230.4-512-512s230.4-512 512-512 512 230.4 512 512-230.4 512-512 512zM2048 896c-281.6 0-512-230.4-512-512s230.4-512 512-512 512 230.4 512 512-230.4 512-512 512z"  horiz-adv-x="4096" />

    
    <glyph glyph-name="xingjix" unicode="&#58970;" d="M773.12-128c-15.36 0-30.72 5.12-40.96 10.24l-209.92 112.64c-5.12 5.12-10.24 5.12-15.36 0l-209.92-112.64c-15.36-5.12-30.72-10.24-46.08-10.24-25.6 0-51.2 10.24-71.68 30.72-20.48 20.48-25.6 51.2-20.48 76.8l40.96 240.64c0 5.12 0 15.36-5.12 20.48L25.6 414.72C0 440.32-5.12 476.16 5.12 512c10.24 35.84 40.96 56.32 71.68 61.44L307.2 609.28c5.12 0 10.24 5.12 15.36 10.24l102.4 220.16C445.44 875.52 476.16 896 512 896s66.56-20.48 81.92-51.2l102.4-220.16c5.12-5.12 10.24-10.24 15.36-10.24l230.4-35.84c35.84-5.12 61.44-30.72 71.68-61.44 10.24-35.84 5.12-71.68-20.48-97.28l-168.96-174.08c-5.12-5.12-5.12-10.24-5.12-20.48l40.96-240.64c5.12-25.6-5.12-56.32-20.48-76.8-15.36-25.6-40.96-35.84-66.56-35.84zM512 71.68c15.36 0 30.72-5.12 40.96-10.24l209.92-112.64h10.24c5.12 0 10.24 0 15.36 5.12 5.12 5.12 5.12 10.24 5.12 15.36l-40.96 240.64c-5.12 30.72 5.12 61.44 25.6 81.92l168.96 174.08c10.24 10.24 5.12 20.48 5.12 20.48 0 5.12-5.12 10.24-15.36 15.36L701.44 537.6c-30.72 5.12-56.32 25.6-71.68 51.2l-102.4 220.16c-5.12 10.24-10.24 10.24-15.36 10.24-5.12 0-10.24 0-15.36-10.24L394.24 588.8c-15.36-25.6-40.96-46.08-71.68-51.2l-230.4-35.84c-10.24 0-15.36-10.24-15.36-15.36 0-5.12-5.12-15.36 5.12-20.48l168.96-174.08c20.48-20.48 30.72-51.2 25.6-81.92l-40.96-240.64c0-5.12 0-15.36 5.12-20.48 5.12-5.12 10.24-5.12 15.36-5.12h10.24l209.92 112.64c5.12 15.36 20.48 15.36 35.84 15.36z"  horiz-adv-x="1024" />

    
    <glyph glyph-name="wode-iconx" unicode="&#58971;" d="M1011.144086 307.765024c16.922914-50.768741-12.692185-109.998938-63.460926-126.921851 12.692185-76.153111-29.615099-152.306222-101.537482-177.690593-4.230728-33.845827-33.845827-54.999469-63.460926-54.999469h-12.692185c-8.461457-12.692185-16.922914-25.38437-33.845827-29.615099-21.153642-8.461457-42.307284 0-59.230197 16.922914-12.692185-21.153642-33.845827-33.845827-54.999469-33.845827-16.922914 0-29.615099 4.230728-42.307284 16.922913-12.692185-21.153642-33.845827-33.845827-54.999469-33.845827-29.615099 0-50.768741 16.922914-63.460926 46.538012-12.692185-8.461457-25.38437-12.692185-38.076556-12.692185-16.922914 0-33.845827 8.461457-46.538012 21.153642-16.922914-16.922914-38.076556-25.38437-59.230198-25.38437-50.768741 0-93.076025 38.076556-101.537481 88.845296-8.461457-4.230728-16.922914-4.230728-25.38437-4.230728-38.076556 0-67.691654 33.845827-67.691655 71.922382v8.461457C71.922383 87.767148 33.845827 134.30516 33.845827 189.304629c0 29.615099 12.692185 59.230197 29.615099 76.153111l12.692185 12.692186 8.461457 8.461456C46.538012 303.534296 16.922914 345.84158 16.922914 392.379592c0 29.615099 12.692185 54.999469 29.615098 76.153111C16.922914 472.763432 0 498.147802 0 527.762901 0 565.839456 25.38437 595.454555 54.999469 599.685283c-8.461457 8.461457-12.692185 16.922914-12.692185 29.615099-16.922914 50.768741 12.692185 109.998938 63.460926 126.921852 16.922914 8.461457 38.076556 8.461457 54.999469 0 0 25.38437 16.922914 46.538012 42.307284 54.999469 16.922914 4.230728 29.615099 4.230728 42.307284-4.230728C262.30516 845.06753 296.150987 874.682629 334.227543 887.374814 380.765555 904.297728 427.303568 895.836271 465.380123 866.221172l25.38437 12.692185c42.307284 12.692185 88.845296-4.230728 109.998939-46.538012 12.692185 12.692185 29.615099 21.153642 50.76874 29.615099 76.153111 25.38437 156.53695-12.692185 181.921321-88.845297 4.230728 0 8.461457 4.230728 16.922914 4.230729 38.076556 0 67.691654-33.845827 67.691654-71.922383v-4.230728c21.153642 0 42.307284-21.153642 42.307284-42.307284 0-12.692185-4.230728-21.153642-8.461457-29.615099 21.153642-12.692185 33.845827-33.845827 33.845827-63.460926 0-16.922914-4.230728-29.615099-12.692185-42.307284 16.922914-4.230728 29.615099-21.153642 29.615099-42.307284 0-12.692185-4.230728-21.153642-8.461457-29.615098 0-4.230728 4.230728-8.461457 4.230728-12.692186 8.461457-29.615099 4.230728-63.460926-12.692185-84.614567 4.230728-8.461457 16.922914-25.38437 25.384371-46.538013zM507.687407 726.607135c-46.538012 0-93.076025-8.461457-135.383309-25.38437-42.307284-16.922914-76.153111-42.307284-109.998938-71.922383C232.690062 595.454555 207.305691 557.377999 190.382778 515.070716c-16.922914-42.307284-25.38437-88.845296-25.384371-135.383309s8.461457-93.076025 25.384371-135.383309c16.922914-42.307284 42.307284-76.153111 71.922382-109.998938 29.615099-29.615099 67.691654-54.999469 109.998938-71.922382 42.307284-16.922914 88.845296-25.38437 135.383309-25.384371s93.076025 8.461457 135.383309 25.384371c42.307284 16.922914 76.153111 42.307284 109.998938 71.922382 29.615099 29.615099 54.999469 67.691654 71.922382 109.998938 16.922914 42.307284 25.38437 88.845296 25.384371 135.383309s-8.461457 93.076025-25.384371 135.383309c-16.922914 42.307284-42.307284 76.153111-71.922382 109.998938-29.615099 29.615099-67.691654 54.999469-109.998938 71.922382-42.307284 21.153642-88.845296 29.615099-135.383309 29.615099z m-219.997876 25.38437c-29.615099 0-50.768741-25.38437-50.768741-54.999469 0-16.922914 8.461457-33.845827 25.38437-46.538012 25.38437 21.153642 50.768741 42.307284 80.38384 54.999469-4.230728 25.38437-25.38437 46.538012-54.999469 46.538012z m435.765024 0c-25.38437 0-46.538012-16.922914-50.768741-42.307283 29.615099-16.922914 59.230197-33.845827 80.38384-54.99947 12.692185 8.461457 25.38437 25.38437 25.38437 46.538013 0 25.38437-21.153642 50.768741-54.999469 50.76874zM376.534827 870.4519c25.38437 0 50.768741-8.461457 71.922383-25.38437 4.230728-4.230728 8.461457-4.230728 12.692185-4.230728 4.230728 0 8.461457 0 12.692185 4.230728 8.461457 8.461457 12.692185 8.461457 21.153642 12.692185 8.461457 4.230728 12.692185 4.230728 21.153642 4.230729 25.38437 0 46.538012-12.692185 59.230197-38.076556 4.230728-8.461457 8.461457-12.692185 16.922914-12.692185h4.230728c4.230728 0 12.692185 0 16.922914 4.230728 12.692185 12.692185 25.38437 21.153642 42.307284 25.384371 12.692185 4.230728 25.38437 8.461457 38.076555 8.461457 25.38437 0 46.538012-8.461457 67.691655-21.153642 21.153642-16.922914 38.076556-38.076556 46.538012-59.230198 4.230728-8.461457 12.692185-12.692185 21.153642-12.692185H841.91495c25.38437 0 42.307284-21.153642 42.307284-46.538012 0-4.230728 4.230728-12.692185 8.461457-16.922914 4.230728-4.230728 8.461457-8.461457 16.922913-8.461457s16.922914-8.461457 16.922914-21.153642c0-4.230728 0-8.461457-4.230729-12.692185-4.230728-4.230728-4.230728-12.692185-4.230728-16.922913 0-8.461457 4.230728-12.692185 12.692185-16.922914 12.692185-8.461457 25.38437-25.38437 25.384371-42.307284 0-8.461457-4.230728-21.153642-8.461457-29.615099-4.230728-4.230728-4.230728-12.692185-4.230729-21.153642s8.461457-12.692185 12.692186-12.692185c8.461457-8.461457 16.922914-16.922914 16.922913-25.38437 0-4.230728 0-12.692185-4.230728-12.692185-4.230728-8.461457-8.461457-16.922914-4.230729-25.384371 0-4.230728 4.230728-8.461457 4.230729-8.461457 8.461457-21.153642 4.230728-46.538012-8.461457-67.691654-8.461457-8.461457-4.230728-21.153642 4.230728-29.615099 12.692185-8.461457 21.153642-21.153642 25.384371-38.076555 12.692185-42.307284-8.461457-84.614568-46.538013-97.306753-12.692185-4.230728-16.922914-12.692185-16.922913-25.38437 4.230728-33.845827 0-63.460926-16.922914-93.076025-16.922914-29.615099-42.307284-50.768741-71.922382-59.230198-8.461457-4.230728-12.692185-8.461457-16.922914-16.922913-4.230728-21.153642-21.153642-38.076556-42.307284-38.076556h-8.461457-4.230728c-8.461457 0-16.922914-4.230728-21.153642-12.692185-4.230728-8.461457-12.692185-16.922914-21.153642-16.922913h-8.461457c-8.461457 0-16.922914 4.230728-25.38437 12.692185-4.230728 4.230728-8.461457 8.461457-16.922914 8.461457h-4.230728c-8.461457 0-12.692185-4.230728-16.922914-12.692186-4.230728-21.153642-16.922914-29.615099-33.845827-29.615098-8.461457 0-16.922914 4.230728-25.38437 8.461456-4.230728 4.230728-8.461457 4.230728-12.692185 4.230729h-4.230729c-8.461457 0-12.692185-4.230728-16.922913-12.692185-8.461457-12.692185-21.153642-21.153642-38.076556-21.153642s-33.845827 12.692185-42.307284 29.615098c-4.230728 8.461457-8.461457 12.692185-12.692185 12.692186h-8.461457c-4.230728 0-8.461457 0-12.692185-4.230729-8.461457-4.230728-16.922914-8.461457-25.38437-8.461457-12.692185 0-21.153642 4.230728-29.615099 12.692186-4.230728 4.230728-8.461457 8.461457-16.922914 8.461456-4.230728 0-8.461457 0-12.692185-4.230728-12.692185-8.461457-29.615099-16.922914-46.538012-16.922914-16.922914 0-38.076556 8.461457-50.768741 21.153642-12.692185 12.692185-25.38437 29.615099-29.615098 50.768741 0 8.461457-4.230728 12.692185-12.692186 16.922914-4.230728 0-8.461457 4.230728-8.461456 4.230728-4.230728 0-8.461457 0-8.461457-4.230728-4.230728-4.230728-12.692185-4.230728-16.922914-4.230729-25.38437 0-42.307284 21.153642-42.307284 46.538013v4.230728c0 12.692185-8.461457 21.153642-16.922913 25.38437-21.153642 4.230728-38.076556 12.692185-50.768741 29.615099-12.692185 16.922914-21.153642 38.076556-21.153642 59.230198 0 25.38437 8.461457 46.538012 21.153642 63.460925 0 4.230728 4.230728 4.230728 4.230728 4.230729H84.614568c4.230728 0 4.230728 4.230728 8.461457 4.230728 8.461457 4.230728 8.461457 12.692185 8.461456 21.153642s-4.230728 16.922914-12.692185 16.922914c-16.922914 8.461457-29.615099 16.922914-38.076555 33.845827-8.461457 16.922914-16.922914 33.845827-16.922914 50.768741 0 21.153642 8.461457 46.538012 21.153642 63.460925 4.230728 4.230728 8.461457 12.692185 4.230728 21.153642s0 21.153642-8.461456 25.384371c-16.922914 4.230728-29.615099 25.38437-29.615099 42.307284 0 25.38437 16.922914 42.307284 38.076555 46.538012 8.461457 0 12.692185 8.461457 16.922914 12.692185 4.230728 8.461457 0 16.922914-4.230728 21.153642-4.230728 12.692185-8.461457 16.922914-8.461457 25.384371-12.692185 42.307284 8.461457 84.614568 46.538012 97.306753 8.461457 4.230728 12.692185 4.230728 21.153642 4.230728s12.692185 0 21.153642-4.230728h8.461457c4.230728 0 8.461457 0 12.692185 4.230728 4.230728 4.230728 8.461457 8.461457 8.461457 16.922913 0 16.922914 12.692185 29.615099 25.38437 33.845828h8.461457c4.230728 0 12.692185 0 16.922914-4.230729 4.230728 0 8.461457-4.230728 12.692185-4.230728H253.843704c4.230728 0 12.692185 4.230728 12.692185 12.692185 12.692185 38.076556 42.307284 63.460926 71.922382 76.153111 12.692185 4.230728 25.38437 4.230728 38.076556 4.230728z m0 25.384371c-12.692185 0-29.615099-4.230728-42.307284-8.461457-42.307284-12.692185-71.922383-42.307284-88.845296-80.383839-8.461457 4.230728-21.153642 4.230728-29.615099 4.230728h-16.922914c-21.153642-8.461457-38.076556-29.615099-42.307284-54.999469-8.461457 0-16.922914 4.230728-25.38437 4.230728-8.461457 0-21.153642 0-29.615099-4.230728-46.538012-16.922914-76.153111-76.153111-59.230197-126.921852 0-12.692185 8.461457-21.153642 12.692185-29.615099-29.615099-4.230728-54.999469-33.845827-54.999469-71.922382 0-29.615099 16.922914-54.999469 42.307284-67.691655-16.922914-21.153642-29.615099-46.538012-29.615099-76.153111 0-46.538012 25.38437-88.845296 67.691654-105.768209-4.230728 0-4.230728-4.230728-8.461456-8.461457l-12.692186-12.692185c-16.922914-21.153642-29.615099-46.538012-29.615098-76.153111 0-54.999469 38.076556-101.537481 88.845296-109.998939v-8.461456c0-38.076556 29.615099-71.922383 67.691654-71.922383 8.461457 0 16.922914 4.230728 25.384371 4.230728 8.461457-50.768741 50.768741-88.845296 101.537481-88.845296 21.153642 0 42.307284 8.461457 59.230197 21.153642 12.692185-12.692185 29.615099-21.153642 46.538013-21.153642 12.692185 0 25.38437 4.230728 38.076555 12.692185 8.461457-25.38437 33.845827-46.538012 63.460926-46.538012 25.38437 0 46.538012 12.692185 54.999469 33.845827 12.692185-8.461457 25.38437-16.922914 42.307284-16.922913 25.38437 0 46.538012 12.692185 54.999469 33.845827 12.692185-12.692185 25.38437-16.922914 42.307284-16.922914 4.230728 0 12.692185 0 16.922914 4.230729 16.922914 4.230728 25.38437 16.922914 33.845827 29.615098h12.692185c33.845827 0 59.230197 25.38437 63.460926 54.999469 71.922383 25.38437 114.229667 101.537481 101.537481 177.690593 50.768741 16.922914 76.153111 71.922383 63.460926 126.921852-4.230728 21.153642-16.922914 38.076556-33.845827 50.76874 16.922914 25.38437 21.153642 54.999469 12.692185 84.614568 0 4.230728-4.230728 8.461457-4.230728 12.692185 8.461457 8.461457 8.461457 16.922914 8.461457 29.615099 0 21.153642-12.692185 33.845827-29.615099 42.307284 8.461457 12.692185 12.692185 25.38437 12.692185 42.307284 0 25.38437-12.692185 50.768741-33.845827 63.460926 4.230728 8.461457 8.461457 16.922914 8.461457 29.615098 0 25.38437-16.922914 42.307284-42.307284 42.307284v8.461457c0 38.076556-29.615099 71.922383-67.691654 71.922383-4.230728 0-12.692185 0-16.922914-4.230729-21.153642 59.230197-76.153111 97.306753-135.383309 97.306753-16.922914 0-29.615099-4.230728-46.538012-8.461456-21.153642-8.461457-38.076556-16.922914-50.768741-29.615099C571.148333 861.990444 541.533234 883.144086 507.687407 883.144086c-8.461457 0-21.153642 0-29.615099-4.230729l-25.38437-12.692185c-12.692185 16.922914-42.307284 29.615099-76.153111 29.615099zM507.687407 726.607135c46.538012 0 93.076025-8.461457 135.383309-25.38437 42.307284-16.922914 76.153111-42.307284 109.998938-71.922383 29.615099-33.845827 54.999469-71.922383 71.922382-114.229666 16.922914-42.307284 25.38437-88.845296 25.384371-135.383309s-8.461457-93.076025-25.384371-135.383309c-16.922914-42.307284-42.307284-76.153111-71.922382-109.998938-29.615099-29.615099-67.691654-54.999469-109.998938-71.922382-42.307284-16.922914-88.845296-25.38437-135.383309-25.384371s-88.845296 12.692185-131.15258 29.615099c-42.307284 16.922914-76.153111 42.307284-109.998938 71.922383-29.615099 29.615099-54.999469 67.691654-71.922383 109.998938-16.922914 42.307284-25.38437 88.845296-25.38437 135.383308s4.230728 88.845296 21.153642 131.152581 42.307284 76.153111 71.922382 109.998938c33.845827 29.615099 71.922383 54.999469 114.229667 71.922382 42.307284 21.153642 84.614568 29.615099 131.15258 29.615099z m0 21.153642c-203.074963 0-363.842642-164.998407-363.842642-363.842642s164.998407-363.842642 363.842642-363.842641 363.842642 164.998407 363.842642 363.842641-160.767679 363.842642-363.842642 363.842642zM346.919728 506.609259c0-12.692185 12.692185-25.38437 25.38437-25.384371s25.38437 12.692185 25.384371 25.384371-12.692185 25.38437-25.384371 25.38437-25.38437-12.692185-25.38437-25.38437zM617.686345 506.609259c0-12.692185 12.692185-25.38437 25.384371-25.384371s25.38437 12.692185 25.38437 25.384371-12.692185 25.38437-25.38437 25.38437-25.38437-12.692185-25.384371-25.38437zM287.689531 751.991505c25.38437 0 46.538012-16.922914 50.76874-42.307283-25.38437-16.922914-54.999469-33.845827-76.153111-59.230198-16.922914 12.692185-25.38437 29.615099-25.38437 46.538012 0 29.615099 21.153642 54.999469 50.768741 54.999469z m0 21.153642c-42.307284 0-76.153111-33.845827-76.153111-76.153111 0-25.38437 12.692185-50.768741 33.845827-63.460925 8.461457-4.230728 12.692185-4.230728 16.922913-4.230729 4.230728 0 12.692185 0 16.922914 4.230729 21.153642 21.153642 50.768741 38.076556 76.153111 54.999469 8.461457 4.230728 12.692185 16.922914 12.692185 25.38437-8.461457 16.922914-16.922914 29.615099-29.615099 42.307284-12.692185 12.692185-29.615099 16.922914-50.76874 16.922913zM723.454555 751.991505c29.615099 0 54.999469-25.38437 54.999469-54.999469 0-16.922914-8.461457-33.845827-25.38437-46.538012-25.38437 21.153642-50.768741 42.307284-80.38384 54.999469 4.230728 29.615099 25.38437 46.538012 50.768741 46.538012z m0 21.153642c-16.922914 0-33.845827-4.230728-46.538012-16.922913-12.692185-12.692185-21.153642-25.38437-25.384371-42.307284-4.230728-8.461457 4.230728-21.153642 12.692186-25.38437 29.615099-12.692185 54.999469-33.845827 76.153111-54.999469 4.230728-4.230728 8.461457-4.230728 16.922913-4.230729 4.230728 0 8.461457 0 12.692185 4.230729 21.153642 12.692185 33.845827 38.076556 33.845827 63.460925 0 42.307284-38.076556 76.153111-80.383839 76.153111zM507.687407 316.226481c54.999469 0 114.229667-12.692185 164.998407-42.307284 42.307284-25.38437 80.383839-54.999469 109.998938-97.306753-29.615099-38.076556-67.691654-71.922383-109.998938-97.306753-50.768741-25.38437-105.76821-42.307284-164.998407-42.307284s-114.229667 12.692185-164.998407 42.307284c-42.307284 25.38437-80.383839 54.999469-109.998938 97.306753 29.615099 38.076556 67.691654 71.922383 109.998938 97.306753 50.768741 25.38437 109.998938 42.307284 164.998407 42.307284z m0 21.153642c-126.921852 0-236.92079-63.460926-304.612444-160.767679 67.691654-97.306753 177.690592-160.767679 304.612444-160.767679s236.92079 63.460926 304.612444 160.767679c-67.691654 97.306753-177.690592 160.767679-304.612444 160.767679zM549.994691 341.610851c0 8.461457 0 12.692185-4.230728 12.692186h-59.230198c-8.461457 0-12.692185-4.230728-12.692185-12.692186v-8.461456l16.922913-29.615099 8.461457-16.922914v-80.383839c0-4.230728 4.230728-12.692185 12.692185-12.692185 4.230728 0 12.692185 4.230728 12.692186 12.692185v80.383839l25.38437 54.999469c0-4.230728 0-4.230728 0 0z"  horiz-adv-x="1024" />

    
    <glyph glyph-name="yuanxingweixuanzhongx" unicode="&#58972;" d="M512-128C228.894118-128 0 100.894118 0 384S228.894118 896 512 896 1024 667.105882 1024 384 795.105882-128 512-128z m0 951.717647c-240.941176 0-439.717647-198.776471-439.717647-439.717647s198.776471-439.717647 439.717647-439.717647 439.717647 198.776471 439.717647 439.717647-198.776471 439.717647-439.717647 439.717647z"  horiz-adv-x="1024" />

    
    <glyph glyph-name="zhankaiiconx" unicode="&#58973;" d="M896-128l857.6 870.4c12.8 12.8 12.8 51.2 0 64l-38.4 38.4c-12.8 25.6-51.2 25.6-64 0L896 102.4 140.8 857.6C128 883.2 102.4 883.2 76.8 857.6L38.4 819.2c-25.6-25.6-25.6-51.2 0-76.8L896-128z"  horiz-adv-x="1792" />

    
    <glyph glyph-name="regoudanpinx" unicode="&#58974;" d="M393.431579-117.221053c-21.557895 0-37.726316 5.389474-53.894737 16.168421l-10.778947 10.778948L43.115789 195.368421c-16.168421 16.168421-26.947368 32.336842-26.947368 59.284211 0 26.947368 10.778947 53.894737 26.947368 70.063157l231.747369 231.747369 48.505263 53.894737L571.284211 858.273684c16.168421 16.168421 37.726316 26.947368 59.28421 26.947369h16.168421s204.8-37.726316 237.136842-43.11579c43.115789-5.389474 75.452632-21.557895 80.842105-80.842105 5.389474-43.115789 43.115789-237.136842 43.11579-242.526316v-16.168421c0-16.168421-5.389474-26.947368-26.947368-64.673684l-10.778948-16.168421-43.115789-43.11579c-16.168421-21.557895-32.336842-21.557895-43.11579-21.557894-5.389474 0-10.778947 0-16.168421-5.389474 0 0-5.389474-5.389474-5.389474-16.168421v-5.389474c0-37.726316-16.168421-75.452632-43.115789-102.4s-70.063158-43.115789-107.789474-43.115789c-5.389474 0-10.778947 0-16.168421-5.389474 0 0-5.389474-5.389474-5.389473-16.168421v-5.389474c0-37.726316-16.168421-75.452632-43.11579-102.4s-70.063158-43.115789-107.789474-43.115789c-5.389474 0-10.778947 0-16.168421-5.389474 0 0-5.389474-5.389474-5.389473-16.168421 0-10.778947 0-26.947368-16.168421-43.115789-16.168421-10.778947-26.947368-21.557895-32.336842-26.947369-10.778947-10.778947-21.557895-21.557895-32.336843-26.947368H431.157895c-16.168421-10.778947-26.947368-10.778947-37.726316-10.778948z m-5.389474 80.842106h10.778948l10.778947 10.778947 26.947368 26.947368c0 26.947368 10.778947 48.505263 26.947369 64.673685 21.557895 21.557895 48.505263 26.947368 75.452631 26.947368 16.168421 0 37.726316 5.389474 53.894737 21.557895 10.778947 10.778947 21.557895 32.336842 21.557895 48.505263v5.389474c0 26.947368 10.778947 53.894737 26.947368 70.063158 16.168421 16.168421 43.115789 26.947368 70.063158 26.947368 16.168421 0 37.726316 5.389474 53.894737 21.557895 10.778947 10.778947 21.557895 32.336842 21.557895 48.505263v5.389474c0 26.947368 10.778947 53.894737 26.947368 70.063157 16.168421 16.168421 37.726316 26.947368 64.673685 26.947369l37.726315 37.726316c5.389474 16.168421 10.778947 21.557895 16.168421 26.947368-5.389474 26.947368-37.726316 199.410526-43.115789 237.136842v10.778948h-10.778947c-32.336842 5.389474-204.8 37.726316-231.747369 43.115789h-5.389474l-5.389473-5.389474L377.263158 551.073684l-48.505263-53.894737-231.747369-231.747368c-5.389474-5.389474-5.389474-10.778947-5.389473-10.778947l5.389473-5.389474 291.031579-285.642105zM1983.326316-68.715789h-183.242105l-26.947369 253.305263h183.242105l26.947369-253.305263z m-204.8 0h-183.242105l-26.947369 253.305263h183.242105l26.947369-253.305263z m-210.189474 0h-183.242105l-26.947369 253.305263h183.242106l26.947368-253.305263z m-253.305263 0H1131.789474l26.947368 253.305263h183.242105l-26.947368-253.305263zM1131.789474 701.978947V777.431579h59.28421V896H1401.263158v-113.178947h48.505263v-75.452632H1401.263158v-150.905263l48.505263 10.778947v-75.452631l-48.505263-21.557895v-150.905263c0-53.894737-37.726316-97.010526-86.231579-97.010527h-172.463158V303.157895h26.947368c16.168421 0 26.947368 10.778947 26.947369 26.947368V427.115789l-64.673684-10.778947V491.789474l59.28421 10.778947V701.978947H1131.789474z m344.926315 21.557895V798.989474h53.894737l5.389474 97.010526h199.410526L1724.631579 798.989474h231.747368V303.157895h26.947369v-75.452632h-231.747369V723.536842h-43.115789l-26.947369-253.305263 48.505264-32.336842v-86.231579l-53.894737 37.726316-16.168421-161.684211h-199.410527l26.947369 285.642105-26.947369 21.557895V621.136842l48.505264-21.557895 10.778947 123.957895h-43.11579z m824.589474 21.557895v-458.105263l16.168421-43.11579V798.989474h-161.68421v-555.11579l16.168421 48.505263V745.094737h129.347368z m194.021053-210.189474h107.789473l-21.557894-361.094737h21.557894c5.389474 0 5.389474 0 10.778948 5.389474s5.389474 10.778947 5.389474 16.168421l-5.389474 194.021053h107.789474l10.778947-226.357895c0-16.168421 0-32.336842-10.778947-48.505263-10.778947-10.778947-21.557895-21.557895-32.336843-21.557895h-220.968421l26.947369 441.936842z m5.389473 361.094737h145.51579l-16.168421-91.621053h247.915789v-781.473684c0-53.894737-32.336842-97.010526-70.063158-97.010526h-145.515789v75.452631h53.894737c10.778947 0 21.557895 10.778947 21.557895 26.947369V723.536842h-118.568421l-16.168422-129.347368h-145.515789l43.115789 301.810526z m-458.105263-695.242105V879.831579h398.821053v-679.073684h-102.4l102.4-274.863158h-145.51579l-53.894736 156.294737-59.284211-156.294737h-145.515789l102.4 274.863158h-97.010527z m1503.663158 140.126316V459.452632h-70.063158v-150.905264h48.505263c10.778947 5.389474 21.557895 16.168421 21.557895 32.336843z m0 344.926315h-70.063158v-150.905263h70.063158V685.810526z m-361.094737-226.357894v-150.905264h75.452632V459.452632h-75.452632z m0 226.357894v-150.905263h75.452632V685.810526h-75.452632zM3702.568421 896L3664.842105 766.652632h86.231579v-414.989474c0-64.673684-48.505263-118.568421-102.4-118.568421h-172.463158v-75.452632h317.978948v-75.452631h-317.978948V-74.105263h-215.578947v156.294737h-317.978947v75.452631h317.978947v75.452632h-280.252632V766.652632h86.231579L3028.884211 896h215.578947l37.726316-129.347368h172.463158l32.336842 129.347368h215.578947z m813.810526-851.536842v296.421053h-53.894736v-328.757895h26.947368c16.168421 0 26.947368 10.778947 26.947368 32.336842z m-441.936842 0v296.421053h-53.894737v-328.757895h26.947369c16.168421 0 26.947368 10.778947 26.947368 32.336842z m339.536842 538.947368V793.6h-285.642105v-242.526316h258.694737c16.168421 0 26.947368 16.168421 26.947368 32.336842z m274.863158-161.68421V33.684211c0-53.894737-37.726316-97.010526-86.231579-97.010527h-312.589473v485.052632H4688.842105z m-441.936842 0V33.684211c0-53.894737-37.726316-97.010526-86.231579-97.010527h-312.589473v485.052632h398.821052z m377.263158 452.715789V572.631579c0-53.894737-37.726316-97.010526-86.231579-97.010526H3912.757895V874.442105h711.410526z"  horiz-adv-x="4688" />

    
    <glyph glyph-name="yonghumingx" unicode="&#58969;" d="M185.6 236.8c-12.8 0-25.6-6.4-32-12.8-76.8-89.6-121.6-204.8-121.6-320 0-19.2 12.8-32 32-32 6.4 0 32 12.8 32 12.8s6.4 12.8 6.4 19.2c0 102.4 38.4 204.8 102.4 281.6 6.4 12.8 12.8 25.6 6.4 32-6.4 6.4-12.8 19.2-25.6 19.2zM256 320c-6.4-6.4-19.2-19.2-32-25.6-12.8-12.8-12.8-25.6-12.8-38.4 6.4-12.8 19.2-19.2 32-19.2 6.4 0 12.8 0 12.8 6.4 12.8 6.4 19.2 12.8 32 19.2 19.2 12.8 19.2 32 12.8 44.8-6.4 12.8-25.6 19.2-44.8 12.8zM953.6 102.4c-6.4 6.4-6.4 19.2-12.8 25.6-32 64-83.2 121.6-140.8 166.4-44.8 38.4-96 57.6-153.6 76.8 83.2 51.2 140.8 140.8 140.8 243.2C787.2 768 665.6 896 512 896S236.8 768 236.8 614.4c0-102.4 57.6-198.4 140.8-243.2-12.8-6.4-25.6-6.4-38.4-12.8-12.8-6.4-12.8-12.8-19.2-25.6s0-25.6 6.4-32c12.8-6.4 25.6-6.4 32 0 134.4 51.2 288 32 403.2-57.6 51.2-38.4 89.6-89.6 121.6-147.2 6.4-6.4 6.4-19.2 12.8-25.6 19.2-51.2 32-108.8 32-166.4 0-19.2 12.8-32 32-32 6.4 0 19.2 6.4 25.6 19.2 0 0 6.4 12.8 6.4 19.2 0 64-12.8 128-38.4 192z m-652.8 512C300.8 729.6 396.8 832 512 832s211.2-96 211.2-217.6-96-217.6-211.2-217.6-211.2 102.4-211.2 217.6z"  horiz-adv-x="1024" />

    
    <glyph glyph-name="xingjix1" unicode="&#58975;" d="M773.12-128c-15.36 0-30.72 5.12-40.96 10.24l-209.92 112.64c-5.12 5.12-10.24 5.12-15.36 0l-209.92-112.64c-15.36-5.12-30.72-10.24-46.08-10.24-25.6 0-51.2 10.24-71.68 30.72s-25.6 51.2-20.48 76.8l40.96 240.64c0 5.12 0 15.36-5.12 20.48L25.6 414.72C0 440.32-5.12 476.16 5.12 512s40.96 56.32 71.68 61.44L307.2 609.28c5.12 0 10.24 5.12 15.36 10.24l102.4 220.16C445.44 875.52 476.16 896 512 896s66.56-20.48 81.92-51.2l102.4-220.16c5.12-5.12 10.24-10.24 15.36-10.24l230.4-35.84c35.84-5.12 61.44-30.72 71.68-61.44 10.24-35.84 5.12-71.68-20.48-97.28l-168.96-174.08c-5.12-5.12-5.12-10.24-5.12-20.48l40.96-240.64c5.12-25.6-5.12-56.32-20.48-76.8-15.36-25.6-40.96-35.84-66.56-35.84z"  horiz-adv-x="1024" />

    
    <glyph glyph-name="mimax" unicode="&#58976;" d="M928-102.4V544c0 12.8-12.8 25.6-32 25.6h-51.2v44.8 256c0 12.8-12.8 25.6-32 25.6H179.2c-19.2 0-38.4-12.8-38.4-25.6v-300.8H64c-19.2 0-32-12.8-32-25.6v-204.8c0-19.2 19.2-32 38.4-32s32 12.8 32 32V518.4h38.4V512c0-12.8 12.8-25.6 32-25.6h640c19.2 0 32 12.8 32 25.6v6.4h19.2v-588.8H96v160c0 12.8-12.8 25.6-32 25.6s-32-12.8-32-25.6v-192c0-12.8 19.2-25.6 38.4-25.6h832c19.2 0 38.4 12.8 25.6 25.6zM230.4 537.6c-12.8 0-19.2 6.4-19.2 19.2v32V825.6c0 12.8 6.4 19.2 19.2 19.2h531.2c12.8 0 19.2-6.4 19.2-19.2v-268.8c-6.4-6.4-6.4-6.4-6.4-12.8 0 0-6.4-6.4-12.8-6.4H230.4zM70.4 160c19.2 0 32 12.8 32 25.6v51.2c0 12.8-12.8 25.6-32 25.6s-32-12.8-32-25.6v-51.2c0-12.8 12.8-25.6 32-25.6zM192 172.8h582.4c19.2 0 32 12.8 32 25.6s-12.8 25.6-32 25.6H192c-19.2 0-32-12.8-32-25.6s12.8-25.6 32-25.6zM192 19.2h582.4c19.2 0 32 12.8 32 25.6s-12.8 25.6-32 25.6H192c-19.2 0-32-12.8-32-25.6s12.8-25.6 32-25.6zM192 326.4h582.4c19.2 0 38.4 12.8 32 32 0 12.8-12.8 25.6-32 25.6H192c-12.8 0-32-6.4-32-25.6 0-19.2 12.8-32 32-32z"  horiz-adv-x="1024" />

    
    <glyph glyph-name="biaojiiconx" unicode="&#58977;" d="M512 896L960 640v-512L512-128 64 128V640z"  horiz-adv-x="1024" />

    
    <glyph glyph-name="shoucangiconx" unicode="&#58978;" d="M806.4-128c-4.266667 0-12.8 0-17.066667 4.266667L512 29.866667l-277.333333-153.6c-12.8-4.266667-25.6-4.266667-38.4 4.266666s-17.066667 21.333333-12.8 34.133334l55.466666 324.266666L12.8 469.333333C0 482.133333 0 494.933333 4.266667 507.733333c4.266667 12.8 17.066667 21.333333 29.866666 25.6l174.933334 29.866667c21.333333 4.266667 38.4-8.533333 42.666666-29.866667s-8.533333-38.4-29.866666-42.666666l-110.933334-17.066667L298.666667 277.333333c8.533333-8.533333 12.8-21.333333 8.533333-29.866666l-42.666667-268.8 226.133334 123.733333c12.8 4.266667 25.6 4.266667 34.133333 0l226.133333-128-42.666666 268.8c0 12.8 0 21.333333 8.533333 29.866667l187.733333 192-256 38.4c-12.8 0-21.333333 8.533333-25.6 21.333333L512 772.266667 396.8 529.066667c-8.533333-17.066667-29.866667-25.6-46.933333-17.066667-17.066667 8.533333-25.6 29.866667-17.066667 51.2L482.133333 874.666667c4.266667 12.8 17.066667 21.333333 29.866667 21.333333 12.8 0 25.6-8.533333 34.133333-21.333333L682.666667 580.266667l307.2-46.933334c12.8-4.266667 25.6-12.8 29.866666-25.6s0-25.6-8.533333-38.4l-226.133333-230.4 51.2-324.266666c4.266667-12.8-4.266667-25.6-17.066667-34.133334 0-4.266667-8.533333-8.533333-12.8-8.533333z"  horiz-adv-x="1024" />

    
    <glyph glyph-name="jindux1" unicode="&#58979;" d="M455.68 168.96c-10.24 0-20.48 5.12-30.72 10.24L256 353.28c-15.36 15.36-15.36 46.08 0 61.44s46.08 15.36 61.44 0l138.24-138.24 276.48 276.48c15.36 15.36 46.08 15.36 61.44 0s15.36-46.08 0-61.44l-307.2-307.2c-5.12-5.12-20.48-10.24-30.72-15.36z m307.2-153.6c10.24 5.12 20.48 5.12 30.72 0 10.24-5.12 15.36-15.36 20.48-25.6 0-10.24-5.12-20.48-15.36-30.72C711.68-97.28 614.4-128 512-128 230.4-128 0 102.4 0 384c0 102.4 30.72 199.68 87.04 281.6 5.12 10.24 15.36 15.36 25.6 15.36s20.48-5.12 25.6-20.48c5.12-10.24 5.12-25.6 0-30.72-51.2-71.68-76.8-158.72-76.8-245.76 0-245.76 199.68-445.44 445.44-445.44 92.16 0 179.2 25.6 256 76.8zM512 896c281.6 0 512-230.4 512-512 0-107.52-35.84-215.04-97.28-302.08-5.12-10.24-20.48-15.36-30.72-15.36s-20.48 10.24-25.6 20.48-5.12 25.6 5.12 30.72c56.32 76.8 87.04 168.96 87.04 261.12 0 245.76-199.68 445.44-445.44 445.44-97.28 5.12-189.44-25.6-266.24-81.92-15.36-10.24-35.84-5.12-46.08 10.24-10.24 15.36-10.24 35.84 5.12 46.08C296.96 860.16 404.48 896 512 896z"  horiz-adv-x="1024" />

    
    <glyph glyph-name="shoujiyanzhengx" unicode="&#58980;" d="M768 896c34.133333 0 64-29.866667 64-64v-896c0-34.133333-29.866667-64-64-64h-512C221.866667-128 192-98.133333 192-64v896C192 866.133333 221.866667 896 256 896h512z m0-832V768c0 21.333333-12.8 34.133333-34.133333 34.133333H285.866667c-17.066667-4.266667-29.866667-17.066667-29.866667-34.133333v-704c0-21.333333 12.8-34.133333 34.133333-34.133333h448c17.066667 0 29.866667 12.8 29.866667 34.133333zM657.066667 861.866667c-8.533333 0-17.066667-4.266667-17.066667-17.066667s4.266667-17.066667 17.066667-17.066667 17.066667 4.266667 17.066666 17.066667-8.533333 17.066667-17.066666 17.066667zM465.066667 861.866667c-8.533333 0-17.066667-4.266667-17.066667-12.8s8.533333-17.066667 17.066667-17.066667h93.866666c12.8 0 17.066667 4.266667 17.066667 17.066667S571.733333 861.866667 558.933333 861.866667H465.066667z m46.933333-960c25.6 0 46.933333 21.333333 46.933333 46.933333S537.6 0 512 0s-46.933333-21.333333-46.933333-46.933333 21.333333-51.2 46.933333-51.2zM482.133333 256c17.066667 0 34.133333-12.8 34.133334-34.133333s-17.066667-34.133333-34.133334-34.133334h-128c-21.333333 0-34.133333 12.8-34.133333 34.133334s17.066667 34.133333 34.133333 34.133333h128z m187.733334 192c17.066667 0 34.133333-12.8 34.133333-34.133333s-17.066667-29.866667-34.133333-29.866667H354.133333c-21.333333 0-34.133333 12.8-34.133333 29.866667s17.066667 34.133333 34.133333 34.133333h315.733334z m-315.733334 128c-21.333333 0-34.133333 12.8-34.133333 29.866667s17.066667 34.133333 34.133333 34.133333h192c17.066667 0 29.866667-12.8 29.866667-34.133333s-17.066667-29.866667-34.133333-29.866667H354.133333z"  horiz-adv-x="1024" />

    
    <glyph glyph-name="jiarugouwucheiconx" unicode="&#58981;" d="M183.466667 59.733333c-46.933333 0-89.6-42.666667-89.6-93.866666S132.266667-128 183.466667-128c46.933333 0 89.6 42.666667 89.6 93.866667-4.266667 55.466667-42.666667 93.866667-89.6 93.866666z m486.4 0c-46.933333 0-89.6-42.666667-89.6-93.866666s38.4-93.866667 89.6-93.866667c46.933333 0 89.6 42.666667 89.6 93.866667-4.266667 55.466667-42.666667 93.866667-89.6 93.866666zM311.466667 883.2c-17.066667 17.066667-29.866667 12.8-38.4-12.8-8.533333-29.866667-34.133333-38.4-55.466667-21.333333-21.333333 21.333333-42.666667 8.533333-38.4-21.333334 0-29.866667-21.333333-46.933333-46.933333-38.4-25.6 12.8-42.666667-4.266667-29.866667-34.133333 8.533333-29.866667-4.266667-51.2-34.133333-51.2-29.866667 0-38.4-17.066667-21.333334-42.666667s8.533333-51.2-17.066666-59.733333C0 593.066667 0 571.733333 21.333333 554.666667c25.6-17.066667 25.6-46.933333 0-64-21.333333-17.066667-21.333333-34.133333 0-46.933334h430.933334L311.466667 883.2z m640-226.133333c-34.133333 0-59.733333-25.6-68.266667-59.733334-145.066667-55.466667-140.8-221.866667-140.8-221.866666H25.6c8.533333-196.266667 183.466667-349.866667 401.066667-349.866667 213.333333 0 388.266667 153.6 401.066666 349.866667-4.266667 89.6 59.733333 132.266667 76.8 145.066666 12.8-12.8 29.866667-21.333333 51.2-21.333333 42.666667 0 72.533333 34.133333 72.533334 81.066667-4.266667 42.666667-38.4 76.8-76.8 76.8z"  horiz-adv-x="1028" />

    


  </font>
</defs>
</svg>
