<?xml version="1.0" encoding="UTF-8" standalone="no"?>
<svg width="15px" height="16px" viewBox="0 0 15 16" version="1.1" xmlns="http://www.w3.org/2000/svg" xmlns:xlink="http://www.w3.org/1999/xlink">
    <!-- Generator: Sketch 48.2 (47327) - http://www.bohemiancoding.com/sketch -->
    <title>密码@1x</title>
    <desc>Created with Sketch.</desc>
    <defs>
        <linearGradient x1="0%" y1="0%" x2="100%" y2="100%" id="linearGradient-1">
            <stop stop-color="#FD4A70" offset="0%"></stop>
            <stop stop-color="#F76B1C" offset="100%"></stop>
        </linearGradient>
    </defs>
    <g id="新-登录页" stroke="none" stroke-width="1" fill="none" fill-rule="evenodd" transform="translate(-47.000000, -356.000000)">
        <g id="Group" transform="translate(27.000000, 237.000000)" fill-rule="nonzero">
            <g id="Email" transform="translate(0.000000, 44.000000)">
                <g id="密码" transform="translate(20.000000, 75.000000)">
                    <polyline id="Shape" points="11.6353468 5.91999512 13.6353468 5.91999512 13.6353468 15.5199951 2.70022371 15.5199951 2.70022371 5.91999512 4.95302013 5.91999512"></polyline>
                    <polyline id="Shape" points="10.7580482 0.705145414 12.1812081 0.705145414 12.1812081 6.3803132 4.3999939 6.3803132 4.3999939 0.705145414 6.00303863 0.705145414"></polyline>
                    <path d="M2.2369097,6.4 C1.93937055,6.4 1.69999695,6.21859603 1.69999695,5.99311258 L1.69999695,4.36556291 C1.69999695,4.21524062 1.70447122,4.07961148 1.71341977,3.9586755 L1.71341977,0.406887417 C1.71341977,0.181403974 1.95503051,0 2.25033252,0 L12.1876927,0 C12.4852318,0 12.7246054,0.181403974 12.7246054,0.406887417 L12.7246054,3.19915232 C12.733554,3.82530684 12.7380283,4.21354525 12.7380283,4.36386755 L12.7380283,5.99141722 C12.7380283,6.21690066 12.4986547,6.4 12.2011155,6.4 L2.2369097,6.4 Z M3.07382245,5.58622517 L11.3642028,5.58622517 C11.5298882,5.58622517 11.6642028,5.45191059 11.6642028,5.28622517 L11.6642028,4.36386755 C11.6552542,3.73771302 11.6507799,3.34947461 11.6507799,3.19915232 L11.6507799,1.1154702 C11.6507799,0.949784774 11.5164654,0.815470199 11.3507799,0.815470199 L3.08724527,0.815470199 C2.92155985,0.815470199 2.78724527,0.949784774 2.78724527,1.1154702 L2.78724527,4.36556291 C2.78724527,4.51588521 2.782771,4.65151435 2.77382245,4.77245033 L2.77382245,5.28622517 C2.77382245,5.45191059 2.90813703,5.58622517 3.07382245,5.58622517 Z" id="Shape" fill="url(#linearGradient-1)"></path>
                    <path d="M0.552572707,9.16510067 C0.255033557,9.16510067 0.0156599553,8.97360179 0.0156599553,8.73557047 L0.0156599553,5.50514541 C0.0156599553,5.26711409 0.257270694,5.07561521 0.552572707,5.07561521 L2.24832215,5.07561521 C2.5458613,5.07561521 2.7852349,5.26711409 2.7852349,5.50514541 C2.7852349,5.74317673 2.54362416,5.93467562 2.24832215,5.93467562 L1.08948546,5.93467562 L1.08948546,8.73557047 C1.08948546,8.97181208 0.850111857,9.16510067 0.552572707,9.16510067 Z M0.552572707,11.5096197 C0.255033557,11.5096197 0.0156599553,11.3181208 0.0156599553,11.0800895 L0.0156599553,10.3105145 C0.0156599553,10.0724832 0.257270694,9.88098434 0.552572707,9.88098434 C0.850111857,9.88098434 1.08948546,10.0724832 1.08948546,10.3105145 L1.08948546,11.0800895 C1.08948546,11.3181208 0.850111857,11.5096197 0.552572707,11.5096197 Z M13.6353468,15.9892617 L0.552572707,15.9892617 C0.255033557,15.9892617 0.0156599553,15.7977629 0.0156599553,15.5597315 L0.0156599553,12.5834452 C0.0156599553,12.3454139 0.257270694,12.153915 0.552572707,12.153915 C0.850111857,12.153915 1.08948546,12.3454139 1.08948546,12.5834452 L1.08948546,15.1302013 L13.098434,15.1302013 L13.098434,5.93467562 L12.2416107,5.93467562 C11.9440716,5.93467562 11.704698,5.74317673 11.704698,5.50514541 C11.704698,5.26711409 11.9463087,5.07561521 12.2416107,5.07561521 L13.6353468,5.07561521 C13.9328859,5.07561521 14.1722595,5.26711409 14.1722595,5.50514541 L14.1722595,15.5597315 C14.1722595,15.7977629 13.9328859,15.9892617 13.6353468,15.9892617 Z" id="Shape" fill="url(#linearGradient-1)"></path>
                    <path d="M11.6442953,8.8590604 L2.5458613,8.8590604 C2.24832215,8.8590604 2.00894855,8.66756152 2.00894855,8.4295302 C2.00894855,8.19149888 2.25055928,8 2.5458613,8 L11.6442953,8 C11.9418345,8 12.1812081,8.19149888 12.1812081,8.4295302 C12.1812081,8.66577181 11.9395973,8.8590604 11.6442953,8.8590604 Z M11.6442953,11.2662192 L2.5458613,11.2662192 C2.24832215,11.2662192 2.00894855,11.0747204 2.00894855,10.836689 C2.00894855,10.5986577 2.25055928,10.4071588 2.5458613,10.4071588 L11.6442953,10.4071588 C11.9418345,10.4071588 12.1812081,10.5986577 12.1812081,10.836689 C12.1812081,11.0747204 11.9395973,11.2662192 11.6442953,11.2662192 Z M11.6442953,13.6751678 L2.5458613,13.6751678 C2.24832215,13.6751678 2.00894855,13.4836689 2.00894855,13.2456376 C2.00894855,13.0076063 2.25055928,12.8161074 2.5458613,12.8161074 L11.6442953,12.8161074 C11.9418345,12.8161074 12.1812081,13.0076063 12.1812081,13.2456376 C12.1812081,13.4836689 11.9395973,13.6751678 11.6442953,13.6751678 Z" id="Shape" fill="url(#linearGradient-1)"></path>
                </g>
            </g>
        </g>
    </g>
</svg>