<?xml version="1.0" encoding="UTF-8" standalone="no"?>
<svg width="15px" height="24px" viewBox="0 0 15 24" version="1.1" xmlns="http://www.w3.org/2000/svg" xmlns:xlink="http://www.w3.org/1999/xlink">
    <!-- Generator: Sketch 48.2 (47327) - http://www.bohemiancoding.com/sketch -->
    <title>手机验证@1x</title>
    <desc>Created with Sketch.</desc>
    <defs>
        <linearGradient x1="0%" y1="0%" x2="100%" y2="100%" id="linearGradient-1">
            <stop stop-color="#FD4A70" offset="0%"></stop>
            <stop stop-color="#F76B1C" offset="100%"></stop>
        </linearGradient>
    </defs>
    <g id="新-申请入驻-注册01" stroke="none" stroke-width="1" fill="none" fill-rule="evenodd" transform="translate(-10.000000, -143.000000)">
        <g id="手机验证" transform="translate(10.000000, 143.000000)" fill="url(#linearGradient-1)" fill-rule="nonzero">
            <path d="M13.5,0 C14.325,0 15,0.675 15,1.5 L15,22.5 C15,23.325 14.325,24 13.5,24 L1.5,24 C0.675,24 0,23.325 0,22.5 L0,1.5 C0,0.675 0.675,0 1.5,0 L13.5,0 Z M13.5,19.5 L13.5,3 C13.5,2.55 13.2,2.25 12.75,2.25 L2.25,2.25 C1.8,2.25 1.5,2.55 1.5,3 L1.5,19.5 C1.5,19.95 1.8,20.25 2.25,20.25 L12.75,20.25 C13.2,20.25 13.5,19.95 13.5,19.5 Z M10.875,0.75 C10.65,0.75 10.5,0.9 10.5,1.125 C10.5,1.35 10.65,1.5 10.875,1.5 C11.1,1.5 11.25,1.35 11.25,1.125 C11.25,0.9 11.1,0.75 10.875,0.75 Z M6.375,0.75 C6.15,0.75 6,0.9 6,1.125 C6,1.35 6.15,1.5 6.375,1.5 L8.625,1.5 C8.85,1.5 9,1.35 9,1.125 C9,0.9 8.85,0.75 8.625,0.75 L6.375,0.75 Z M7.5,23.25 C8.1,23.25 8.625,22.725 8.625,22.125 C8.625,21.525 8.1,21 7.5,21 C6.9,21 6.375,21.525 6.375,22.125 C6.375,22.725 6.9,23.25 7.5,23.25 Z M6.75,15 C7.2,15 7.5,15.3 7.5,15.75 C7.5,16.2 7.125,16.5 6.75,16.5 L3.75,16.5 C3.3,16.5 3,16.2 3,15.75 C3,15.3 3.375,15 3.75,15 L6.75,15 Z M11.25,10.5 C11.7,10.5 12,10.8 12,11.25 C12,11.7 11.625,12 11.25,12 L3.75,12 C3.3,12 3,11.7 3,11.25 C3,10.8 3.375,10.5 3.75,10.5 L11.25,10.5 Z M3.75,7.5 C3.3,7.5 3,7.2 3,6.75 C3,6.3 3.375,6 3.75,6 L8.25,6 C8.7,6 9,6.3 9,6.75 C9,7.2 8.625,7.5 8.25,7.5 L3.75,7.5 Z" id="Shape"></path>
        </g>
    </g>
</svg>