<?xml version="1.0" encoding="UTF-8" standalone="no"?>
<svg width="15px" height="16px" viewBox="0 0 15 16" version="1.1" xmlns="http://www.w3.org/2000/svg" xmlns:xlink="http://www.w3.org/1999/xlink">
    <!-- Generator: Sketch 48.2 (47327) - http://www.bohemiancoding.com/sketch -->
    <title>用户名@1x</title>
    <desc>Created with Sketch.</desc>
    <defs>
        <linearGradient x1="0%" y1="0%" x2="100%" y2="100%" id="linearGradient-1">
            <stop stop-color="#FD4A70" offset="0%"></stop>
            <stop stop-color="#F76B1C" offset="100%"></stop>
        </linearGradient>
    </defs>
    <g id="新-登录页" stroke="none" stroke-width="1" fill="none" fill-rule="evenodd" transform="translate(-47.000000, -301.000000)">
        <g id="Group" transform="translate(27.000000, 237.000000)" fill-rule="nonzero">
            <g id="Email" transform="translate(0.000000, 44.000000)">
                <g id="用户名" transform="translate(20.000000, 20.000000)">
                    <path d="M5.11837636,4.3648515 C5.11688863,5.60796908 5.63931341,6.79242379 6.55394142,7.61960097 C6.86448252,7.71372072 7.18688384,7.76142868 7.51098479,7.76122131 C9.35652034,7.76122131 10.8579633,6.23788233 10.8579633,4.3654327 C10.8579633,2.49298308 9.35652034,0.968675437 7.51098479,0.968675437 C7.18670127,0.968348727 6.86410315,1.01599199 6.55336857,1.11010205 C5.63895298,1.93738464 5.11674307,3.12182482 5.11837636,4.3648515 Z" id="Shape"></path>
                    <path d="M7.49952776,0.968675438 C9.34506331,0.968675438 10.8465063,2.49201442 10.8465063,4.36446403 C10.8465063,6.23691364 9.34506333,7.76005889 7.49952776,7.76005891 C5.6539922,7.76005892 4.15254927,6.23691366 4.15254927,4.3648515 C4.15254927,2.49278934 5.65399221,0.968675422 7.49952776,0.968675438 Z M7.49952776,5.68434189e-14 C5.12391393,0.00038746875 3.1981792,1.95420583 3.1981792,4.3648515 C3.1981792,6.77549717 5.12391393,8.72854059 7.49952776,8.72854059 C9.8751416,8.72854059 11.8008763,6.77472225 11.8008763,4.3648515 C11.8008764,1.95498075 9.87590541,0.00038746875 7.49952776,0.00038746875 L7.49952776,5.68434189e-14 Z" id="Shape" fill="url(#linearGradient-1)"></path>
                    <path d="M13.7537277,13.6060151 C13.6806083,13.3594198 13.5933871,13.1173572 13.4925075,12.8810585 C13.4370046,12.7519017 13.3775553,12.6242303 13.3141598,12.4980442 C12.8537356,11.5868683 12.1926327,10.795539 11.3821234,10.1854285 C10.2581084,9.33621542 8.89311807,8.87943212 7.49169956,8.88352867 C7.24287573,8.8834733 6.99424635,8.8976384 6.74699291,8.92595666 C4.18825727,9.98723747 2.38587624,12.5379536 2.38587622,15.5156619 L14.028698,15.5156619 C14.0291588,14.868926 13.9365251,14.2255883 13.7537277,13.6060151 Z" id="Shape"></path>
                    <path d="M3.29098109,10.3069004 C3.08550395,10.3069004 2.90308005,10.1734992 2.83810247,9.97572367 C2.7731249,9.77794818 2.84017379,9.56017668 3.0045555,9.43509247 C3.1800497,9.3011435 3.36131239,9.17515651 3.54780938,9.05750278 C3.77175154,8.91626683 4.06614119,8.98596093 4.20534705,9.21316892 C4.34455292,9.44037691 4.27586058,9.73905974 4.05191841,9.88029569 C3.88884678,9.98316902 3.72921225,10.0934043 3.57759764,10.2096453 C3.49504638,10.2728654 3.39440931,10.3070136 3.29098109,10.3069004 Z M0.485537911,15.9999996 C0.221890434,15.9999996 0.00816192505,15.7831542 0.00816192505,15.5156619 C0.00764997326,13.6735577 0.667076027,11.8940571 1.8636269,10.5085786 C1.97521959,10.375493 2.14881405,10.3137073 2.31789751,10.3468947 C2.48698096,10.380082 2.62533841,10.5030969 2.67995814,10.6688062 C2.73457787,10.8345156 2.69699155,11.0172274 2.58160038,11.1469357 C1.53766966,12.3558678 0.962455948,13.908583 0.963104846,15.5158556 C0.963054213,15.64431 0.912710822,15.7674828 0.823149646,15.8582774 C0.733588471,15.949072 0.612145897,16.000051 0.485537911,15.9999996 Z M14.5135176,15.9999996 C14.2498702,15.9999996 14.0361416,15.7831542 14.0361416,15.5156619 C14.0377975,14.6093611 13.8553364,13.712439 13.5001439,12.8808647 C13.444641,12.751708 13.3851917,12.6240366 13.3217962,12.4978505 C12.8613421,11.5867487 12.200242,10.795489 11.3897601,10.1854285 C9.58232357,8.82976141 7.21596484,8.50913859 5.12124062,9.33609383 C4.96118562,9.40519751 4.77675233,9.3805041 4.63984492,9.27164072 C4.50293752,9.16277734 4.43522889,8.98697741 4.46311631,8.81277927 C4.49100372,8.63858112 4.61007251,8.49356091 4.77390185,8.434257 C7.17462808,7.48561544 9.88719876,7.85317552 11.9584104,9.40777581 C12.8873633,10.1059984 13.6449784,11.0122976 14.1722893,12.0561345 C14.2448504,12.1998859 14.3130197,12.3462205 14.3767971,12.4951382 C14.7838084,13.4483133 14.9930414,14.4762999 14.9914665,15.5150807 C14.9916187,15.6437365 14.9413124,15.7671673 14.8516466,15.8581407 C14.7619808,15.9491142 14.6403242,16.0001541 14.5135176,15.9999996 Z" id="Shape" fill="url(#linearGradient-1)"></path>
                </g>
            </g>
        </g>
    </g>
</svg>