<?xml version="1.0" standalone="no"?><!DOCTYPE svg PUBLIC "-//W3C//DTD SVG 1.1//EN" "http://www.w3.org/Graphics/SVG/1.1/DTD/svg11.dtd"><svg t="1525769481617" class="icon" style="" viewBox="0 0 1028 1024" version="1.1" xmlns="http://www.w3.org/2000/svg" p-id="7181" xmlns:xlink="http://www.w3.org/1999/xlink" width="200.78125" height="200"><defs><style type="text/css"></style></defs><path d="M183.466667 836.266667c-46.933333 0-89.6 42.666667-89.6 93.866666S132.266667 1024 183.466667 1024c46.933333 0 89.6-42.666667 89.6-93.866667-4.266667-55.466667-42.666667-93.866667-89.6-93.866666z m486.4 0c-46.933333 0-89.6 42.666667-89.6 93.866666s38.4 93.866667 89.6 93.866667c46.933333 0 89.6-42.666667 89.6-93.866667-4.266667-55.466667-42.666667-93.866667-89.6-93.866666zM311.466667 12.8c-17.066667-17.066667-29.866667-12.8-38.4 12.8-8.533333 29.866667-34.133333 38.4-55.466667 21.333333-21.333333-21.333333-42.666667-8.533333-38.4 21.333334 0 29.866667-21.333333 46.933333-46.933333 38.4-25.6-12.8-42.666667 4.266667-29.866667 34.133333 8.533333 29.866667-4.266667 51.2-34.133333 51.2-29.866667 0-38.4 17.066667-21.333334 42.666667s8.533333 51.2-17.066666 59.733333C0 302.933333 0 324.266667 21.333333 341.333333c25.6 17.066667 25.6 46.933333 0 64-21.333333 17.066667-21.333333 34.133333 0 46.933334h430.933334L311.466667 12.8z m640 226.133333c-34.133333 0-59.733333 25.6-68.266667 59.733334-145.066667 55.466667-140.8 221.866667-140.8 221.866666H25.6c8.533333 196.266667 183.466667 349.866667 401.066667 349.866667 213.333333 0 388.266667-153.6 401.066666-349.866667-4.266667-89.6 59.733333-132.266667 76.8-145.066666 12.8 12.8 29.866667 21.333333 51.2 21.333333 42.666667 0 72.533333-34.133333 72.533334-81.066667-4.266667-42.666667-38.4-76.8-76.8-76.8z" p-id="7182"></path></svg>