<?xml version="1.0" encoding="UTF-8" standalone="no"?>
<svg width="18px" height="20px" viewBox="0 0 18 20" version="1.1" xmlns="http://www.w3.org/2000/svg" xmlns:xlink="http://www.w3.org/1999/xlink">
    <!-- Generator: Sketch 48.2 (47327) - http://www.bohemiancoding.com/sketch -->
    <title>删除icon@1x</title>
    <desc>Created with Sketch.</desc>
    <defs></defs>
    <g id="新-新增实名信息-完成" stroke="none" stroke-width="1" fill="none" fill-rule="evenodd" transform="translate(-353.000000, -334.000000)">
        <g id="Group-Copy" transform="translate(0.000000, 318.000000)" fill="#999999">
            <g id="Group-3" transform="translate(291.000000, 16.000000)">
                <path d="M75.0909091,0 L66.8714545,0 L66.8714545,0.918461538 L66.9090909,3.07692308 L62,3.07692308 L62,4.61538462 L63.6363636,4.61538462 L63.6363636,20 L78.3636364,20 L78.3636364,4.61538462 L80,4.61538462 L80,3.07692308 L75.0909091,3.07692308 L75.0909091,0 Z M68.5454545,1.53846154 L73.4545455,1.53846154 L73.4545455,3.07692308 L68.5454545,3.07692308 L68.5454545,1.53846154 Z M65.2727273,4.61538462 L76.7272727,4.61538462 L76.7272727,18.4615385 L65.2727273,18.4615385 L65.2727273,4.61538462 Z M72.4545455,6.15384615 L72.4545455,16.9230769 L74.0909091,16.9230769 L74.0909091,6.15384615 L72.4545455,6.15384615 Z M67.9090909,6.15384615 L67.9090909,16.9230769 L69.5454545,16.9230769 L69.5454545,6.15384615 L67.9090909,6.15384615 Z" id="删除icon"></path>
            </g>
        </g>
    </g>
</svg>