<?xml version="1.0" encoding="UTF-8" standalone="no"?>
<svg width="18px" height="18px" viewBox="0 0 18 18" version="1.1" xmlns="http://www.w3.org/2000/svg" xmlns:xlink="http://www.w3.org/1999/xlink">
    <!-- Generator: Sketch 48.2 (47327) - http://www.bohemiancoding.com/sketch -->
    <title>添加收货人icon@1x</title>
    <desc>Created with Sketch.</desc>
    <defs></defs>
    <g id="新-大贸地址-管理-编辑" stroke="none" stroke-width="1" fill="none" fill-rule="evenodd" transform="translate(-387.000000, -146.000000)">
        <g id="添加收货人icon" transform="translate(388.000000, 147.000000)" stroke="#5D5D5D">
            <circle id="Oval" stroke-width="0.8" cx="8" cy="8" r="8"></circle>
            <path d="M3,8.33333333 L3,7.66666667 L3.96,7.66666667 L3.96,8.33333333 L3,8.33333333 Z M7.37333333,7.37333333 L8.62666667,7.37333333 L8.62666667,8.62666667 L7.37333333,8.62666667 L7.37333333,7.37333333 Z M8.33333333,13 L7.66666667,13 L7.66666667,12.04 L8.33333333,12.04 L8.33333333,13 Z M13,7.66666667 L13,8.33333333 L12.04,8.33333333 L12.04,7.66666667 L13,7.66666667 Z M7.66666667,3 L8.33333333,3 L8.33333333,3.96 L7.66666667,3.96 L7.66666667,3 Z M9.29333333,6.70666667 L9.29333333,7.66666667 L8.33333333,6.70666667 L9.29333333,6.70666667 Z M9.29333333,9.29333333 L8.33333333,9.29333333 L9.29333333,8.33333333 L9.29333333,9.29333333 Z M6.70666667,9.29333333 L6.70666667,8.33333333 L7.66666667,9.29333333 L6.70666667,9.29333333 Z M6.70666667,6.70666667 L7.66666667,6.70666667 L6.70666667,7.66666667 L6.70666667,6.70666667 Z" id="Rectangle-245" stroke-width="1.92"></path>
        </g>
    </g>
</svg>