<?xml version="1.0" encoding="UTF-8" standalone="no"?>
<svg width="18px" height="18px" viewBox="0 0 18 18" version="1.1" xmlns="http://www.w3.org/2000/svg" xmlns:xlink="http://www.w3.org/1999/xlink">
    <!-- Generator: Sketch 48.2 (47327) - http://www.bohemiancoding.com/sketch -->
    <title>编辑icon@1x</title>
    <desc>Created with Sketch.</desc>
    <defs></defs>
    <g id="新-实名认证管理" stroke="none" stroke-width="1" fill="none" fill-rule="evenodd" transform="translate(-352.000000, -186.000000)">
        <g id="Group" transform="translate(0.000000, 167.000000)" fill="#999999">
            <path d="M370,27.182197 L370,35.364394 C370,36.2644982 369.264583,37 368.364583,37 L353.635417,37 C352.735417,37 352,36.2644982 352,35.364394 L352,20.635606 C352,19.7355018 352.735417,19 353.635417,19 L361.816667,19 L361.816667,20.635606 L353.635417,20.635606 L353.635417,35.364394 L368.3625,35.364394 L368.3625,27.182197 L370,27.182197 Z M368.364583,19 L360.18125,27.182197 L360.18125,28.817803 L361.816667,28.817803 L370,20.635606 L370,19 L368.364583,19 L368.364583,19 Z" id="编辑icon"></path>
        </g>
    </g>
</svg>